Topmarks-Bold.ufo
<glyph name="exclam" format="1">
  <advance width="771"/>
  <unicode hex="0021"/>
  <outline>
    <contour>
      <point x="390" y="-20" type="curve" smooth="yes"/>
      <point x="494" y="-20"/>
      <point x="571" y="54"/>
      <point x="571" y="155" type="curve" smooth="yes"/>
      <point x="571" y="257"/>
      <point x="495" y="331"/>
      <point x="391" y="331" type="curve" smooth="yes"/>
      <point x="287" y="331"/>
      <point x="210" y="258"/>
      <point x="210" y="158" type="curve" smooth="yes"/>
      <point x="210" y="55"/>
      <point x="285" y="-20"/>
    </contour>
    <contour>
      <point x="319" y="498" type="line"/>
      <point x="448" y="498" type="line"/>
      <point x="542" y="1470" type="line"/>
      <point x="228" y="1470" type="line"/>
    </contour>
  </outline>
</glyph>
<glyph name="quotedbl" format="1">
  <advance width="1268"/>
  <unicode hex="0022"/>
  <outline>
    <contour>
      <point x="377" y="928" type="line"/>
      <point x="351" y="1470" type="line"/>
      <point x="547" y="1470" type="line"/>
      <point x="530" y="928" type="line"/>
    </contour>
    <contour>
      <point x="716" y="928" type="line"/>
      <point x="691" y="1470" type="line"/>
      <point x="885" y="1470" type="line"/>
      <point x="868" y="928" type="line"/>
    </contour>
  </outline>
</glyph>
<glyph name="numbersign" format="1">
  <advance width="1378"/>
  <unicode hex="0023"/>
  <outline>
    <contour>
      <point x="294" y="0" type="line"/>
      <point x="377" y="432" type="line"/>
      <point x="86" y="432" type="line"/>
      <point x="99" y="579" type="line"/>
      <point x="402" y="579" type="line"/>
      <point x="456" y="903" type="line"/>
      <point x="162" y="903" type="line"/>
      <point x="178" y="1048" type="line"/>
      <point x="478" y="1048" type="line"/>
      <point x="552" y="1456" type="line"/>
      <point x="707" y="1456" type="line"/>
      <point x="635" y="1048" type="line"/>
      <point x="912" y="1048" type="line"/>
      <point x="983" y="1456" type="line"/>
      <point x="1143" y="1456" type="line"/>
      <point x="1065" y="1048" type="line"/>
      <point x="1344" y="1048" type="line"/>
      <point x="1327" y="903" type="line"/>
      <point x="1041" y="903" type="line"/>
      <point x="986" y="579" type="line"/>
      <point x="1270" y="579" type="line"/>
      <point x="1253" y="432" type="line"/>
      <point x="963" y="432" type="line"/>
      <point x="886" y="0" type="line"/>
      <point x="733" y="0" type="line"/>
      <point x="806" y="432" type="line"/>
      <point x="530" y="432" type="line"/>
      <point x="454" y="0" type="line"/>
    </contour>
    <contour>
      <point x="553" y="579" type="line"/>
      <point x="833" y="579" type="line"/>
      <point x="887" y="903" type="line"/>
      <point x="611" y="903" type="line"/>
    </contour>
  </outline>
</glyph>
<glyph name="dollar" format="1">
  <advance width="1227"/>
  <unicode hex="0024"/>
  <outline>
    <contour>
      <point x="556" y="-173" type="line"/>
      <point x="556" y="1748" type="line"/>
      <point x="665" y="1748" type="line"/>
      <point x="665" y="-173" type="line"/>
    </contour>
    <component base="S" xOffset="-33"/>
  </outline>
</glyph>
<glyph name="percent" format="1">
  <advance width="2284"/>
  <unicode hex="0025"/>
  <outline>
    <contour>
      <point x="1792" y="116" type="curve" smooth="yes"/>
      <point x="1618" y="116"/>
      <point x="1543" y="255"/>
      <point x="1543" y="429" type="curve" smooth="yes"/>
      <point x="1543" y="601"/>
      <point x="1619" y="745"/>
      <point x="1793" y="745" type="curve" smooth="yes"/>
      <point x="1953" y="745"/>
      <point x="2039" y="619"/>
      <point x="2039" y="433" type="curve" smooth="yes"/>
      <point x="2039" y="262"/>
      <point x="1963" y="116"/>
    </contour>
    <contour>
      <point x="1788" y="-17" type="curve" smooth="yes"/>
      <point x="2030" y="-17"/>
      <point x="2206" y="152"/>
      <point x="2206" y="432" type="curve" smooth="yes"/>
      <point x="2206" y="697"/>
      <point x="2061" y="877"/>
      <point x="1794" y="877" type="curve" smooth="yes"/>
      <point x="1551" y="877"/>
      <point x="1374" y="708"/>
      <point x="1374" y="427" type="curve" smooth="yes"/>
      <point x="1374" y="188"/>
      <point x="1510" y="-17"/>
    </contour>
    <contour>
      <point x="492" y="576" type="curve" smooth="yes"/>
      <point x="734" y="576"/>
      <point x="910" y="745"/>
      <point x="910" y="1025" type="curve" smooth="yes"/>
      <point x="910" y="1290"/>
      <point x="765" y="1470"/>
      <point x="498" y="1470" type="curve" smooth="yes"/>
      <point x="255" y="1470"/>
      <point x="78" y="1301"/>
      <point x="78" y="1020" type="curve" smooth="yes"/>
      <point x="78" y="781"/>
      <point x="214" y="576"/>
    </contour>
    <contour>
      <point x="496" y="709" type="curve" smooth="yes"/>
      <point x="322" y="709"/>
      <point x="247" y="848"/>
      <point x="247" y="1022" type="curve" smooth="yes"/>
      <point x="247" y="1194"/>
      <point x="323" y="1338"/>
      <point x="497" y="1338" type="curve" smooth="yes"/>
      <point x="657" y="1338"/>
      <point x="743" y="1212"/>
      <point x="743" y="1026" type="curve" smooth="yes"/>
      <point x="743" y="855"/>
      <point x="667" y="709"/>
    </contour>
    <contour>
      <point x="537" y="0" type="line"/>
      <point x="718" y="0" type="line"/>
      <point x="1751" y="1470" type="line"/>
      <point x="1587" y="1470" type="line"/>
    </contour>
  </outline>
</glyph>
<glyph name="ampersand" format="1">
  <advance width="1610.0"/>
  <unicode hex="0026"/>
  <outline>
    <contour>
      <point x="680" y="-21" type="curve" smooth="yes"/>
      <point x="896" y="-21"/>
      <point x="1006" y="42"/>
      <point x="1117" y="159" type="curve"/>
      <point x="1200" y="72"/>
      <point x="1324" y="-14"/>
      <point x="1477" y="-36" type="curve"/>
      <point x="1584" y="112" type="line"/>
      <point x="1389" y="153"/>
      <point x="1318" y="214"/>
      <point x="1245" y="289" type="curve"/>
      <point x="1356" y="431"/>
      <point x="1434" y="632"/>
      <point x="1443" y="871" type="curve"/>
      <point x="1251" y="919" type="line"/>
      <point x="1251" y="746"/>
      <point x="1202" y="563"/>
      <point x="1109" y="436" type="curve"/>
      <point x="775" y="792" type="line"/>
      <point x="909" y="867"/>
      <point x="1049" y="989"/>
      <point x="1049" y="1191" type="curve" smooth="yes"/>
      <point x="1049" y="1376"/>
      <point x="881" y="1483"/>
      <point x="680" y="1483" type="curve" smooth="yes"/>
      <point x="495" y="1483"/>
      <point x="331" y="1361"/>
      <point x="331" y="1162" type="curve" smooth="yes"/>
      <point x="331" y="1010"/>
      <point x="401" y="928"/>
      <point x="485" y="837" type="curve"/>
      <point x="319" y="741"/>
      <point x="154" y="653"/>
      <point x="154" y="397" type="curve" smooth="yes"/>
      <point x="154" y="126"/>
      <point x="381" y="-21"/>
    </contour>
    <contour>
      <point x="696" y="178" type="curve" smooth="yes"/>
      <point x="543" y="178"/>
      <point x="387" y="225"/>
      <point x="387" y="408" type="curve" smooth="yes"/>
      <point x="387" y="571"/>
      <point x="488" y="618"/>
      <point x="605" y="684" type="curve"/>
      <point x="978" y="293" type="line"/>
      <point x="897" y="209"/>
      <point x="825" y="178"/>
    </contour>
    <contour>
      <point x="656" y="930" type="curve"/>
      <point x="593" y="996"/>
      <point x="533" y="1063"/>
      <point x="533" y="1174" type="curve" smooth="yes"/>
      <point x="533" y="1269"/>
      <point x="603" y="1315"/>
      <point x="690" y="1315" type="curve" smooth="yes"/>
      <point x="777" y="1315"/>
      <point x="849" y="1268"/>
      <point x="849" y="1174" type="curve" smooth="yes"/>
      <point x="849" y="1067"/>
      <point x="745" y="981"/>
    </contour>
  </outline>
</glyph>
<glyph name="quotesingle" format="1">
  <advance width="986"/>
  <unicode hex="0027"/>
  <outline>
    <contour>
      <point x="362" y="1742" type="line"/>
      <point x="320" y="2284" type="line"/>
      <point x="515" y="2284" type="line"/>
      <point x="515" y="1742" type="line"/>
    </contour>
  </outline>
</glyph>
<glyph name="parenleft" format="1">
  <advance width="1105"/>
  <unicode hex="0028"/>
  <outline>
    <contour>
      <point x="554" y="-316" type="curve"/>
      <point x="817" y="-316" type="line"/>
      <point x="644" y="56"/>
      <point x="560" y="263"/>
      <point x="560" y="570" type="curve" smooth="yes"/>
      <point x="560" y="887"/>
      <point x="651" y="1103"/>
      <point x="829" y="1492" type="curve"/>
      <point x="566" y="1492" type="line"/>
      <point x="358" y="1105"/>
      <point x="252" y="889"/>
      <point x="252" y="573" type="curve" smooth="yes"/>
      <point x="252" y="265"/>
      <point x="352" y="56"/>
    </contour>
  </outline>
</glyph>
<glyph name="parenright" format="1">
  <advance width="811.0"/>
  <unicode hex="0029"/>
  <outline>
    <contour>
      <point x="107" y="-244" type="curve"/>
      <point x="334" y="-244" type="line"/>
      <point x="537" y="128"/>
      <point x="637" y="337"/>
      <point x="637" y="645" type="curve" smooth="yes"/>
      <point x="637" y="961"/>
      <point x="530" y="1177"/>
      <point x="323" y="1564" type="curve"/>
      <point x="96" y="1564" type="line"/>
      <point x="273" y="1175"/>
      <point x="365" y="959"/>
      <point x="365" y="642" type="curve" smooth="yes"/>
      <point x="365" y="335"/>
      <point x="281" y="128"/>
    </contour>
  </outline>
</glyph>
<glyph name="asterisk" format="1">
  <advance width="1850"/>
  <unicode hex="002A"/>
  <outline>
    <contour>
      <point x="892" y="632" type="line"/>
      <point x="723" y="944" type="line"/>
      <point x="560" y="641" type="line"/>
      <point x="414" y="729" type="line"/>
      <point x="632" y="1009" type="line"/>
      <point x="318" y="1100" type="line"/>
      <point x="343" y="1259" type="line"/>
      <point x="665" y="1114" type="line"/>
      <point x="635" y="1470" type="line"/>
      <point x="786" y="1470" type="line"/>
      <point x="773" y="1120" type="line"/>
      <point x="1037" y="1262" type="line"/>
      <point x="1113" y="1116" type="line"/>
      <point x="810" y="1013" type="line"/>
      <point x="1040" y="718" type="line"/>
    </contour>
  </outline>
</glyph>
<glyph name="plus" format="1">
  <advance width="1664"/>
  <unicode hex="002B"/>
  <outline>
    <contour>
      <point x="748.643" y="109" type="line"/>
      <point x="748.643" y="605" type="line"/>
      <point x="286" y="605" type="line"/>
      <point x="286" y="769" type="line"/>
      <point x="751.352" y="769" type="line"/>
      <point x="751.352" y="1266" type="line"/>
      <point x="914.912" y="1266" type="line"/>
      <point x="914.912" y="769" type="line"/>
      <point x="1379.36" y="769" type="line"/>
      <point x="1379.36" y="605" type="line"/>
      <point x="913.032" y="605" type="line"/>
      <point x="913.032" y="109" type="line"/>
    </contour>
  </outline>
</glyph>
<glyph name="comma" format="1">
  <advance width="532"/>
  <unicode hex="002C"/>
  <outline>
    <contour>
      <point x="68" y="-331" type="line"/>
      <point x="193" y="213" type="line"/>
      <point x="442" y="213" type="line"/>
      <point x="252" y="-331" type="line"/>
    </contour>
  </outline>
</glyph>
<glyph name="hyphen" format="1">
  <advance width="1264"/>
  <unicode hex="002D"/>
  <outline>
    <contour>
      <point x="243" y="657" type="line"/>
      <point x="243" y="825" type="line"/>
      <point x="1022.03" y="825" type="line"/>
      <point x="1022.03" y="657" type="line"/>
    </contour>
  </outline>
</glyph>
<glyph name="period" format="1">
  <advance width="658"/>
  <unicode hex="002E"/>
  <outline>
    <contour>
      <point x="329" y="0" type="curve" smooth="yes"/>
      <point x="233" y="0"/>
      <point x="164" y="68"/>
      <point x="164" y="163" type="curve" smooth="yes"/>
      <point x="164" y="255"/>
      <point x="233" y="322"/>
      <point x="329" y="322" type="curve" smooth="yes"/>
      <point x="425" y="322"/>
      <point x="494" y="255"/>
      <point x="494" y="160" type="curve" smooth="yes"/>
      <point x="494" y="66"/>
      <point x="425" y="0"/>
    </contour>
  </outline>
</glyph>
<glyph name="slash" format="1">
  <advance width="1127"/>
  <unicode hex="002F"/>
  <outline>
    <contour>
      <point x="176" y="0" type="line"/>
      <point x="777" y="1448" type="line"/>
      <point x="963" y="1448" type="line"/>
      <point x="358" y="0" type="line"/>
    </contour>
  </outline>
</glyph>
<glyph name="zero" format="1">
  <advance width="1282"/>
  <unicode hex="0030"/>
  <outline>
    <contour>
      <point x="644" y="158" type="curve" smooth="yes"/>
      <point x="839" y="158"/>
      <point x="942" y="401"/>
      <point x="942" y="719" type="curve" smooth="yes"/>
      <point x="942" y="1043"/>
      <point x="839" y="1271"/>
      <point x="644" y="1271" type="curve" smooth="yes"/>
      <point x="446" y="1271"/>
      <point x="350" y="1043"/>
      <point x="350" y="719" type="curve" smooth="yes"/>
      <point x="350" y="401"/>
      <point x="446" y="158"/>
    </contour>
    <contour>
      <point x="645" y="-22" type="curve" smooth="yes"/>
      <point x="298" y="-22"/>
      <point x="112" y="282"/>
      <point x="112" y="720" type="curve" smooth="yes"/>
      <point x="112" y="1164"/>
      <point x="298" y="1470"/>
      <point x="645" y="1470" type="curve" smooth="yes"/>
      <point x="994" y="1470"/>
      <point x="1180" y="1164"/>
      <point x="1180" y="720" type="curve" smooth="yes"/>
      <point x="1180" y="282"/>
      <point x="994" y="-22"/>
    </contour>
  </outline>
</glyph>
<glyph name="one" format="1">
  <advance width="999"/>
  <unicode hex="0031"/>
  <outline>
    <contour>
      <point x="471" y="0" type="line"/>
      <point x="721" y="0" type="line"/>
      <point x="721" y="1448" type="line"/>
      <point x="477" y="1448" type="line"/>
      <point x="410" y="1397"/>
      <point x="251" y="1314"/>
      <point x="135" y="1262" type="curve"/>
      <point x="195" y="1091" type="line"/>
      <point x="301" y="1135"/>
      <point x="405" y="1182"/>
      <point x="471" y="1233" type="curve"/>
    </contour>
  </outline>
</glyph>
<glyph name="two" format="1">
  <advance width="1254"/>
  <unicode hex="0032"/>
  <outline>
    <contour>
      <point x="600" y="1483" type="curve" smooth="yes"/>
      <point x="831" y="1483"/>
      <point x="1060" y="1336"/>
      <point x="1060" y="1027" type="curve" smooth="yes"/>
      <point x="1060" y="863"/>
      <point x="949" y="709"/>
      <point x="803" y="543" type="curve" smooth="yes"/>
      <point x="502" y="200" type="line"/>
      <point x="1047" y="200" type="line"/>
      <point x="1047" y="0" type="line"/>
      <point x="195" y="0" type="line"/>
      <point x="195" y="192" type="line"/>
      <point x="640" y="685" type="line" smooth="yes"/>
      <point x="757" y="815"/>
      <point x="811" y="940"/>
      <point x="811" y="1041" type="curve" smooth="yes"/>
      <point x="811" y="1178"/>
      <point x="716" y="1276"/>
      <point x="579" y="1276" type="curve" smooth="yes"/>
      <point x="477" y="1276"/>
      <point x="380" y="1215"/>
      <point x="290" y="1112" type="curve"/>
      <point x="134" y="1246" type="line"/>
      <point x="248" y="1404"/>
      <point x="435" y="1483"/>
    </contour>
  </outline>
</glyph>
<glyph name="three" format="1">
  <advance width="1244"/>
  <unicode hex="0033"/>
  <outline>
    <contour>
      <point x="608" y="-22" type="curve" smooth="yes"/>
      <point x="447" y="-22"/>
      <point x="270" y="44"/>
      <point x="171" y="179" type="curve"/>
      <point x="288" y="335" type="line"/>
      <point x="385" y="229"/>
      <point x="489" y="180"/>
      <point x="604" y="180" type="curve" smooth="yes"/>
      <point x="748" y="180"/>
      <point x="848" y="269"/>
      <point x="848" y="400" type="curve" smooth="yes"/>
      <point x="848" y="609"/>
      <point x="695" y="637"/>
      <point x="521" y="637" type="curve" smooth="yes"/>
      <point x="450" y="637" type="line"/>
      <point x="450" y="843" type="line"/>
      <point x="507" y="843" type="line" smooth="yes"/>
      <point x="626" y="843"/>
      <point x="804" y="859"/>
      <point x="804" y="1047" type="curve" smooth="yes"/>
      <point x="804" y="1194"/>
      <point x="693" y="1252"/>
      <point x="578" y="1252" type="curve" smooth="yes"/>
      <point x="479" y="1252"/>
      <point x="367" y="1210"/>
      <point x="292" y="1119" type="curve"/>
      <point x="155" y="1272" type="line"/>
      <point x="270" y="1406"/>
      <point x="448" y="1470"/>
      <point x="603" y="1470" type="curve" smooth="yes"/>
      <point x="817" y="1470"/>
      <point x="1041" y="1345"/>
      <point x="1041" y="1077" type="curve" smooth="yes"/>
      <point x="1041" y="881"/>
      <point x="908" y="785"/>
      <point x="815" y="758" type="curve"/>
      <point x="912" y="739"/>
      <point x="1084" y="648"/>
      <point x="1084" y="397" type="curve" smooth="yes"/>
      <point x="1084" y="122"/>
      <point x="865" y="-22"/>
    </contour>
  </outline>
</glyph>
<glyph name="four" format="1">
  <advance width="1254"/>
  <unicode hex="0034"/>
  <outline>
    <contour>
      <point x="982" y="868" type="line"/>
      <point x="982" y="518" type="line"/>
      <point x="1179" y="518" type="line"/>
      <point x="1179" y="327" type="line"/>
      <point x="982" y="327" type="line"/>
      <point x="982" y="0" type="line"/>
      <point x="772" y="0" type="line"/>
      <point x="772" y="327" type="line"/>
      <point x="154" y="327" type="line"/>
      <point x="154" y="504" type="line"/>
      <point x="520" y="1456" type="line"/>
      <point x="743" y="1456" type="line"/>
      <point x="415" y="518" type="line"/>
      <point x="772" y="518" type="line"/>
      <point x="772" y="868" type="line"/>
    </contour>
  </outline>
</glyph>
<glyph name="five" format="1">
  <advance width="1254"/>
  <unicode hex="0035"/>
  <outline>
    <contour>
      <point x="621" y="-24" type="curve" smooth="yes"/>
      <point x="448" y="-24"/>
      <point x="322" y="29"/>
      <point x="196" y="133" type="curve"/>
      <point x="286" y="322" type="line"/>
      <point x="377" y="240"/>
      <point x="470" y="184"/>
      <point x="606" y="184" type="curve" smooth="yes"/>
      <point x="763" y="184"/>
      <point x="863" y="313"/>
      <point x="863" y="459" type="curve" smooth="yes"/>
      <point x="863" y="639"/>
      <point x="757" y="731"/>
      <point x="644" y="733" type="curve" smooth="yes"/>
      <point x="571" y="733"/>
      <point x="506" y="717"/>
      <point x="439" y="644" type="curve"/>
      <point x="264" y="644" type="line"/>
      <point x="264" y="1456" type="line"/>
      <point x="996" y="1456" type="line"/>
      <point x="996" y="1257" type="line"/>
      <point x="486" y="1257" type="line"/>
      <point x="472" y="851" type="line"/>
      <point x="514" y="885"/>
      <point x="576" y="929"/>
      <point x="699" y="929" type="curve" smooth="yes"/>
      <point x="888" y="929"/>
      <point x="1105" y="806"/>
      <point x="1105" y="466" type="curve" smooth="yes"/>
      <point x="1105" y="138"/>
      <point x="871" y="-24"/>
    </contour>
  </outline>
</glyph>
<glyph name="six" format="1">
  <advance width="1244"/>
  <unicode hex="0036"/>
  <outline>
    <contour>
      <point x="634" y="-22" type="curve" smooth="yes"/>
      <point x="864" y="-22"/>
      <point x="1115" y="140"/>
      <point x="1115" y="468" type="curve" smooth="yes"/>
      <point x="1115.0" y="769.328115463"/>
      <point x="895.976437553" y="937.928890086"/>
      <point x="678.265105522" y="939.435079209" type="curve" smooth="yes"/>
      <point x="578.073855027" y="940.128230871"/>
      <point x="478.160516739" y="905.43306613"/>
      <point x="400" y="832" type="curve"/>
      <point x="468" y="1098"/>
      <point x="644" y="1263"/>
      <point x="925" y="1349" type="curve"/>
      <point x="849" y="1551" type="line"/>
      <point x="288" y="1384"/>
      <point x="123" y="910"/>
      <point x="123" y="537" type="curve" smooth="yes"/>
      <point x="123" y="134"/>
      <point x="388" y="-22"/>
    </contour>
    <contour>
      <point x="627" y="180" type="curve" smooth="yes"/>
      <point x="499" y="180"/>
      <point x="370" y="273"/>
      <point x="370" y="455" type="curve" smooth="yes"/>
      <point x="370" y="653"/>
      <point x="507" y="736"/>
      <point x="634" y="736" type="curve" smooth="yes"/>
      <point x="763" y="736"/>
      <point x="882" y="649"/>
      <point x="882" y="453" type="curve" smooth="yes"/>
      <point x="882" y="272"/>
      <point x="754" y="180"/>
    </contour>
  </outline>
</glyph>
<glyph name="seven" format="1">
  <advance width="1284"/>
  <unicode hex="0037"/>
  <outline>
    <contour>
      <point x="340" y="0" type="line"/>
      <point x="767" y="1214" type="line"/>
      <point x="173" y="1214" type="line"/>
      <point x="173" y="1413" type="line"/>
      <point x="1057" y="1413" type="line"/>
      <point x="1057" y="1232" type="line"/>
      <point x="619" y="0" type="line"/>
    </contour>
  </outline>
</glyph>
<glyph name="eight" format="1">
  <advance width="1244"/>
  <unicode hex="0038"/>
  <outline>
    <contour>
      <point x="622.666" y="-22" type="curve" smooth="yes"/>
      <point x="343" y="-22"/>
      <point x="142" y="113"/>
      <point x="142" y="362" type="curve" smooth="yes"/>
      <point x="142" y="577"/>
      <point x="300" y="694"/>
      <point x="438" y="747" type="curve"/>
      <point x="312" y="796"/>
      <point x="175" y="912"/>
      <point x="175" y="1098" type="curve" smooth="yes"/>
      <point x="175" y="1343"/>
      <point x="371" y="1470"/>
      <point x="622.666" y="1470" type="curve" smooth="yes"/>
      <point x="912.555" y="1470"/>
      <point x="1070.55" y="1296"/>
      <point x="1070.55" y="1098" type="curve" smooth="yes"/>
      <point x="1070.55" y="922"/>
      <point x="931" y="796"/>
      <point x="806" y="747" type="curve"/>
      <point x="945" y="694"/>
      <point x="1102" y="577"/>
      <point x="1102" y="362" type="curve" smooth="yes"/>
      <point x="1102" y="80"/>
      <point x="889.555" y="-22"/>
    </contour>
    <contour>
      <point x="627" y="178" type="curve" smooth="yes"/>
      <point x="764" y="178"/>
      <point x="852" y="247"/>
      <point x="852" y="373" type="curve" smooth="yes"/>
      <point x="852" y="513"/>
      <point x="740.027" y="611"/>
      <point x="627.18" y="635" type="curve"/>
      <point x="502.597" y="609"/>
      <point x="402" y="502"/>
      <point x="402" y="373" type="curve" smooth="yes"/>
      <point x="402" y="239"/>
      <point x="497" y="178"/>
    </contour>
    <contour>
      <point x="627.18" y="863" type="curve"/>
      <point x="740.027" y="885"/>
      <point x="828" y="972"/>
      <point x="828" y="1097" type="curve" smooth="yes"/>
      <point x="828" y="1214"/>
      <point x="740" y="1265"/>
      <point x="627" y="1265" type="curve" smooth="yes"/>
      <point x="505" y="1265"/>
      <point x="424" y="1206"/>
      <point x="424" y="1097" type="curve" smooth="yes"/>
      <point x="424" y="972"/>
      <point x="512.528" y="885"/>
    </contour>
  </outline>
</glyph>
<glyph name="nine" format="1">
  <advance width="1254"/>
  <unicode hex="0039"/>
  <outline>
    <contour>
      <point x="619" y="748" type="curve" smooth="yes"/>
      <point x="462" y="748"/>
      <point x="368" y="866"/>
      <point x="368" y="1036" type="curve" smooth="yes"/>
      <point x="368" y="1192"/>
      <point x="474" y="1287"/>
      <point x="628" y="1287" type="curve" smooth="yes"/>
      <point x="761" y="1287"/>
      <point x="840" y="1195"/>
      <point x="840" y="989" type="curve" smooth="yes"/>
      <point x="840" y="816" type="line"/>
      <point x="789" y="776"/>
      <point x="697" y="748"/>
    </contour>
    <contour>
      <point x="1058" y="0" type="line"/>
      <point x="1058" y="1019" type="line" smooth="yes"/>
      <point x="1058" y="1107"/>
      <point x="1035" y="1480"/>
      <point x="618" y="1480" type="curve" smooth="yes"/>
      <point x="376" y="1480"/>
      <point x="131" y="1336"/>
      <point x="131" y="1033" type="curve" smooth="yes"/>
      <point x="131" y="767"/>
      <point x="336" y="555"/>
      <point x="599" y="559" type="curve" smooth="yes"/>
      <point x="734" y="561"/>
      <point x="811" y="610"/>
      <point x="839" y="632" type="curve"/>
      <point x="839" y="0" type="line"/>
    </contour>
  </outline>
</glyph>
<glyph name="colon" format="1">
  <advance width="951"/>
  <unicode hex="003A"/>
  <outline>
    <contour>
      <point x="280" y="-20" type="line"/>
      <point x="280" y="227" type="line"/>
      <point x="535" y="227" type="line"/>
      <point x="535" y="-20" type="line"/>
    </contour>
    <contour>
      <point x="280" y="980" type="line"/>
      <point x="280" y="1227" type="line"/>
      <point x="535" y="1227" type="line"/>
      <point x="535" y="980" type="line"/>
    </contour>
  </outline>
</glyph>
<glyph name="semicolon" format="1">
  <advance width="951"/>
  <unicode hex="003B"/>
  <outline>
    <contour>
      <point x="176" y="-451" type="line"/>
      <point x="301" y="93" type="line"/>
      <point x="521" y="93" type="line"/>
      <point x="330" y="-451" type="line"/>
    </contour>
    <contour>
      <point x="246" y="837" type="line"/>
      <point x="301" y="1084" type="line"/>
      <point x="501" y="1084" type="line"/>
      <point x="501" y="837" type="line"/>
    </contour>
  </outline>
</glyph>
<glyph name="less" format="1">
  <advance width="2516"/>
  <unicode hex="003C"/>
  <outline>
    <contour>
      <point x="1335.27" y="84" type="line"/>
      <point x="386" y="542" type="line"/>
      <point x="386" y="629" type="line"/>
      <point x="1339.27" y="1098" type="line"/>
      <point x="1339.27" y="947" type="line"/>
      <point x="604" y="586" type="line"/>
      <point x="1335.27" y="236" type="line"/>
    </contour>
  </outline>
</glyph>
<glyph name="equal" format="1">
  <advance width="1269"/>
  <unicode hex="003D"/>
  <outline>
    <contour>
      <point x="227" y="853" type="line"/>
      <point x="1053" y="853" type="line"/>
      <point x="1053" y="996" type="line"/>
      <point x="227" y="996" type="line"/>
    </contour>
    <contour>
      <point x="228" y="450" type="line"/>
      <point x="1053" y="450" type="line"/>
      <point x="1053" y="590" type="line"/>
      <point x="228" y="590" type="line"/>
    </contour>
  </outline>
</glyph>
<glyph name="greater" format="1">
  <advance width="1413"/>
  <unicode hex="003E"/>
  <outline>
    <contour>
      <point x="292" y="102" type="line"/>
      <point x="292" y="255" type="line"/>
      <point x="1028" y="597" type="line"/>
      <point x="298" y="966" type="line"/>
      <point x="298" y="1118" type="line"/>
      <point x="1248" y="636" type="line"/>
      <point x="1248" y="547" type="line"/>
    </contour>
  </outline>
</glyph>
<glyph name="question" format="1">
  <advance width="965"/>
  <unicode hex="003F"/>
  <outline>
    <contour>
      <point x="388" y="-12" type="curve" smooth="yes"/>
      <point x="292" y="-12"/>
      <point x="223" y="54"/>
      <point x="223" y="149" type="curve" smooth="yes"/>
      <point x="223" y="241"/>
      <point x="292" y="306"/>
      <point x="388" y="306" type="curve" smooth="yes"/>
      <point x="484" y="306"/>
      <point x="553" y="241"/>
      <point x="553" y="146" type="curve" smooth="yes"/>
      <point x="553" y="52"/>
      <point x="484" y="-12"/>
    </contour>
    <contour>
      <point x="328" y="423" type="curve"/>
      <point x="442" y="423" type="line"/>
      <point x="499" y="776"/>
      <point x="869" y="781"/>
      <point x="869" y="1137" type="curve" smooth="yes"/>
      <point x="869" y="1377"/>
      <point x="685" y="1480"/>
      <point x="472" y="1480" type="curve" smooth="yes"/>
      <point x="372" y="1480"/>
      <point x="259" y="1459"/>
      <point x="156" y="1416" type="curve"/>
      <point x="187" y="1205" type="line"/>
      <point x="261" y="1233"/>
      <point x="352" y="1252"/>
      <point x="418" y="1252" type="curve" smooth="yes"/>
      <point x="512" y="1252"/>
      <point x="592" y="1212"/>
      <point x="592" y="1109" type="curve" smooth="yes"/>
      <point x="592" y="963"/>
      <point x="328" y="887"/>
    </contour>
  </outline>
</glyph>
<glyph name="at" format="1">
  <advance width="1886"/>
  <unicode hex="0040"/>
  <outline>
    <contour>
      <point x="996" y="-111" type="curve" smooth="yes"/>
      <point x="1170" y="-111"/>
      <point x="1356" y="-65"/>
      <point x="1514" y="30" type="curve"/>
      <point x="1433" y="169" type="line"/>
      <point x="1310" y="98"/>
      <point x="1162" y="62"/>
      <point x="1024" y="62" type="curve" smooth="yes"/>
      <point x="701" y="62"/>
      <point x="390" y="264"/>
      <point x="390" y="679" type="curve" smooth="yes"/>
      <point x="390" y="1093"/>
      <point x="711" y="1295"/>
      <point x="1007" y="1295" type="curve" smooth="yes"/>
      <point x="1287" y="1295"/>
      <point x="1542" y="1125"/>
      <point x="1542" y="790" type="curve" smooth="yes"/>
      <point x="1542" y="497"/>
      <point x="1433" y="384"/>
      <point x="1353" y="384" type="curve" smooth="yes"/>
      <point x="1307" y="384"/>
      <point x="1271" y="421"/>
      <point x="1271" y="481" type="curve" smooth="yes"/>
      <point x="1271" y="498"/>
      <point x="1320" y="745"/>
      <point x="1393" y="1099" type="curve"/>
      <point x="1222" y="1099" type="line"/>
      <point x="1183" y="1014" type="line"/>
      <point x="1115" y="1096"/>
      <point x="1041" y="1130"/>
      <point x="962" y="1130" type="curve" smooth="yes"/>
      <point x="763" y="1130"/>
      <point x="528" y="903"/>
      <point x="528" y="625" type="curve" smooth="yes"/>
      <point x="528" y="389"/>
      <point x="679" y="252"/>
      <point x="836" y="252" type="curve" smooth="yes"/>
      <point x="931" y="252"/>
      <point x="1029" y="308"/>
      <point x="1099" y="429" type="curve"/>
      <point x="1100" y="305"/>
      <point x="1210" y="251"/>
      <point x="1318" y="251" type="curve" smooth="yes"/>
      <point x="1564" y="251"/>
      <point x="1743" y="464"/>
      <point x="1743" y="785" type="curve" smooth="yes"/>
      <point x="1743" y="1243"/>
      <point x="1381" y="1467"/>
      <point x="1009" y="1467" type="curve" smooth="yes"/>
      <point x="597" y="1467"/>
      <point x="154" y="1237"/>
      <point x="154" y="674" type="curve" smooth="yes"/>
      <point x="154" y="167"/>
      <point x="559" y="-111"/>
    </contour>
    <contour>
      <point x="891" y="418" type="curve" smooth="yes"/>
      <point x="823" y="418"/>
      <point x="766" y="479"/>
      <point x="766" y="604" type="curve" smooth="yes"/>
      <point x="766" y="836"/>
      <point x="905" y="976"/>
      <point x="1009" y="976" type="curve" smooth="yes"/>
      <point x="1069" y="976"/>
      <point x="1117" y="928"/>
      <point x="1117" y="821" type="curve" smooth="yes"/>
      <point x="1117" y="554"/>
      <point x="991" y="418"/>
    </contour>
  </outline>
</glyph>
<glyph name="A" format="1">
  <advance width="1407"/>
  <unicode hex="0041"/>
  <outline>
    <contour>
      <point x="50" y="0" type="line"/>
      <point x="588" y="1560" type="line"/>
      <point x="828" y="1560" type="line"/>
      <point x="1357" y="0" type="line"/>
      <point x="1072" y="0" type="line"/>
      <point x="963" y="355" type="line"/>
      <point x="437" y="355" type="line"/>
      <point x="324" y="0" type="line"/>
    </contour>
    <contour>
      <point x="504" y="553" type="line"/>
      <point x="898" y="553" type="line"/>
      <point x="827" y="796" type="line"/>
      <point x="702" y="1211" type="line"/>
      <point x="577" y="796" type="line"/>
    </contour>
  </outline>
</glyph>
<glyph name="B" format="1">
  <advance width="1426.85714286"/>
  <unicode hex="0042"/>
  <outline>
    <contour>
      <point x="180" y="0" type="line"/>
      <point x="180" y="1560" type="line"/>
      <point x="659" y="1560" type="line" smooth="yes"/>
      <point x="1068" y="1560"/>
      <point x="1259" y="1450"/>
      <point x="1259" y="1187" type="curve" smooth="yes"/>
      <point x="1259" y="994"/>
      <point x="1179" y="889"/>
      <point x="1001" y="838" type="curve"/>
      <point x="1225" y="800"/>
      <point x="1324" y="683"/>
      <point x="1324" y="454" type="curve" smooth="yes"/>
      <point x="1324" y="140"/>
      <point x="1136" y="0"/>
      <point x="728" y="0" type="curve" smooth="yes"/>
    </contour>
    <contour>
      <point x="430" y="209" type="line"/>
      <point x="731" y="209" type="line" smooth="yes"/>
      <point x="970" y="209"/>
      <point x="1071" y="285"/>
      <point x="1071" y="462" type="curve" smooth="yes"/>
      <point x="1071" y="630"/>
      <point x="964" y="717"/>
      <point x="715" y="717" type="curve" smooth="yes"/>
      <point x="430" y="717" type="line"/>
    </contour>
    <contour>
      <point x="430" y="905" type="line"/>
      <point x="684" y="905" type="line" smooth="yes"/>
      <point x="914" y="905"/>
      <point x="1010" y="990"/>
      <point x="1010" y="1156" type="curve" smooth="yes"/>
      <point x="1010" y="1299"/>
      <point x="910" y="1356"/>
      <point x="670" y="1356" type="curve" smooth="yes"/>
      <point x="430" y="1356" type="line"/>
    </contour>
  </outline>
</glyph>
<glyph name="C" format="1">
  <advance width="1370"/>
  <unicode hex="0043"/>
  <outline>
    <contour>
      <point x="823" y="-22" type="curve" smooth="yes"/>
      <point x="405" y="-22"/>
      <point x="116" y="274"/>
      <point x="116" y="720" type="curve" smooth="yes"/>
      <point x="116" y="1172"/>
      <point x="417" y="1470"/>
      <point x="836" y="1470" type="curve" smooth="yes"/>
      <point x="985" y="1470"/>
      <point x="1152" y="1409"/>
      <point x="1275" y="1314" type="curve"/>
      <point x="1188" y="1122" type="line"/>
      <point x="1113" y="1183"/>
      <point x="966" y="1252"/>
      <point x="833" y="1252" type="curve" smooth="yes"/>
      <point x="543" y="1252"/>
      <point x="372" y="1032"/>
      <point x="372" y="719" type="curve" smooth="yes"/>
      <point x="372" y="405"/>
      <point x="542" y="180"/>
      <point x="847" y="180" type="curve" smooth="yes"/>
      <point x="968" y="180"/>
      <point x="1114" y="232"/>
      <point x="1213" y="311" type="curve"/>
      <point x="1291" y="125" type="line"/>
      <point x="1182" y="36"/>
      <point x="981" y="-22"/>
    </contour>
  </outline>
</glyph>
<glyph name="D" format="1">
  <advance width="1552"/>
  <unicode hex="0044"/>
  <outline>
    <contour>
      <point x="442" y="200" type="line"/>
      <point x="604" y="200" type="line" smooth="yes"/>
      <point x="1022" y="200"/>
      <point x="1170" y="372"/>
      <point x="1170" y="739" type="curve" smooth="yes"/>
      <point x="1170" y="1092"/>
      <point x="1010" y="1256"/>
      <point x="564" y="1256" type="curve" smooth="yes"/>
      <point x="442" y="1256" type="line"/>
    </contour>
    <contour>
      <point x="192" y="0" type="line"/>
      <point x="192" y="1456" type="line"/>
      <point x="531" y="1456" type="line" smooth="yes"/>
      <point x="1125" y="1456"/>
      <point x="1436" y="1240"/>
      <point x="1436" y="742" type="curve" smooth="yes"/>
      <point x="1436" y="225"/>
      <point x="1154" y="0"/>
      <point x="588" y="0" type="curve" smooth="yes"/>
    </contour>
  </outline>
</glyph>
<glyph name="E" format="1">
  <advance width="1148"/>
  <unicode hex="0045"/>
  <outline>
    <contour>
      <point x="180" y="0" type="line"/>
      <point x="180" y="1560" type="line"/>
      <point x="1038" y="1560" type="line"/>
      <point x="1038" y="1360" type="line"/>
      <point x="430" y="1360" type="line"/>
      <point x="430" y="906" type="line"/>
      <point x="996" y="906" type="line"/>
      <point x="996" y="713" type="line"/>
      <point x="430" y="713" type="line"/>
      <point x="430" y="200" type="line"/>
      <point x="1058" y="200" type="line"/>
      <point x="1058" y="0" type="line"/>
    </contour>
  </outline>
</glyph>
<glyph name="F" format="1">
  <advance width="1159"/>
  <unicode hex="0046"/>
  <outline>
    <contour>
      <point x="194" y="0" type="line"/>
      <point x="194" y="1448" type="line"/>
      <point x="1035.48" y="1448" type="line"/>
      <point x="1035.48" y="1248" type="line"/>
      <point x="443.746" y="1248" type="line"/>
      <point x="443.746" y="857" type="line"/>
      <point x="1002.48" y="857" type="line"/>
      <point x="1002.48" y="664" type="line"/>
      <point x="443.746" y="664" type="line"/>
      <point x="443.746" y="0" type="line"/>
    </contour>
  </outline>
</glyph>
<glyph name="G" format="1">
  <advance width="1484.17"/>
  <unicode hex="0047"/>
  <outline>
    <contour>
      <point x="826.027" y="-22" type="curve" smooth="yes"/>
      <point x="398.111" y="-22"/>
      <point x="106" y="256"/>
      <point x="106" y="687" type="curve" smooth="yes"/>
      <point x="106" y="1159"/>
      <point x="411.653" y="1470"/>
      <point x="847.693" y="1470" type="curve" smooth="yes"/>
      <point x="997.55" y="1470"/>
      <point x="1173.17" y="1416"/>
      <point x="1306.17" y="1334" type="curve"/>
      <point x="1224.17" y="1145" type="line"/>
      <point x="1108.17" y="1206"/>
      <point x="964.152" y="1252"/>
      <point x="856.721" y="1252" type="curve" smooth="yes"/>
      <point x="553.389" y="1252"/>
      <point x="362" y="1033"/>
      <point x="362" y="701" type="curve" smooth="yes"/>
      <point x="362" y="391"/>
      <point x="552" y="180"/>
      <point x="838" y="180" type="curve" smooth="yes"/>
      <point x="933" y="180"/>
      <point x="1023" y="198"/>
      <point x="1086" y="227" type="curve"/>
      <point x="1086" y="595" type="line"/>
      <point x="798.041" y="595" type="line"/>
      <point x="798.041" y="773" type="line"/>
      <point x="1330.17" y="773" type="line"/>
      <point x="1330.17" y="78" type="line"/>
      <point x="1198.17" y="16"/>
      <point x="994.85" y="-22"/>
    </contour>
  </outline>
</glyph>
<glyph name="H" format="1">
  <advance width="1542"/>
  <unicode hex="0048"/>
  <outline>
    <contour>
      <point x="186.5" y="0" type="line"/>
      <point x="186.5" y="1448" type="line"/>
      <point x="436.5" y="1448" type="line"/>
      <point x="436.5" y="850" type="line"/>
      <point x="1105.5" y="850" type="line"/>
      <point x="1105.5" y="1448" type="line"/>
      <point x="1355.5" y="1448" type="line"/>
      <point x="1355.5" y="0" type="line"/>
      <point x="1105.5" y="0" type="line"/>
      <point x="1105.5" y="635" type="line"/>
      <point x="436.5" y="635" type="line"/>
      <point x="436.5" y="0" type="line"/>
    </contour>
  </outline>
</glyph>
<glyph name="I" format="1">
  <advance width="802"/>
  <unicode hex="0049"/>
  <outline>
    <contour>
      <point x="700" y="0" type="line"/>
      <point x="102" y="0" type="line"/>
      <point x="102" y="182" type="line"/>
      <point x="276" y="182" type="line"/>
      <point x="276" y="1274" type="line"/>
      <point x="102" y="1274" type="line"/>
      <point x="102" y="1456" type="line"/>
      <point x="700" y="1456" type="line"/>
      <point x="700" y="1274" type="line"/>
      <point x="526" y="1274" type="line"/>
      <point x="526" y="182" type="line"/>
      <point x="700" y="182" type="line"/>
    </contour>
  </outline>
</glyph>
<glyph name="J" format="1">
  <advance width="1127"/>
  <unicode hex="004A"/>
  <outline>
    <contour>
      <point x="24" y="145" type="curve"/>
      <point x="142" y="310" type="line"/>
      <point x="223" y="217"/>
      <point x="319" y="181"/>
      <point x="402" y="184" type="curve" smooth="yes"/>
      <point x="516" y="188"/>
      <point x="605" y="268"/>
      <point x="605" y="428" type="curve" smooth="yes"/>
      <point x="605" y="1360" type="line"/>
      <point x="241" y="1360" type="line"/>
      <point x="241" y="1560" type="line"/>
      <point x="1111" y="1560" type="line"/>
      <point x="1111" y="1360" type="line"/>
      <point x="848" y="1360" type="line"/>
      <point x="848" y="447" type="line" smooth="yes"/>
      <point x="848" y="125"/>
      <point x="642" y="-24"/>
      <point x="419" y="-24" type="curve" smooth="yes"/>
      <point x="264" y="-24"/>
      <point x="133" y="21"/>
    </contour>
  </outline>
</glyph>
<glyph name="K" format="1">
  <advance width="1285"/>
  <unicode hex="004B"/>
  <outline>
    <contour>
      <point x="192" y="0" type="line"/>
      <point x="192" y="1448" type="line"/>
      <point x="442" y="1448" type="line"/>
      <point x="442" y="822" type="line"/>
      <point x="951" y="1448" type="line"/>
      <point x="1255" y="1448" type="line"/>
      <point x="670" y="773" type="line"/>
      <point x="1289" y="0" type="line"/>
      <point x="970" y="0" type="line"/>
      <point x="442" y="681" type="line"/>
      <point x="442" y="0" type="line"/>
    </contour>
  </outline>
</glyph>
<glyph name="L" format="1">
  <advance width="1084"/>
  <unicode hex="004C"/>
  <outline>
    <contour>
      <point x="194" y="0" type="line"/>
      <point x="194" y="1448" type="line"/>
      <point x="443.746" y="1448" type="line"/>
      <point x="443.746" y="200" type="line"/>
      <point x="1049.93" y="200" type="line"/>
      <point x="1049.93" y="0" type="line"/>
    </contour>
  </outline>
</glyph>
<glyph name="M" format="1">
  <advance width="1875"/>
  <unicode hex="004D"/>
  <outline>
    <contour>
      <point x="178" y="0" type="line"/>
      <point x="178" y="1560" type="line"/>
      <point x="471" y="1560" type="line"/>
      <point x="849" y="805" type="line"/>
      <point x="931" y="633" type="line"/>
      <point x="1011" y="807" type="line"/>
      <point x="1391" y="1560" type="line"/>
      <point x="1683" y="1560" type="line"/>
      <point x="1683" y="0" type="line"/>
      <point x="1433" y="0" type="line"/>
      <point x="1433" y="1189" type="line"/>
      <point x="1328" y="955" type="line"/>
      <point x="985" y="293" type="line"/>
      <point x="872" y="293" type="line"/>
      <point x="532" y="967" type="line"/>
      <point x="428" y="1206" type="line"/>
      <point x="428" y="0" type="line"/>
    </contour>
  </outline>
</glyph>
<glyph name="N" format="1">
  <advance width="1619"/>
  <unicode hex="004E"/>
  <outline>
    <contour>
      <point x="194" y="0" type="line"/>
      <point x="194" y="1448" type="line"/>
      <point x="455" y="1448" type="line"/>
      <point x="1090" y="520" type="line"/>
      <point x="1207" y="340" type="line"/>
      <point x="1207" y="1448" type="line"/>
      <point x="1427" y="1448" type="line"/>
      <point x="1427" y="0" type="line"/>
      <point x="1161.57" y="0" type="line"/>
      <point x="523" y="943" type="line"/>
      <point x="414" y="1105" type="line"/>
      <point x="414" y="0" type="line"/>
    </contour>
  </outline>
</glyph>
<glyph name="O" format="1">
  <advance width="1582"/>
  <unicode hex="004F"/>
  <outline>
    <contour>
      <point x="788" y="180" type="curve" smooth="yes"/>
      <point x="1036" y="180"/>
      <point x="1216" y="400"/>
      <point x="1215" y="724" type="curve"/>
      <point x="1215" y="1054"/>
      <point x="1036" y="1252"/>
      <point x="788" y="1252" type="curve" smooth="yes"/>
      <point x="540" y="1252"/>
      <point x="367" y="1054"/>
      <point x="367" y="724" type="curve" smooth="yes"/>
      <point x="367" y="400"/>
      <point x="540" y="180"/>
    </contour>
    <contour>
      <point x="788" y="-22" type="curve" smooth="yes"/>
      <point x="392" y="-22"/>
      <point x="111" y="276"/>
      <point x="111" y="726" type="curve" smooth="yes"/>
      <point x="111" y="1172"/>
      <point x="392" y="1470"/>
      <point x="788" y="1470" type="curve" smooth="yes"/>
      <point x="1188" y="1470"/>
      <point x="1471" y="1172"/>
      <point x="1471" y="726" type="curve" smooth="yes"/>
      <point x="1471" y="276"/>
      <point x="1188" y="-22"/>
    </contour>
  </outline>
</glyph>
<glyph name="P" format="1">
  <advance width="1265.28571429"/>
  <unicode hex="0050"/>
  <outline>
    <contour>
      <point x="180" y="0" type="line"/>
      <point x="180" y="1560" type="line"/>
      <point x="600" y="1560" type="line" smooth="yes"/>
      <point x="1013" y="1560"/>
      <point x="1201" y="1434"/>
      <point x="1201" y="1121" type="curve" smooth="yes"/>
      <point x="1201" y="793"/>
      <point x="1019" y="663"/>
      <point x="623" y="663" type="curve" smooth="yes"/>
      <point x="430" y="663" type="line"/>
      <point x="430" y="0" type="line"/>
    </contour>
    <contour>
      <point x="430" y="866" type="line"/>
      <point x="640" y="866" type="line" smooth="yes"/>
      <point x="848" y="866"/>
      <point x="945" y="933"/>
      <point x="945" y="1119" type="curve" smooth="yes"/>
      <point x="945" y="1296"/>
      <point x="841" y="1360"/>
      <point x="622" y="1360" type="curve" smooth="yes"/>
      <point x="430" y="1360" type="line"/>
    </contour>
  </outline>
</glyph>
<glyph name="Q" format="1">
  <advance width="1592"/>
  <unicode hex="0051"/>
  <outline>
    <component base="O"/>
    <contour>
      <point x="1187" y="-257" type="line"/>
      <point x="827" y="382" type="line"/>
      <point x="1005" y="477" type="line"/>
      <point x="1355" y="-168" type="line"/>
    </contour>
  </outline>
</glyph>
<glyph name="R" format="1">
  <advance width="1321"/>
  <unicode hex="0052"/>
  <outline>
    <contour>
      <point x="182" y="0" type="line"/>
      <point x="182" y="1448" type="line"/>
      <point x="640" y="1448" type="line" smooth="yes"/>
      <point x="1014" y="1448"/>
      <point x="1190" y="1335"/>
      <point x="1190" y="1069" type="curve" smooth="yes"/>
      <point x="1190" y="878"/>
      <point x="1119" y="718"/>
      <point x="898" y="658" type="curve"/>
      <point x="952" y="716" type="line"/>
      <point x="1265" y="0" type="line"/>
      <point x="998" y="0" type="line"/>
      <point x="720" y="704" type="line"/>
      <point x="799" y="638" type="line"/>
      <point x="432" y="638" type="line"/>
      <point x="432" y="0" type="line"/>
    </contour>
    <contour>
      <point x="432" y="821" type="line"/>
      <point x="648" y="821" type="line" smooth="yes"/>
      <point x="851" y="821"/>
      <point x="938" y="887"/>
      <point x="938" y="1054" type="curve" smooth="yes"/>
      <point x="938" y="1214"/>
      <point x="853" y="1248"/>
      <point x="657" y="1248" type="curve" smooth="yes"/>
      <point x="432" y="1248" type="line"/>
    </contour>
  </outline>
</glyph>
<glyph name="S" format="1">
  <advance width="1253"/>
  <unicode hex="0053"/>
  <outline>
    <contour>
      <point x="674" y="-22" type="curve" smooth="yes"/>
      <point x="507" y="-22"/>
      <point x="304" y="33"/>
      <point x="165" y="121" type="curve"/>
      <point x="224" y="315" type="line"/>
      <point x="400" y="217"/>
      <point x="545" y="180"/>
      <point x="665" y="180" type="curve" smooth="yes"/>
      <point x="826" y="180"/>
      <point x="903" y="279"/>
      <point x="903" y="385" type="curve" smooth="yes"/>
      <point x="903" y="486"/>
      <point x="879" y="552"/>
      <point x="555" y="657" type="curve"/>
      <point x="235" y="753"/>
      <point x="157" y="886"/>
      <point x="157" y="1059" type="curve" smooth="yes"/>
      <point x="157" y="1276"/>
      <point x="294" y="1470"/>
      <point x="648" y="1470" type="curve" smooth="yes"/>
      <point x="794" y="1470"/>
      <point x="955" y="1426"/>
      <point x="1087" y="1345" type="curve"/>
      <point x="1017" y="1151" type="line"/>
      <point x="891" y="1218"/>
      <point x="772" y="1252"/>
      <point x="664" y="1252" type="curve" smooth="yes"/>
      <point x="472" y="1252"/>
      <point x="420" y="1181"/>
      <point x="420" y="1084" type="curve" smooth="yes"/>
      <point x="420" y="984"/>
      <point x="441" y="948"/>
      <point x="688" y="859" type="curve"/>
      <point x="1034" y="740"/>
      <point x="1145" y="642"/>
      <point x="1139" y="391" type="curve" smooth="yes"/>
      <point x="1134" y="164"/>
      <point x="989" y="-22"/>
    </contour>
  </outline>
</glyph>
<glyph name="T" format="1">
  <advance width="1189"/>
  <unicode hex="0054"/>
  <outline>
    <contour>
      <point x="470.5" y="0" type="line"/>
      <point x="470.5" y="1248" type="line"/>
      <point x="60.5" y="1248" type="line"/>
      <point x="60.5" y="1448" type="line"/>
      <point x="1128.5" y="1448" type="line"/>
      <point x="1128.5" y="1248" type="line"/>
      <point x="718.5" y="1248" type="line"/>
      <point x="718.5" y="0" type="line"/>
    </contour>
  </outline>
</glyph>
<glyph name="U" format="1">
  <advance width="1488"/>
  <unicode hex="0055"/>
  <outline>
    <contour>
      <point x="753" y="-24" type="curve" smooth="yes"/>
      <point x="406" y="-24"/>
      <point x="159" y="208"/>
      <point x="159" y="547" type="curve" smooth="yes"/>
      <point x="159" y="1560" type="line"/>
      <point x="409" y="1560" type="line"/>
      <point x="409" y="536" type="line" smooth="yes"/>
      <point x="409" y="322"/>
      <point x="546" y="184"/>
      <point x="752" y="184" type="curve" smooth="yes"/>
      <point x="947" y="184"/>
      <point x="1080" y="319"/>
      <point x="1080" y="529" type="curve" smooth="yes"/>
      <point x="1080" y="1560" type="line"/>
      <point x="1329" y="1560" type="line"/>
      <point x="1329" y="558" type="line" smooth="yes"/>
      <point x="1329" y="213"/>
      <point x="1092" y="-24"/>
    </contour>
  </outline>
</glyph>
<glyph name="V" format="1">
  <advance width="1306"/>
  <unicode hex="0056"/>
  <outline>
    <contour>
      <point x="530.643" y="0" type="line"/>
      <point x="3" y="1448" type="line"/>
      <point x="275.158" y="1448" type="line"/>
      <point x="555.643" y="630" type="line"/>
      <point x="670.643" y="323" type="line"/>
      <point x="777.643" y="629" type="line"/>
      <point x="1023.56" y="1448" type="line"/>
      <point x="1303.84" y="1448" type="line"/>
      <point x="808.643" y="0" type="line"/>
    </contour>
  </outline>
</glyph>
<glyph name="W" format="1">
  <advance width="2177.13793103"/>
  <unicode hex="0057"/>
  <outline>
    <contour>
      <point x="514.068965517" y="0" type="line"/>
      <point x="62.0689655172" y="1560" type="line"/>
      <point x="317.068965517" y="1560" type="line"/>
      <point x="566.068965517" y="614" type="line"/>
      <point x="633.068965517" y="385" type="line"/>
      <point x="719.068965517" y="614" type="line"/>
      <point x="1014.06896551" y="1560" type="line"/>
      <point x="1176.06896551" y="1560" type="line"/>
      <point x="1470.06896551" y="610" type="line"/>
      <point x="1551.06896551" y="386" type="line"/>
      <point x="1623.06896551" y="614" type="line"/>
      <point x="1866.06896551" y="1560" type="line"/>
      <point x="2115.06896551" y="1560" type="line"/>
      <point x="1664.06896551" y="0" type="line"/>
      <point x="1443.06896551" y="0" type="line"/>
      <point x="1090.06896551" y="1155" type="line"/>
      <point x="735.068965517" y="0" type="line"/>
    </contour>
  </outline>
</glyph>
<glyph name="X" format="1">
  <advance width="1317"/>
  <unicode hex="0058"/>
  <outline>
    <contour>
      <point x="1033" y="0" type="line"/>
      <point x="658" y="561" type="line"/>
      <point x="270" y="0" type="line"/>
      <point x="-4" y="0" type="line"/>
      <point x="535" y="748" type="line"/>
      <point x="45" y="1448" type="line"/>
      <point x="323" y="1448" type="line"/>
      <point x="682" y="905" type="line"/>
      <point x="1048" y="1448" type="line"/>
      <point x="1321" y="1448" type="line"/>
      <point x="805" y="717" type="line"/>
      <point x="1304" y="0" type="line"/>
    </contour>
  </outline>
</glyph>
<glyph name="Y" format="1">
  <advance width="1215"/>
  <unicode hex="0059"/>
  <outline>
    <contour>
      <point x="490.185" y="0" type="line"/>
      <point x="490.185" y="580" type="line"/>
      <point x="-19" y="1448" type="line"/>
      <point x="252" y="1448" type="line"/>
      <point x="613" y="806" type="line"/>
      <point x="976" y="1448" type="line"/>
      <point x="1234" y="1448" type="line"/>
      <point x="740.185" y="582" type="line"/>
      <point x="740.185" y="0" type="line"/>
    </contour>
  </outline>
</glyph>
<glyph name="Z" format="1">
  <advance width="1209.81"/>
  <unicode hex="005A"/>
  <outline>
    <contour>
      <point x="90" y="0" type="line"/>
      <point x="90" y="198" type="line"/>
      <point x="829.796" y="1248" type="line"/>
      <point x="121" y="1248" type="line"/>
      <point x="121" y="1448" type="line"/>
      <point x="1121.81" y="1448" type="line"/>
      <point x="1121.81" y="1268" type="line"/>
      <point x="384.727" y="200" type="line"/>
      <point x="1113.81" y="200" type="line"/>
      <point x="1113.81" y="0" type="line"/>
    </contour>
  </outline>
</glyph>
<glyph name="bracketleft" format="1">
  <advance width="908"/>
  <unicode hex="005B"/>
  <outline>
    <contour>
      <point x="247" y="-214" type="line"/>
      <point x="247" y="1470" type="line"/>
      <point x="698" y="1470" type="line"/>
      <point x="698" y="1340" type="line"/>
      <point x="506" y="1340" type="line"/>
      <point x="506" y="-85" type="line"/>
      <point x="698" y="-85" type="line"/>
      <point x="698" y="-214" type="line"/>
    </contour>
  </outline>
</glyph>
<glyph name="backslash" format="1">
  <advance width="1229"/>
  <unicode hex="005C"/>
  <outline>
    <contour>
      <point x="792" y="0" type="line"/>
      <point x="213" y="1448" type="line"/>
      <point x="450" y="1448" type="line"/>
      <point x="1027" y="0" type="line"/>
    </contour>
  </outline>
</glyph>
<glyph name="bracketright" format="1">
  <advance width="1105"/>
  <unicode hex="005D"/>
  <outline>
    <contour>
      <point x="166" y="-232" type="line"/>
      <point x="166" y="-103" type="line"/>
      <point x="359" y="-103" type="line"/>
      <point x="359" y="1340" type="line"/>
      <point x="167" y="1340" type="line"/>
      <point x="167" y="1470" type="line"/>
      <point x="617" y="1470" type="line"/>
      <point x="617" y="-232" type="line"/>
    </contour>
  </outline>
</glyph>
<glyph name="asciicircum" format="1">
  <advance width="1199"/>
  <unicode hex="005E"/>
  <outline>
    <contour>
      <point x="95" y="570" type="line"/>
      <point x="551.324" y="1448" type="line"/>
      <point x="642.504" y="1448" type="line"/>
      <point x="1105.15" y="570" type="line"/>
      <point x="901.147" y="570" type="line"/>
      <point x="594.657" y="1176" type="line"/>
      <point x="301" y="570" type="line"/>
    </contour>
  </outline>
</glyph>
<glyph name="underscore" format="1">
  <advance width="937"/>
  <unicode hex="005F"/>
  <outline>
    <contour>
      <point x="0" y="-481" type="line"/>
      <point x="0" y="-353" type="line"/>
      <point x="949" y="-353" type="line"/>
      <point x="949" y="-481" type="line"/>
    </contour>
  </outline>
</glyph>
<glyph name="grave" format="1">
  <advance width="1044"/>
  <unicode hex="0060"/>
  <outline>
    <contour>
      <point x="226" y="2064" type="line"/>
      <point x="-104" y="2382" type="line"/>
      <point x="169" y="2382" type="line"/>
      <point x="415" y="2064" type="line"/>
    </contour>
  </outline>
</glyph>
<glyph name="a" format="1">
  <advance width="1210.0"/>
  <unicode hex="0061"/>
  <outline>
    <contour>
      <point x="521.0" y="-22" type="curve" smooth="yes"/>
      <point x="284.0" y="-22"/>
      <point x="107.0" y="170"/>
      <point x="107.0" y="431" type="curve" smooth="yes"/>
      <point x="107.0" y="793"/>
      <point x="340.0" y="1038"/>
      <point x="671.0" y="1048" type="curve" smooth="yes"/>
      <point x="827.0" y="1053"/>
      <point x="963.0" y="994"/>
      <point x="1007.0" y="976" type="curve"/>
      <point x="1007.0" y="363" type="line" smooth="yes"/>
      <point x="1007.0" y="253"/>
      <point x="1013.0" y="176"/>
      <point x="1166.0" y="176" type="curve"/>
      <point x="1134.0" y="-16" type="line"/>
      <point x="987.0" y="-16"/>
      <point x="861.0" y="-7"/>
      <point x="807.0" y="151" type="curve"/>
      <point x="755.0" y="46"/>
      <point x="643.0" y="-22"/>
    </contour>
    <contour>
      <point x="538.0" y="164" type="curve" smooth="yes"/>
      <point x="680.0" y="164"/>
      <point x="765.0" y="286"/>
      <point x="765.0" y="429" type="curve" smooth="yes"/>
      <point x="765.0" y="849" type="line"/>
      <point x="765.0" y="849"/>
      <point x="709.0" y="867"/>
      <point x="634.0" y="861" type="curve" smooth="yes"/>
      <point x="472.0" y="848"/>
      <point x="351.0" y="675"/>
      <point x="351.0" y="420" type="curve" smooth="yes"/>
      <point x="351.0" y="268"/>
      <point x="431.0" y="164"/>
    </contour>
  </outline>
</glyph>
<glyph name="b" format="1">
  <advance width="1207"/>
  <unicode hex="0062"/>
  <outline>
    <contour>
      <point x="573" y="-24" type="curve" smooth="yes"/>
      <point x="828" y="-24"/>
      <point x="1113" y="155"/>
      <point x="1113" y="545" type="curve" smooth="yes"/>
      <point x="1113" y="861"/>
      <point x="911" y="1014"/>
      <point x="709" y="1014" type="curve" smooth="yes"/>
      <point x="585" y="1014"/>
      <point x="487" y="967"/>
      <point x="412" y="867" type="curve"/>
      <point x="412" y="1470" type="line"/>
      <point x="170" y="1470" type="line"/>
      <point x="170" y="55" type="line"/>
      <point x="309" y="3"/>
      <point x="442" y="-24"/>
    </contour>
    <contour>
      <point x="564" y="171" type="curve" smooth="yes"/>
      <point x="510" y="171"/>
      <point x="460" y="180"/>
      <point x="412" y="196" type="curve"/>
      <point x="412" y="473" type="line" smooth="yes"/>
      <point x="412" y="702"/>
      <point x="534" y="820"/>
      <point x="667" y="820" type="curve" smooth="yes"/>
      <point x="784" y="820"/>
      <point x="865" y="708"/>
      <point x="865" y="541" type="curve" smooth="yes"/>
      <point x="865" y="261"/>
      <point x="684" y="171"/>
    </contour>
  </outline>
</glyph>
<glyph name="c" format="1">
  <advance width="1013"/>
  <unicode hex="0063"/>
  <outline>
    <contour>
      <point x="597" y="-22" type="curve" smooth="yes"/>
      <point x="707" y="-22"/>
      <point x="837" y="17"/>
      <point x="949" y="104" type="curve"/>
      <point x="871" y="290" type="line"/>
      <point x="801" y="229"/>
      <point x="715" y="174"/>
      <point x="613" y="174" type="curve" smooth="yes"/>
      <point x="443" y="174"/>
      <point x="342" y="309"/>
      <point x="342" y="500" type="curve" smooth="yes"/>
      <point x="342" y="677"/>
      <point x="447" y="817"/>
      <point x="609" y="817" type="curve" smooth="yes"/>
      <point x="681" y="817"/>
      <point x="759" y="790"/>
      <point x="848" y="726" type="curve"/>
      <point x="919" y="906" type="line"/>
      <point x="816" y="982"/>
      <point x="708" y="1016"/>
      <point x="600" y="1016" type="curve" smooth="yes"/>
      <point x="333" y="1016"/>
      <point x="94" y="816"/>
      <point x="94" y="499" type="curve" smooth="yes"/>
      <point x="94" y="194"/>
      <point x="287" y="-22"/>
    </contour>
  </outline>
</glyph>
<glyph name="d" format="1">
  <advance width="1222"/>
  <unicode hex="0064"/>
  <outline>
    <contour>
      <point x="344" y="446" type="curve" smooth="yes"/>
      <point x="344" y="726"/>
      <point x="511.916" y="820"/>
      <point x="665.388" y="820" type="curve" smooth="yes"/>
      <point x="714.138" y="820"/>
      <point x="762.32" y="811"/>
      <point x="805.538" y="798" type="curve"/>
      <point x="806" y="488" type="line" smooth="yes"/>
      <point x="806" y="259"/>
      <point x="673.513" y="174"/>
      <point x="551.638" y="174" type="curve" smooth="yes"/>
      <point x="445.111" y="174"/>
      <point x="344" y="264"/>
    </contour>
    <contour>
      <point x="847" y="160" type="curve"/>
      <point x="865" y="108"/>
      <point x="926" y="-8"/>
      <point x="1137" y="-8" type="curve"/>
      <point x="1216" y="198" type="line"/>
      <point x="1130" y="198"/>
      <point x="1048" y="241"/>
      <point x="1048" y="389" type="curve" smooth="yes"/>
      <point x="1048" y="1470" type="line"/>
      <point x="806" y="1470" type="line"/>
      <point x="806" y="990" type="line"/>
      <point x="748" y="1007"/>
      <point x="691.569" y="1016"/>
      <point x="634.694" y="1016" type="curve" smooth="yes"/>
      <point x="380.111" y="1016"/>
      <point x="96" y="831"/>
      <point x="96" y="440" type="curve" smooth="yes"/>
      <point x="96" y="115"/>
      <point x="320" y="-22"/>
      <point x="514.625" y="-22" type="curve" smooth="yes"/>
      <point x="641.916" y="-22"/>
      <point x="779" y="51"/>
    </contour>
  </outline>
</glyph>
<glyph name="e" format="1">
  <advance width="1067"/>
  <unicode hex="0065"/>
  <outline>
    <contour>
      <point x="586.972" y="-22" type="curve" smooth="yes"/>
      <point x="713.381" y="-22"/>
      <point x="870" y="17"/>
      <point x="981" y="114" type="curve"/>
      <point x="893" y="282" type="line"/>
      <point x="783" y="191"/>
      <point x="681.763" y="173"/>
      <point x="598.708" y="173" type="curve" smooth="yes"/>
      <point x="492.18" y="173"/>
      <point x="402" y="250"/>
      <point x="374" y="333" type="curve"/>
      <point x="800" y="399"/>
      <point x="951.721" y="530"/>
      <point x="951.721" y="714" type="curve" smooth="yes"/>
      <point x="951.721" y="861"/>
      <point x="818" y="1016"/>
      <point x="593" y="1016" type="curve" smooth="yes"/>
      <point x="310" y="1016"/>
      <point x="96" y="790"/>
      <point x="96" y="488" type="curve" smooth="yes"/>
      <point x="96" y="147"/>
      <point x="330" y="-22"/>
    </contour>
    <contour>
      <point x="336" y="497" type="curve"/>
      <point x="336" y="512" type="line" smooth="yes"/>
      <point x="336" y="664"/>
      <point x="446.139" y="835"/>
      <point x="598.708" y="835" type="curve" smooth="yes"/>
      <point x="676.347" y="835"/>
      <point x="723.946" y="787"/>
      <point x="723.946" y="722" type="curve" smooth="yes"/>
      <point x="723.946" y="608"/>
      <point x="628" y="561"/>
    </contour>
  </outline>
</glyph>
<glyph name="f" format="1">
  <advance width="805"/>
  <unicode hex="0066"/>
  <outline>
    <contour>
      <point x="503" y="0" type="line"/>
      <point x="261" y="0" type="line"/>
      <point x="261" y="862" type="line"/>
      <point x="65" y="862" type="line"/>
      <point x="65" y="1026" type="line"/>
      <point x="261" y="1026" type="line"/>
      <point x="261" y="1125" type="line" smooth="yes"/>
      <point x="261" y="1415"/>
      <point x="407" y="1509"/>
      <point x="720" y="1509" type="curve" smooth="yes"/>
      <point x="825" y="1509" type="line"/>
      <point x="825" y="1321" type="line"/>
      <point x="738" y="1321" type="line" smooth="yes"/>
      <point x="529" y="1321"/>
      <point x="503" y="1252"/>
      <point x="503" y="1090" type="curve" smooth="yes"/>
      <point x="503" y="1026" type="line"/>
      <point x="805" y="1026" type="line"/>
      <point x="805" y="862" type="line"/>
      <point x="503" y="862" type="line"/>
    </contour>
  </outline>
</glyph>
<glyph name="g" format="1">
  <advance width="1216"/>
  <unicode hex="0067"/>
  <outline>
    <contour>
      <point x="551" y="-574" type="curve" smooth="yes"/>
      <point x="440" y="-574"/>
      <point x="293" y="-544"/>
      <point x="175" y="-481" type="curve"/>
      <point x="216" y="-279" type="line"/>
      <point x="310" y="-339"/>
      <point x="422" y="-379"/>
      <point x="528" y="-379" type="curve" smooth="yes"/>
      <point x="668" y="-379"/>
      <point x="806" y="-303"/>
      <point x="806" y="-62" type="curve" smooth="yes"/>
      <point x="806" y="129" type="line"/>
      <point x="738" y="36"/>
      <point x="628" y="0"/>
      <point x="532" y="0" type="curve" smooth="yes"/>
      <point x="288" y="0"/>
      <point x="106" y="199"/>
      <point x="106" y="460" type="curve" smooth="yes"/>
      <point x="106" y="806"/>
      <point x="325" y="1048"/>
      <point x="658" y="1048" type="curve" smooth="yes"/>
      <point x="785" y="1048"/>
      <point x="952" y="998"/>
      <point x="1048" y="942" type="curve"/>
      <point x="1048" y="-16" type="line" smooth="yes"/>
      <point x="1048" y="-372"/>
      <point x="824" y="-574"/>
    </contour>
    <contour>
      <point x="561" y="191" type="curve" smooth="yes"/>
      <point x="709" y="191"/>
      <point x="806" y="352"/>
      <point x="806" y="545" type="curve" smooth="yes"/>
      <point x="806" y="837" type="line"/>
      <point x="770" y="851"/>
      <point x="712" y="862"/>
      <point x="659" y="862" type="curve" smooth="yes"/>
      <point x="490" y="862"/>
      <point x="354" y="725"/>
      <point x="354" y="470" type="curve" smooth="yes"/>
      <point x="354" y="318"/>
      <point x="450" y="191"/>
    </contour>
  </outline>
</glyph>
<glyph name="h" format="1">
  <advance width="1252"/>
  <unicode hex="0068"/>
  <outline>
    <contour>
      <point x="1199" y="-16" type="line"/>
      <point x="1171" y="-18"/>
      <point x="1145" y="-19"/>
      <point x="1120" y="-19" type="curve" smooth="yes"/>
      <point x="877" y="-19"/>
      <point x="811" y="87"/>
      <point x="811" y="278" type="curve" smooth="yes"/>
      <point x="811" y="606" type="line" smooth="yes"/>
      <point x="811" y="759"/>
      <point x="763" y="858"/>
      <point x="635" y="858" type="curve" smooth="yes"/>
      <point x="473" y="858"/>
      <point x="382" y="717"/>
      <point x="382" y="503" type="curve" smooth="yes"/>
      <point x="382" y="0" type="line"/>
      <point x="140" y="0" type="line"/>
      <point x="140" y="1560" type="line"/>
      <point x="382" y="1560" type="line"/>
      <point x="382" y="925" type="line"/>
      <point x="468" y="1027"/>
      <point x="605" y="1048"/>
      <point x="696" y="1048" type="curve" smooth="yes"/>
      <point x="923" y="1048"/>
      <point x="1053" y="925"/>
      <point x="1053" y="658" type="curve" smooth="yes"/>
      <point x="1053" y="324" type="line" smooth="yes"/>
      <point x="1053" y="212"/>
      <point x="1076" y="175"/>
      <point x="1176" y="175" type="curve" smooth="yes"/>
      <point x="1190" y="175"/>
      <point x="1206" y="176"/>
      <point x="1223" y="177" type="curve"/>
    </contour>
  </outline>
</glyph>
<glyph name="i" format="1">
  <advance width="658.0"/>
  <unicode hex="0069"/>
  <outline>
    <contour>
      <point x="617.0" y="0.0" type="line"/>
      <point x="269.0" y="-23.0"/>
      <point x="155.0" y="82.0"/>
      <point x="155.0" y="435.0" type="curve" smooth="yes"/>
      <point x="155.0" y="1026.0" type="line"/>
      <point x="397.0" y="1026.0" type="line"/>
      <point x="397.0" y="439.0" type="line" smooth="yes"/>
      <point x="397.0" y="251.0"/>
      <point x="406.0" y="191.0"/>
      <point x="637.0" y="196.0" type="curve"/>
    </contour>
    <contour>
      <point x="281" y="1188" type="curve" smooth="yes"/>
      <point x="183" y="1188"/>
      <point x="120" y="1242"/>
      <point x="120" y="1334" type="curve" smooth="yes"/>
      <point x="120" y="1426"/>
      <point x="183" y="1480"/>
      <point x="283" y="1480" type="curve" smooth="yes"/>
      <point x="380" y="1480"/>
      <point x="444" y="1424"/>
      <point x="444" y="1333" type="curve" smooth="yes"/>
      <point x="444" y="1242"/>
      <point x="380" y="1188"/>
    </contour>
  </outline>
</glyph>
<glyph name="j" format="1">
  <advance width="651"/>
  <unicode hex="006A"/>
  <outline>
    <contour>
      <point x="102.0" y="-499.0" type="curve" smooth="yes"/>
      <point x="408.0" y="-499.0"/>
      <point x="472.0" y="-325.0"/>
      <point x="472.0" y="-93.0" type="curve" smooth="yes"/>
      <point x="472.0" y="996.0" type="line"/>
      <point x="230.0" y="996.0" type="line"/>
      <point x="230.0" y="-90.0" type="line" smooth="yes"/>
      <point x="230.0" y="-280.0"/>
      <point x="178.0" y="-323.0"/>
      <point x="80.0" y="-323.0" type="curve" smooth="yes"/>
      <point x="12.0" y="-323.0"/>
      <point x="-53.0" y="-305.0"/>
      <point x="-53.0" y="-305.0" type="curve"/>
      <point x="-74.0" y="-475.0" type="line"/>
      <point x="-74.0" y="-475.0"/>
      <point x="-1.0" y="-499.0"/>
    </contour>
    <contour>
      <point x="337" y="1169" type="curve" smooth="yes"/>
      <point x="437" y="1169"/>
      <point x="507" y="1233"/>
      <point x="507" y="1323" type="curve" smooth="yes"/>
      <point x="507" y="1416"/>
      <point x="437" y="1481"/>
      <point x="339" y="1481" type="curve" smooth="yes"/>
      <point x="240" y="1481"/>
      <point x="170" y="1416"/>
      <point x="170" y="1324" type="curve" smooth="yes"/>
      <point x="170" y="1234"/>
      <point x="240" y="1169"/>
    </contour>
  </outline>
</glyph>
<glyph name="k" format="1">
  <advance width="1118.17948718"/>
  <unicode hex="006B"/>
  <outline>
    <contour>
      <point x="1091" y="0" type="line"/>
      <point x="817" y="0" type="line"/>
      <point x="315" y="536" type="line"/>
      <point x="795" y="1026" type="line"/>
      <point x="1079" y="1026" type="line"/>
      <point x="602" y="536" type="line"/>
    </contour>
    <contour>
      <point x="366" y="0" type="line"/>
      <point x="124" y="0" type="line"/>
      <point x="124" y="1560" type="line"/>
      <point x="366" y="1560" type="line"/>
    </contour>
  </outline>
</glyph>
<glyph name="l" format="1">
  <advance width="693"/>
  <unicode hex="006C"/>
  <outline>
    <contour>
      <point x="652" y="-6" type="line"/>
      <point x="294" y="-29"/>
      <point x="142" y="66"/>
      <point x="142" y="419" type="curve" smooth="yes"/>
      <point x="142.0" y="1560.0" type="line"/>
      <point x="384.0" y="1560.0" type="line"/>
      <point x="384" y="433" type="line" smooth="yes"/>
      <point x="384" y="245"/>
      <point x="431" y="185"/>
      <point x="672" y="190" type="curve"/>
    </contour>
  </outline>
</glyph>
<glyph name="m" format="1">
  <advance width="1871"/>
  <unicode hex="006D"/>
  <outline>
    <contour>
      <point x="1817" y="-16" type="line"/>
      <point x="1851" y="176" type="line"/>
      <point x="1826" y="176" type="line" smooth="yes"/>
      <point x="1712" y="176"/>
      <point x="1680.44" y="237"/>
      <point x="1680.44" y="357" type="curve" smooth="yes"/>
      <point x="1680.44" y="572" type="line" smooth="yes"/>
      <point x="1680.44" y="839"/>
      <point x="1537.44" y="1016"/>
      <point x="1301.67" y="1016" type="curve" smooth="yes"/>
      <point x="1207.7" y="1016"/>
      <point x="1063.08" y="972"/>
      <point x="981.05" y="826" type="curve"/>
      <point x="933.044" y="928"/>
      <point x="835.044" y="1016"/>
      <point x="688.958" y="1016" type="curve" smooth="yes"/>
      <point x="565.277" y="1016"/>
      <point x="429.861" y="940"/>
      <point x="369" y="824" type="curve"/>
      <point x="356" y="873"/>
      <point x="307" y="957"/>
      <point x="269" y="985" type="curve"/>
      <point x="42" y="896" type="line"/>
      <point x="137" y="817"/>
      <point x="168" y="701"/>
      <point x="168" y="600" type="curve" smooth="yes"/>
      <point x="168" y="0" type="line"/>
      <point x="410" y="0" type="line"/>
      <point x="410" y="534" type="line" smooth="yes"/>
      <point x="410" y="690"/>
      <point x="493.958" y="804"/>
      <point x="617.638" y="804" type="curve" smooth="yes"/>
      <point x="725.972" y="804"/>
      <point x="807" y="722"/>
      <point x="807" y="549" type="curve" smooth="yes"/>
      <point x="807" y="0" type="line"/>
      <point x="1049" y="0" type="line"/>
      <point x="1049" y="557" type="line" smooth="yes"/>
      <point x="1049" y="705"/>
      <point x="1140.46" y="804"/>
      <point x="1246.4" y="804" type="curve" smooth="yes"/>
      <point x="1376.7" y="804"/>
      <point x="1438" y="702"/>
      <point x="1438" y="549" type="curve" smooth="yes"/>
      <point x="1438" y="339" type="line" smooth="yes"/>
      <point x="1438" y="117"/>
      <point x="1521" y="-16"/>
      <point x="1787" y="-16" type="curve" smooth="yes"/>
    </contour>
  </outline>
</glyph>
<glyph name="n" format="1">
  <advance width="1307"/>
  <unicode hex="006E"/>
  <outline>
    <contour>
      <point x="1261" y="176" type="line"/>
      <point x="1227" y="-16" type="line"/>
      <point x="1192" y="-16" type="line" smooth="yes"/>
      <point x="931" y="-16"/>
      <point x="858" y="121"/>
      <point x="858" y="368" type="curve" smooth="yes"/>
      <point x="858" y="604" type="line" smooth="yes"/>
      <point x="858" y="757"/>
      <point x="815" y="862"/>
      <point x="681" y="862" type="curve" smooth="yes"/>
      <point x="568" y="862"/>
      <point x="447" y="767"/>
      <point x="447" y="592" type="curve" smooth="yes"/>
      <point x="447" y="0" type="line"/>
      <point x="205" y="0" type="line"/>
      <point x="205" y="643" type="line" smooth="yes"/>
      <point x="205" y="764"/>
      <point x="163" y="860"/>
      <point x="76" y="937" type="curve"/>
      <point x="302" y="1026" type="line"/>
      <point x="350" y="989"/>
      <point x="394" y="919"/>
      <point x="406" y="873" type="curve"/>
      <point x="455" y="967"/>
      <point x="583" y="1048"/>
      <point x="740" y="1048" type="curve" smooth="yes"/>
      <point x="969" y="1048"/>
      <point x="1100" y="875"/>
      <point x="1100" y="608" type="curve" smooth="yes"/>
      <point x="1100" y="345" type="line" smooth="yes"/>
      <point x="1100" y="236"/>
      <point x="1123" y="176"/>
      <point x="1244" y="176" type="curve" smooth="yes"/>
    </contour>
  </outline>
</glyph>
<glyph name="o" format="1">
  <advance width="1200"/>
  <unicode hex="006F"/>
  <outline>
    <contour>
      <point x="600" y="174" type="curve" smooth="yes"/>
      <point x="760" y="174"/>
      <point x="853" y="303"/>
      <point x="853" y="496" type="curve" smooth="yes"/>
      <point x="853" y="689"/>
      <point x="759" y="820"/>
      <point x="598" y="820" type="curve" smooth="yes"/>
      <point x="437" y="820"/>
      <point x="347" y="689"/>
      <point x="347" y="496" type="curve" smooth="yes"/>
      <point x="347" y="303"/>
      <point x="438" y="174"/>
    </contour>
    <contour>
      <point x="598" y="-22" type="curve" smooth="yes"/>
      <point x="307" y="-22"/>
      <point x="99" y="189"/>
      <point x="99" y="496" type="curve" smooth="yes"/>
      <point x="99" y="804"/>
      <point x="306" y="1016"/>
      <point x="597" y="1016" type="curve" smooth="yes"/>
      <point x="892" y="1016"/>
      <point x="1101" y="806"/>
      <point x="1101" y="497" type="curve" smooth="yes"/>
      <point x="1101" y="190"/>
      <point x="894" y="-22"/>
    </contour>
  </outline>
</glyph>
<glyph name="p" format="1">
  <advance width="1240"/>
  <unicode hex="0070"/>
  <outline>
    <contour>
      <point x="183" y="-574" type="line"/>
      <point x="183" y="600" type="line" smooth="yes"/>
      <point x="183" y="761"/>
      <point x="85" y="798"/>
      <point x="34" y="825" type="curve"/>
      <point x="126" y="1026" type="line"/>
      <point x="235" y="1017"/>
      <point x="343" y="909"/>
      <point x="366" y="819" type="curve"/>
      <point x="426" y="962"/>
      <point x="553" y="1048"/>
      <point x="734" y="1048" type="curve" smooth="yes"/>
      <point x="908" y="1048"/>
      <point x="1128" y="923"/>
      <point x="1128" y="574" type="curve" smooth="yes"/>
      <point x="1128" y="221"/>
      <point x="920" y="-22"/>
      <point x="599" y="-22" type="curve" smooth="yes"/>
      <point x="531" y="-22"/>
      <point x="492" y="-14"/>
      <point x="425" y="4" type="curve"/>
      <point x="425" y="-574" type="line"/>
    </contour>
    <contour>
      <point x="425" y="188" type="line"/>
      <point x="472" y="173"/>
      <point x="509" y="164"/>
      <point x="563" y="164" type="curve" smooth="yes"/>
      <point x="770" y="164"/>
      <point x="880" y="322"/>
      <point x="880" y="572" type="curve" smooth="yes"/>
      <point x="880" y="731"/>
      <point x="803" y="862"/>
      <point x="673" y="862" type="curve" smooth="yes"/>
      <point x="542" y="862"/>
      <point x="425" y="729"/>
      <point x="425" y="490" type="curve" smooth="yes"/>
    </contour>
  </outline>
</glyph>
<glyph name="q" format="1">
  <advance width="1254"/>
  <unicode hex="0071"/>
  <outline>
    <contour>
      <point x="1077" y="-552" type="line"/>
      <point x="901" y="-619"/>
      <point x="806" y="-529"/>
      <point x="806" y="-391" type="curve" smooth="yes"/>
      <point x="806" y="107" type="line"/>
      <point x="738" y="14"/>
      <point x="616" y="-22"/>
      <point x="520" y="-22" type="curve" smooth="yes"/>
      <point x="276" y="-22"/>
      <point x="94" y="183"/>
      <point x="94" y="444" type="curve" smooth="yes"/>
      <point x="94" y="790"/>
      <point x="313" y="1048"/>
      <point x="646" y="1048" type="curve" smooth="yes"/>
      <point x="773" y="1048"/>
      <point x="952" y="998"/>
      <point x="1048" y="942" type="curve"/>
      <point x="1048" y="-357" type="line"/>
      <point x="1310" y="-226" type="line"/>
      <point x="1359" y="-405" type="line"/>
    </contour>
    <contour>
      <point x="549" y="164" type="curve" smooth="yes"/>
      <point x="697" y="164"/>
      <point x="806" y="336"/>
      <point x="806" y="529" type="curve" smooth="yes"/>
      <point x="806" y="838" type="line"/>
      <point x="770" y="852"/>
      <point x="700" y="862"/>
      <point x="647" y="862" type="curve" smooth="yes"/>
      <point x="478" y="862"/>
      <point x="342" y="709"/>
      <point x="342" y="454" type="curve" smooth="yes"/>
      <point x="342" y="302"/>
      <point x="438" y="164"/>
    </contour>
  </outline>
</glyph>
<glyph name="r" format="1">
  <advance width="845.685"/>
  <unicode hex="0072"/>
  <outline>
    <contour>
      <point x="173" y="0" type="line"/>
      <point x="173" y="611" type="line" smooth="yes"/>
      <point x="173" y="760"/>
      <point x="93" y="857"/>
      <point x="44" y="896" type="curve"/>
      <point x="270" y="985" type="line"/>
      <point x="309" y="947"/>
      <point x="345" y="911"/>
      <point x="374" y="823" type="curve"/>
      <point x="433.958" y="952"/>
      <point x="552.685" y="1015"/>
      <point x="660.685" y="1015" type="curve" smooth="yes"/>
      <point x="740.685" y="1015"/>
      <point x="758.685" y="1002"/>
      <point x="793.685" y="993" type="curve"/>
      <point x="775.685" y="774" type="line"/>
      <point x="731.685" y="785"/>
      <point x="694.685" y="790"/>
      <point x="659.685" y="790" type="curve" smooth="yes"/>
      <point x="468.264" y="790"/>
      <point x="415" y="607"/>
      <point x="415" y="525" type="curve" smooth="yes"/>
      <point x="415" y="0" type="line"/>
    </contour>
  </outline>
</glyph>
<glyph name="s" format="1">
  <advance width="953"/>
  <unicode hex="0073"/>
  <outline>
    <contour>
      <point x="500" y="-22" type="curve" smooth="yes"/>
      <point x="348" y="-22"/>
      <point x="207" y="36"/>
      <point x="146" y="69" type="curve"/>
      <point x="198" y="246" type="line"/>
      <point x="457" y="133"/>
      <point x="619" y="139"/>
      <point x="630" y="275" type="curve" smooth="yes"/>
      <point x="645" y="469"/>
      <point x="118" y="407"/>
      <point x="140" y="754" type="curve" smooth="yes"/>
      <point x="148" y="882"/>
      <point x="230" y="1048"/>
      <point x="487" y="1048" type="curve" smooth="yes"/>
      <point x="668" y="1048"/>
      <point x="786" y="988"/>
      <point x="813" y="973" type="curve"/>
      <point x="757" y="810" type="line"/>
      <point x="548" y="897"/>
      <point x="367" y="888"/>
      <point x="367" y="765" type="curve" smooth="yes"/>
      <point x="367" y="593"/>
      <point x="853" y="654"/>
      <point x="854" y="299" type="curve" smooth="yes"/>
      <point x="855" y="102"/>
      <point x="734" y="-22"/>
    </contour>
  </outline>
</glyph>
<glyph name="t" format="1">
  <advance width="868"/>
  <unicode hex="0074"/>
  <outline>
    <contour>
      <point x="580" y="-16" type="curve" smooth="yes"/>
      <point x="662" y="-16"/>
      <point x="752" y="0"/>
      <point x="846" y="31" type="curve"/>
      <point x="821" y="221" type="line"/>
      <point x="747" y="199"/>
      <point x="685" y="187"/>
      <point x="635" y="187" type="curve" smooth="yes"/>
      <point x="526" y="187"/>
      <point x="467" y="241"/>
      <point x="467" y="356" type="curve" smooth="yes"/>
      <point x="467" y="820" type="line"/>
      <point x="770" y="820" type="line"/>
      <point x="770" y="996" type="line"/>
      <point x="466" y="996" type="line"/>
      <point x="466" y="1338" type="line"/>
      <point x="225" y="1309" type="line"/>
      <point x="225" y="996" type="line"/>
      <point x="38" y="996" type="line"/>
      <point x="38" y="820" type="line"/>
      <point x="225" y="820" type="line"/>
      <point x="225" y="304" type="line" smooth="yes"/>
      <point x="225" y="84"/>
      <point x="377" y="-16"/>
    </contour>
  </outline>
</glyph>
<glyph name="u" format="1">
  <advance width="1253"/>
  <unicode hex="0075"/>
  <outline>
    <contour>
      <point x="525.653" y="-22.0" type="curve" smooth="yes"/>
      <point x="684.0" y="-22.0"/>
      <point x="798.0" y="59.0"/>
      <point x="846.0" y="160.0" type="curve"/>
      <point x="880.0" y="62.0"/>
      <point x="974.0" y="-8.0"/>
      <point x="1136.0" y="-8.0" type="curve"/>
      <point x="1215.0" y="198.0" type="line"/>
      <point x="1133.0" y="198.0"/>
      <point x="1047.0" y="244.0"/>
      <point x="1047.0" y="360.0" type="curve" smooth="yes"/>
      <point x="1047.0" y="996.0" type="line"/>
      <point x="805.0" y="996.0" type="line"/>
      <point x="805.0" y="446.0" type="line" smooth="yes"/>
      <point x="805.0" y="264.0"/>
      <point x="703.0" y="165.0"/>
      <point x="566.0" y="174.0" type="curve" smooth="yes"/>
      <point x="458.0" y="181.0"/>
      <point x="408.0" y="255.0"/>
      <point x="411.0" y="381.0" type="curve"/>
      <point x="411.0" y="577.0" type="line"/>
      <point x="418.222" y="884.0"/>
      <point x="374.0" y="996.0"/>
      <point x="374.0" y="996.0" type="curve"/>
      <point x="126.0" y="969.0" type="line"/>
      <point x="126.0" y="969.0"/>
      <point x="168.0" y="844.0"/>
      <point x="163.0" y="564.0" type="curve"/>
      <point x="163.0" y="354.0" type="line"/>
      <point x="159.0" y="129.0"/>
      <point x="302.0" y="-22.0"/>
    </contour>
  </outline>
</glyph>
<glyph name="v" format="1">
  <advance width="1026.61538462"/>
  <unicode hex="0076"/>
  <outline>
    <contour>
      <point x="430.307692308" y="0" type="line"/>
      <point x="12.3076923077" y="1026" type="line"/>
      <point x="265.307692308" y="1026" type="line"/>
      <point x="467.307692308" y="484" type="line"/>
      <point x="528.307692308" y="325" type="line"/>
      <point x="582.307692308" y="484" type="line"/>
      <point x="765.307692308" y="1026" type="line"/>
      <point x="1014.30769231" y="1026" type="line"/>
      <point x="632.307692308" y="0" type="line"/>
    </contour>
  </outline>
</glyph>
<glyph name="w" format="1">
  <advance width="1639"/>
  <unicode hex="0077"/>
  <outline>
    <contour>
      <point x="423" y="0" type="line"/>
      <point x="623" y="0" type="line"/>
      <point x="826" y="582" type="line"/>
      <point x="1045" y="0" type="line"/>
      <point x="1239" y="0" type="line"/>
      <point x="1605" y="1026" type="line"/>
      <point x="1371" y="1026" type="line"/>
      <point x="1190" y="484" type="line"/>
      <point x="1136" y="325" type="line"/>
      <point x="1079" y="484" type="line"/>
      <point x="897" y="995" type="line"/>
      <point x="740" y="995" type="line"/>
      <point x="577" y="484" type="line"/>
      <point x="522" y="325" type="line"/>
      <point x="466" y="484" type="line"/>
      <point x="281" y="1026" type="line"/>
      <point x="34" y="1026" type="line"/>
    </contour>
  </outline>
</glyph>
<glyph name="x" format="1">
  <advance width="1103"/>
  <unicode hex="0078"/>
  <outline>
    <contour>
      <point x="24.5" y="0" type="line"/>
      <point x="418.5" y="519" type="line"/>
      <point x="69.5" y="996" type="line"/>
      <point x="354.5" y="996" type="line"/>
      <point x="573.5" y="681" type="line"/>
      <point x="782.5" y="996" type="line"/>
      <point x="1061.5" y="996" type="line"/>
      <point x="697.5" y="504" type="line"/>
      <point x="1078.5" y="0" type="line"/>
      <point x="775.5" y="0" type="line"/>
      <point x="537.5" y="345" type="line"/>
      <point x="290.5" y="0" type="line"/>
    </contour>
  </outline>
</glyph>
<glyph name="y" format="1">
  <advance width="1232"/>
  <unicode hex="0079"/>
  <outline>
    <contour>
      <point x="554" y="-542" type="curve" smooth="yes"/>
      <point x="820" y="-542"/>
      <point x="1071" y="-401"/>
      <point x="1072" y="-6" type="curve"/>
      <point x="1072" y="996" type="line"/>
      <point x="830" y="996" type="line"/>
      <point x="830" y="473" type="line" smooth="yes"/>
      <point x="830" y="270"/>
      <point x="750" y="170"/>
      <point x="592" y="170" type="curve" smooth="yes"/>
      <point x="478" y="170"/>
      <point x="407" y="247"/>
      <point x="407" y="381" type="curve" smooth="yes"/>
      <point x="407" y="577" type="line"/>
      <point x="412" y="884"/>
      <point x="351" y="996"/>
      <point x="351" y="996" type="curve"/>
      <point x="106" y="966" type="line"/>
      <point x="106" y="966"/>
      <point x="165" y="844"/>
      <point x="165" y="564" type="curve" smooth="yes"/>
      <point x="165" y="355" type="line" smooth="yes"/>
      <point x="165" y="130"/>
      <point x="319" y="-22"/>
      <point x="548" y="-22" type="curve" smooth="yes"/>
      <point x="759" y="-22"/>
      <point x="848" y="86"/>
      <point x="890" y="184" type="curve"/>
      <point x="830" y="187" type="line"/>
      <point x="830" y="-44" type="line" smooth="yes"/>
      <point x="830" y="-283"/>
      <point x="658" y="-335"/>
      <point x="535" y="-335" type="curve" smooth="yes"/>
      <point x="449" y="-335"/>
      <point x="328" y="-303"/>
      <point x="241" y="-259" type="curve"/>
      <point x="195" y="-459" type="line"/>
      <point x="311" y="-513"/>
      <point x="440" y="-542"/>
    </contour>
  </outline>
</glyph>
<glyph name="z" format="1">
  <advance width="965.0"/>
  <unicode hex="007A"/>
  <outline>
    <contour>
      <point x="116.0" y="0" type="line"/>
      <point x="116.0" y="155" type="line"/>
      <point x="594.0" y="856" type="line"/>
      <point x="122.0" y="856" type="line"/>
      <point x="122.0" y="1026" type="line"/>
      <point x="882.0" y="1026" type="line"/>
      <point x="882.0" y="873" type="line"/>
      <point x="412.0" y="170" type="line"/>
      <point x="904.0" y="170" type="line"/>
      <point x="904.0" y="0" type="line"/>
    </contour>
  </outline>
</glyph>
<glyph name="braceleft" format="1">
  <advance width="1104"/>
  <unicode hex="007B"/>
  <outline>
    <contour>
      <point x="715" y="-456" type="curve"/>
      <point x="715" y="-308" type="line"/>
      <point x="679" y="-308"/>
      <point x="648" y="-304"/>
      <point x="624" y="-295" type="curve" smooth="yes"/>
      <point x="534" y="-264"/>
      <point x="524" y="-154"/>
      <point x="524" y="-27" type="curve" smooth="yes"/>
      <point x="524" y="50"/>
      <point x="525" y="155"/>
      <point x="525" y="230" type="curve" smooth="yes"/>
      <point x="525" y="383"/>
      <point x="474" y="496"/>
      <point x="366" y="547" type="curve"/>
      <point x="463" y="599"/>
      <point x="530" y="713"/>
      <point x="530" y="868" type="curve" smooth="yes"/>
      <point x="531" y="1207" type="line" smooth="yes"/>
      <point x="531" y="1343"/>
      <point x="584" y="1400"/>
      <point x="715" y="1404" type="curve"/>
      <point x="715" y="1552" type="line"/>
      <point x="462" y="1552"/>
      <point x="336" y="1440"/>
      <point x="336" y="1190" type="curve"/>
      <point x="337" y="1141"/>
      <point x="338" y="1090"/>
      <point x="338" y="1041" type="curve" smooth="yes"/>
      <point x="338" y="991"/>
      <point x="340" y="943"/>
      <point x="341" y="894" type="curve"/>
      <point x="341" y="739"/>
      <point x="292" y="631"/>
      <point x="151" y="618" type="curve"/>
      <point x="151" y="476" type="line"/>
      <point x="311" y="459"/>
      <point x="337" y="343"/>
      <point x="337" y="169" type="curve" smooth="yes"/>
      <point x="336" y="-138" type="line" smooth="yes"/>
      <point x="336" y="-367"/>
      <point x="497" y="-447"/>
    </contour>
  </outline>
</glyph>
<glyph name="bar" format="1">
  <advance width="891"/>
  <unicode hex="007C"/>
  <outline>
    <contour>
      <point x="358" y="-409" type="line"/>
      <point x="358" y="1526" type="line"/>
      <point x="543" y="1526" type="line"/>
      <point x="543" y="-409" type="line"/>
    </contour>
  </outline>
</glyph>
<glyph name="braceright" format="1">
  <advance width="730"/>
  <unicode hex="007D"/>
  <outline>
    <contour>
      <point x="87" y="-326" type="curve"/>
      <point x="87" y="-178" type="line"/>
      <point x="247" y="-178"/>
      <point x="276" y="-107"/>
      <point x="276" y="103" type="curve" smooth="yes"/>
      <point x="276" y="290" type="line" smooth="yes"/>
      <point x="276" y="443"/>
      <point x="329" y="556"/>
      <point x="437" y="607" type="curve"/>
      <point x="337" y="659"/>
      <point x="272" y="772"/>
      <point x="272" y="928" type="curve" smooth="yes"/>
      <point x="272" y="1207" type="line" smooth="yes"/>
      <point x="272" y="1343"/>
      <point x="219" y="1400"/>
      <point x="87" y="1404" type="curve"/>
      <point x="87" y="1552" type="line"/>
      <point x="339" y="1552"/>
      <point x="466" y="1440"/>
      <point x="466" y="1190" type="curve" smooth="yes"/>
      <point x="466" y="954" type="line" smooth="yes"/>
      <point x="466" y="799"/>
      <point x="511" y="691"/>
      <point x="652" y="678" type="curve"/>
      <point x="650" y="536" type="line"/>
      <point x="531" y="524"/>
      <point x="469" y="455"/>
      <point x="468" y="335" type="curve" smooth="yes"/>
      <point x="466" y="-8" type="line" smooth="yes"/>
      <point x="465" y="-237"/>
      <point x="305" y="-317"/>
    </contour>
  </outline>
</glyph>
<glyph name="asciitilde" format="1">
  <advance width="1654"/>
  <unicode hex="007E"/>
  <outline>
    <contour>
      <point x="384" y="678" type="line"/>
      <point x="407" y="784"/>
      <point x="468" y="896"/>
      <point x="585" y="896" type="curve" smooth="yes"/>
      <point x="607" y="896"/>
      <point x="632" y="891"/>
      <point x="659" y="882" type="curve" smooth="yes"/>
      <point x="750" y="850"/>
      <point x="836" y="797"/>
      <point x="920" y="757" type="curve" smooth="yes"/>
      <point x="964" y="735"/>
      <point x="1020" y="708"/>
      <point x="1075" y="708" type="curve" smooth="yes"/>
      <point x="1117" y="708"/>
      <point x="1155" y="715"/>
      <point x="1192" y="731" type="curve" smooth="yes"/>
      <point x="1312" y="782"/>
      <point x="1384" y="890"/>
      <point x="1417" y="1029" type="curve"/>
      <point x="1270" y="1075" type="line"/>
      <point x="1248" y="979"/>
      <point x="1183" y="866"/>
      <point x="1076" y="866" type="curve" smooth="yes"/>
      <point x="1059" y="866"/>
      <point x="1039" y="871"/>
      <point x="1016" y="880" type="curve" smooth="yes"/>
      <point x="930" y="915"/>
      <point x="846" y="967"/>
      <point x="760" y="1005" type="curve" smooth="yes"/>
      <point x="708" y="1027"/>
      <point x="647" y="1054"/>
      <point x="583" y="1054" type="curve" smooth="yes"/>
      <point x="538" y="1054"/>
      <point x="498" y="1046"/>
      <point x="462" y="1028" type="curve" smooth="yes"/>
      <point x="356" y="979"/>
      <point x="277" y="875"/>
      <point x="249" y="742" type="curve"/>
    </contour>
  </outline>
</glyph>
<glyph name="exclamdown" format="1">
  <advance width="1297"/>
  <unicode hex="00A1"/>
  <outline>
    <contour>
      <point x="458" y="-676" type="line"/>
      <point x="653" y="-676" type="line"/>
      <point x="653" y="589" type="line"/>
      <point x="458" y="589" type="line"/>
    </contour>
    <contour>
      <point x="458" y="813" type="line"/>
      <point x="710" y="813" type="line"/>
      <point x="710" y="1054" type="line"/>
      <point x="458" y="1054" type="line"/>
    </contour>
  </outline>
</glyph>
<glyph name="cent" format="1">
  <advance width="1027"/>
  <unicode hex="00A2"/>
  <outline>
    <contour>
      <point x="566" y="-414" type="line"/>
      <point x="566" y="1366" type="line"/>
      <point x="699" y="1366" type="line"/>
      <point x="699" y="-414" type="line"/>
    </contour>
    <component base="c" xOffset="-19"/>
  </outline>
</glyph>
<glyph name="sterling" format="1">
  <advance width="2047"/>
  <unicode hex="00A3"/>
  <outline>
    <contour>
      <point x="202" y="0" type="line"/>
      <point x="1289.9" y="0" type="line"/>
      <point x="1289.9" y="166" type="line"/>
      <point x="501" y="166" type="line"/>
      <point x="520" y="181"/>
      <point x="537" y="200"/>
      <point x="550" y="228" type="curve" smooth="yes"/>
      <point x="614" y="359"/>
      <point x="616" y="558"/>
      <point x="616" y="752" type="curve" smooth="yes"/>
      <point x="616" y="810" type="line"/>
      <point x="966.277" y="810" type="line"/>
      <point x="966.277" y="977" type="line"/>
      <point x="614" y="977" type="line"/>
      <point x="611" y="1112" type="line"/>
      <point x="611" y="1357"/>
      <point x="680.097" y="1535"/>
      <point x="900.374" y="1535" type="curve" smooth="yes"/>
      <point x="1018.64" y="1535"/>
      <point x="1123.9" y="1503"/>
      <point x="1205.9" y="1453" type="curve"/>
      <point x="1267.9" y="1594" type="line"/>
      <point x="1176.9" y="1665"/>
      <point x="1049.9" y="1700"/>
      <point x="896.763" y="1700" type="curve" smooth="yes"/>
      <point x="512" y="1700"/>
      <point x="412" y="1421"/>
      <point x="412" y="1010" type="curve" smooth="yes"/>
      <point x="412" y="999"/>
      <point x="413" y="988"/>
      <point x="415" y="977" type="curve"/>
      <point x="200" y="977" type="line"/>
      <point x="200" y="810" type="line"/>
      <point x="415" y="810" type="line"/>
      <point x="415" y="517" type="line" smooth="yes"/>
      <point x="415" y="319"/>
      <point x="322" y="234"/>
      <point x="200" y="163" type="curve"/>
    </contour>
  </outline>
</glyph>
<glyph name="currency" format="1">
  <advance width="1373"/>
  <unicode hex="00A4"/>
  <outline>
    <contour>
      <point x="1152" y="361" type="line"/>
      <point x="959" y="550" type="line"/>
      <point x="886" y="479"/>
      <point x="789" y="456"/>
      <point x="683" y="456" type="curve" smooth="yes"/>
      <point x="585" y="456"/>
      <point x="493" y="475"/>
      <point x="421" y="540" type="curve"/>
      <point x="238" y="343" type="line"/>
      <point x="196" y="387" type="line"/>
      <point x="381" y="581" type="line"/>
      <point x="306" y="662"/>
      <point x="258" y="772"/>
      <point x="258" y="891" type="curve" smooth="yes"/>
      <point x="258" y="1000"/>
      <point x="301" y="1101"/>
      <point x="368" y="1180" type="curve"/>
      <point x="178" y="1365" type="line"/>
      <point x="223" y="1410" type="line"/>
      <point x="409" y="1226" type="line"/>
      <point x="486" y="1302"/>
      <point x="587" y="1328"/>
      <point x="694" y="1325" type="curve" smooth="yes"/>
      <point x="792" y="1322"/>
      <point x="881" y="1301"/>
      <point x="951" y="1236" type="curve"/>
      <point x="1130" y="1429" type="line"/>
      <point x="1178" y="1384" type="line"/>
      <point x="992" y="1191" type="line"/>
      <point x="1066" y="1108"/>
      <point x="1111" y="998"/>
      <point x="1108" y="879" type="curve" smooth="yes"/>
      <point x="1105" y="769"/>
      <point x="1066" y="670"/>
      <point x="999" y="593" type="curve"/>
      <point x="1195" y="403" type="line"/>
    </contour>
    <contour>
      <point x="681" y="546" type="curve" smooth="yes"/>
      <point x="861" y="546"/>
      <point x="995" y="680"/>
      <point x="1000" y="879" type="curve" smooth="yes"/>
      <point x="1004" y="1077"/>
      <point x="869" y="1223"/>
      <point x="690" y="1227" type="curve" smooth="yes"/>
      <point x="510" y="1232"/>
      <point x="363" y="1086"/>
      <point x="363" y="888" type="curve" smooth="yes"/>
      <point x="363" y="688"/>
      <point x="502" y="546"/>
    </contour>
  </outline>
</glyph>
<glyph name="yen" format="1">
  <advance width="1547"/>
  <unicode hex="00A5"/>
  <outline>
    <contour>
      <point x="1278" y="283" type="line"/>
      <point x="273" y="283" type="line"/>
      <point x="273" y="422" type="line"/>
      <point x="682" y="422" type="line"/>
      <point x="682" y="608" type="line"/>
      <point x="266" y="608" type="line"/>
      <point x="266" y="750" type="line"/>
      <point x="1274" y="750" type="line"/>
      <point x="1274" y="608" type="line"/>
      <point x="871" y="608" type="line"/>
      <point x="871" y="422" type="line"/>
      <point x="1278" y="422" type="line"/>
    </contour>
    <component base="Y" xOffset="164"/>
  </outline>
</glyph>
<glyph name="brokenbar" format="1">
  <advance width="890"/>
  <unicode hex="00A6"/>
  <outline>
    <contour>
      <point x="306" y="-865" type="line"/>
      <point x="306" y="173" type="line"/>
      <point x="491" y="173" type="line"/>
      <point x="491" y="-865" type="line"/>
    </contour>
    <contour>
      <point x="306" y="507" type="line"/>
      <point x="306" y="1526" type="line"/>
      <point x="491" y="1526" type="line"/>
      <point x="491" y="507" type="line"/>
    </contour>
  </outline>
</glyph>
<glyph name="section" format="1">
  <advance width="1464"/>
  <unicode hex="00A7"/>
  <outline>
    <contour>
      <point x="647" y="-329" type="curve" smooth="yes"/>
      <point x="767" y="-329"/>
      <point x="874" y="-294"/>
      <point x="952" y="-238" type="curve" smooth="yes"/>
      <point x="1029" y="-184"/>
      <point x="1097" y="-102"/>
      <point x="1097" y="22" type="curve" smooth="yes"/>
      <point x="1097" y="170"/>
      <point x="1004" y="240"/>
      <point x="905" y="291" type="curve"/>
      <point x="1002" y="350"/>
      <point x="1123" y="439"/>
      <point x="1123" y="592" type="curve" smooth="yes"/>
      <point x="1123" y="633"/>
      <point x="1113" y="671"/>
      <point x="1094" y="704" type="curve" smooth="yes"/>
      <point x="1007" y="851"/>
      <point x="811" y="903"/>
      <point x="673" y="986" type="curve" smooth="yes"/>
      <point x="612" y="1024"/>
      <point x="553" y="1066"/>
      <point x="553" y="1161" type="curve" smooth="yes"/>
      <point x="553" y="1287"/>
      <point x="666" y="1319"/>
      <point x="781" y="1319" type="curve" smooth="yes"/>
      <point x="870" y="1319"/>
      <point x="962" y="1291"/>
      <point x="1033" y="1258" type="curve"/>
      <point x="1030" y="1432" type="line"/>
      <point x="942" y="1459"/>
      <point x="874" y="1480"/>
      <point x="776" y="1480" type="curve" smooth="yes"/>
      <point x="563" y="1480"/>
      <point x="355" y="1390"/>
      <point x="355" y="1156" type="curve" smooth="yes"/>
      <point x="355" y="1006"/>
      <point x="435" y="932"/>
      <point x="534" y="872" type="curve"/>
      <point x="432" y="820"/>
      <point x="313" y="735"/>
      <point x="313" y="583" type="curve" smooth="yes"/>
      <point x="313" y="545"/>
      <point x="320" y="510"/>
      <point x="333" y="478" type="curve" smooth="yes"/>
      <point x="378" y="369"/>
      <point x="480" y="307"/>
      <point x="583" y="260" type="curve" smooth="yes"/>
      <point x="673" y="218" type="line" smooth="yes"/>
      <point x="708" y="202"/>
      <point x="739" y="186"/>
      <point x="767" y="172" type="curve" smooth="yes"/>
      <point x="827" y="140"/>
      <point x="895" y="105"/>
      <point x="895" y="12" type="curve" smooth="yes"/>
      <point x="895" y="-14"/>
      <point x="890" y="-37"/>
      <point x="878" y="-59" type="curve" smooth="yes"/>
      <point x="840" y="-133"/>
      <point x="750" y="-168"/>
      <point x="643" y="-168" type="curve" smooth="yes"/>
      <point x="533" y="-168"/>
      <point x="439" y="-137"/>
      <point x="342" y="-94" type="curve"/>
      <point x="345" y="-268" type="line"/>
      <point x="434" y="-304"/>
      <point x="539" y="-329"/>
    </contour>
    <contour>
      <point x="763" y="369" type="curve"/>
      <point x="727" y="385"/>
      <point x="694" y="401"/>
      <point x="664" y="416" type="curve" smooth="yes"/>
      <point x="596" y="450"/>
      <point x="520" y="494"/>
      <point x="520" y="597" type="curve" smooth="yes"/>
      <point x="520" y="703"/>
      <point x="598" y="760"/>
      <point x="662" y="798" type="curve"/>
      <point x="748" y="746"/>
      <point x="914" y="720"/>
      <point x="914" y="576" type="curve" smooth="yes"/>
      <point x="914" y="552"/>
      <point x="910" y="532"/>
      <point x="901" y="511" type="curve" smooth="yes"/>
      <point x="871" y="449"/>
      <point x="815" y="406"/>
    </contour>
  </outline>
</glyph>
<glyph name="copyright" format="1">
  <advance width="1820"/>
  <unicode hex="00A9"/>
  <outline>
    <contour>
      <point x="935" y="249" type="curve" smooth="yes"/>
      <point x="1050" y="249"/>
      <point x="1148" y="279"/>
      <point x="1231" y="339" type="curve"/>
      <point x="1194" y="460" type="line"/>
      <point x="1136" y="411"/>
      <point x="1062" y="380"/>
      <point x="965" y="380" type="curve" smooth="yes"/>
      <point x="754" y="380"/>
      <point x="621" y="504"/>
      <point x="621" y="733" type="curve" smooth="yes"/>
      <point x="621" y="920"/>
      <point x="729" y="1080"/>
      <point x="939" y="1080" type="curve" smooth="yes"/>
      <point x="1042" y="1080"/>
      <point x="1128" y="1048"/>
      <point x="1198" y="985" type="curve"/>
      <point x="1228" y="1105" type="line"/>
      <point x="1150" y="1174"/>
      <point x="1055" y="1208"/>
      <point x="945" y="1208" type="curve" smooth="yes"/>
      <point x="676" y="1208"/>
      <point x="468" y="1042"/>
      <point x="468" y="729" type="curve" smooth="yes"/>
      <point x="468" y="473"/>
      <point x="640" y="249"/>
    </contour>
    <contour>
      <point x="909" y="80" type="curve" smooth="yes"/>
      <point x="557" y="80"/>
      <point x="279" y="374"/>
      <point x="279" y="725" type="curve" smooth="yes"/>
      <point x="279" y="1077"/>
      <point x="557" y="1371"/>
      <point x="909" y="1371" type="curve" smooth="yes"/>
      <point x="1260" y="1371"/>
      <point x="1538" y="1077"/>
      <point x="1538" y="725" type="curve" smooth="yes"/>
      <point x="1538" y="374"/>
      <point x="1260" y="80"/>
    </contour>
    <contour>
      <point x="910" y="1480" type="curve" smooth="yes"/>
      <point x="496" y="1480"/>
      <point x="158" y="1141"/>
      <point x="158" y="727" type="curve" smooth="yes"/>
      <point x="158" y="314"/>
      <point x="496" y="-25"/>
      <point x="910" y="-25" type="curve" smooth="yes"/>
      <point x="1324" y="-25"/>
      <point x="1662" y="314"/>
      <point x="1662" y="727" type="curve" smooth="yes"/>
      <point x="1662" y="1141"/>
      <point x="1324" y="1480"/>
    </contour>
  </outline>
</glyph>
<glyph name="ordfeminine" format="1">
  <advance width="1013"/>
  <unicode hex="00AA"/>
  <outline>
    <contour>
      <point x="453" y="636" type="curve" smooth="yes"/>
      <point x="559" y="636"/>
      <point x="639" y="679"/>
      <point x="686" y="743" type="curve"/>
      <point x="693" y="657" type="line"/>
      <point x="847" y="657" type="line"/>
      <point x="841" y="728"/>
      <point x="839" y="755"/>
      <point x="839" y="807" type="curve" smooth="yes"/>
      <point x="841" y="1184" type="line" smooth="yes"/>
      <point x="841" y="1378"/>
      <point x="711" y="1468"/>
      <point x="534" y="1468" type="curve" smooth="yes"/>
      <point x="393" y="1468"/>
      <point x="276" y="1420"/>
      <point x="216" y="1319" type="curve"/>
      <point x="295" y="1231" type="line"/>
      <point x="347" y="1308"/>
      <point x="423" y="1342"/>
      <point x="528" y="1342" type="curve" smooth="yes"/>
      <point x="644" y="1342"/>
      <point x="685" y="1295"/>
      <point x="685" y="1166" type="curve" smooth="yes"/>
      <point x="685" y="1156" type="line"/>
      <point x="606" y="1144"/>
      <point x="524" y="1146"/>
      <point x="445" y="1134" type="curve" smooth="yes"/>
      <point x="308" y="1112"/>
      <point x="163" y="1039"/>
      <point x="163" y="879" type="curve" smooth="yes"/>
      <point x="163" y="842"/>
      <point x="170" y="809"/>
      <point x="185" y="779" type="curve" smooth="yes"/>
      <point x="229" y="690"/>
      <point x="326" y="636"/>
    </contour>
    <contour>
      <point x="475" y="757" type="curve" smooth="yes"/>
      <point x="391" y="757"/>
      <point x="323" y="790"/>
      <point x="323" y="881" type="curve" smooth="yes"/>
      <point x="323" y="1044"/>
      <point x="566" y="1011"/>
      <point x="685" y="1037" type="curve"/>
      <point x="685" y="1008" type="line"/>
      <point x="678" y="864"/>
      <point x="613" y="757"/>
    </contour>
  </outline>
</glyph>
<glyph name="guillemotleft" format="1">
  <advance width="1999"/>
  <unicode hex="00AB"/>
  <outline>
    <contour>
      <point x="752" y="301" type="line"/>
      <point x="443" y="735" type="line"/>
      <point x="758" y="1174" type="line"/>
      <point x="928" y="1174" type="line"/>
      <point x="643" y="735" type="line"/>
      <point x="918" y="301" type="line"/>
    </contour>
    <contour>
      <point x="1149" y="301" type="line"/>
      <point x="860" y="735" type="line"/>
      <point x="1155" y="1174" type="line"/>
      <point x="1342" y="1174" type="line"/>
      <point x="1039" y="735" type="line"/>
      <point x="1334" y="301" type="line"/>
    </contour>
  </outline>
</glyph>
<glyph name="logicalnot" format="1">
  <advance width="2491"/>
  <unicode hex="00AC"/>
  <outline>
    <contour>
      <point x="1332.44" y="419" type="line"/>
      <point x="1332.44" y="913" type="line"/>
      <point x="353" y="913" type="line"/>
      <point x="353" y="1077" type="line"/>
      <point x="1508.44" y="1077" type="line"/>
      <point x="1508.44" y="419" type="line"/>
    </contour>
  </outline>
</glyph>
<glyph name="degree" format="1">
  <advance width="1470"/>
  <unicode hex="00B0"/>
  <outline>
    <contour>
      <point x="540" y="915" type="curve" smooth="yes"/>
      <point x="435" y="915"/>
      <point x="325" y="985"/>
      <point x="325" y="1125" type="curve" smooth="yes"/>
      <point x="325" y="1235"/>
      <point x="416" y="1333"/>
      <point x="540" y="1333" type="curve" smooth="yes"/>
      <point x="646" y="1333"/>
      <point x="755" y="1262"/>
      <point x="755" y="1125" type="curve" smooth="yes"/>
      <point x="755" y="1017"/>
      <point x="667" y="915"/>
    </contour>
    <contour>
      <point x="540" y="778" type="curve" smooth="yes"/>
      <point x="712" y="778"/>
      <point x="902" y="901"/>
      <point x="902" y="1126" type="curve" smooth="yes"/>
      <point x="902" y="1303"/>
      <point x="754" y="1469"/>
      <point x="540" y="1469" type="curve" smooth="yes"/>
      <point x="368" y="1469"/>
      <point x="178" y="1347"/>
      <point x="178" y="1126" type="curve" smooth="yes"/>
      <point x="178" y="946"/>
      <point x="328" y="778"/>
    </contour>
  </outline>
</glyph>
<glyph name="plusminus" format="1">
  <advance width="2509"/>
  <unicode hex="00B1"/>
  <outline>
    <contour>
      <point x="852" y="262" type="line"/>
      <point x="852" y="699" type="line"/>
      <point x="356" y="699" type="line"/>
      <point x="341" y="861" type="line"/>
      <point x="850" y="861" type="line"/>
      <point x="850" y="1299" type="line"/>
      <point x="1013" y="1299" type="line"/>
      <point x="1013" y="861" type="line"/>
      <point x="1515" y="861" type="line"/>
      <point x="1515" y="699" type="line"/>
      <point x="1018" y="699" type="line"/>
      <point x="1018" y="262" type="line"/>
    </contour>
    <contour>
      <point x="356" y="0" type="line"/>
      <point x="356" y="163" type="line"/>
      <point x="1520" y="163" type="line"/>
      <point x="1520" y="0" type="line"/>
    </contour>
  </outline>
</glyph>
<glyph name="uni00B2" format="1">
  <advance width="2105"/>
  <unicode hex="00B2"/>
  <outline>
    <contour>
      <point x="514" y="499" type="line"/>
      <point x="1155" y="499" type="line"/>
      <point x="1155" y="637" type="line"/>
      <point x="727" y="637" type="line"/>
      <point x="835" y="731"/>
      <point x="945" y="821"/>
      <point x="1032" y="926" type="curve" smooth="yes"/>
      <point x="1095" y="1003"/>
      <point x="1156" y="1090"/>
      <point x="1156" y="1213" type="curve" smooth="yes"/>
      <point x="1156" y="1254"/>
      <point x="1147" y="1290"/>
      <point x="1132" y="1324" type="curve" smooth="yes"/>
      <point x="1086" y="1419"/>
      <point x="986" y="1480"/>
      <point x="847" y="1480" type="curve" smooth="yes"/>
      <point x="685" y="1480"/>
      <point x="573" y="1399"/>
      <point x="523" y="1281" type="curve"/>
      <point x="623" y="1189" type="line"/>
      <point x="662" y="1272"/>
      <point x="728" y="1343"/>
      <point x="840" y="1343" type="curve" smooth="yes"/>
      <point x="933" y="1343"/>
      <point x="1005" y="1300"/>
      <point x="1005" y="1212" type="curve" smooth="yes"/>
      <point x="1005" y="1179"/>
      <point x="993" y="1143"/>
      <point x="968" y="1103" type="curve" smooth="yes"/>
      <point x="943" y="1063"/>
      <point x="910" y="1019"/>
      <point x="867" y="971" type="curve" smooth="yes"/>
      <point x="762" y="856"/>
      <point x="639" y="743"/>
      <point x="514" y="629" type="curve"/>
    </contour>
  </outline>
</glyph>
<glyph name="uni00B3" format="1">
  <advance width="2105"/>
  <unicode hex="00B3"/>
  <outline>
    <contour>
      <point x="781" y="476" type="curve" smooth="yes"/>
      <point x="828" y="476"/>
      <point x="874" y="483"/>
      <point x="916" y="496" type="curve" smooth="yes"/>
      <point x="1031" y="532"/>
      <point x="1132" y="620"/>
      <point x="1132" y="768" type="curve" smooth="yes"/>
      <point x="1132" y="888"/>
      <point x="1069" y="961"/>
      <point x="981" y="1000" type="curve"/>
      <point x="1054" y="1039"/>
      <point x="1107" y="1108"/>
      <point x="1107" y="1212" type="curve" smooth="yes"/>
      <point x="1107" y="1256"/>
      <point x="1098" y="1294"/>
      <point x="1080" y="1327" type="curve" smooth="yes"/>
      <point x="1031" y="1418"/>
      <point x="928" y="1480"/>
      <point x="788" y="1480" type="curve" smooth="yes"/>
      <point x="666" y="1480"/>
      <point x="556" y="1425"/>
      <point x="492" y="1361" type="curve"/>
      <point x="560" y="1249" type="line"/>
      <point x="618" y="1295"/>
      <point x="689" y="1340"/>
      <point x="785" y="1340" type="curve" smooth="yes"/>
      <point x="880" y="1340"/>
      <point x="951" y="1304"/>
      <point x="951" y="1209" type="curve" smooth="yes"/>
      <point x="951" y="1091"/>
      <point x="839" y="1067"/>
      <point x="720" y="1067" type="curve" smooth="yes"/>
      <point x="662" y="1067" type="line"/>
      <point x="662" y="928" type="line"/>
      <point x="692" y="928" type="line"/>
      <point x="728" y="928" type="line" smooth="yes"/>
      <point x="860" y="928"/>
      <point x="980" y="902"/>
      <point x="980" y="771" type="curve" smooth="yes"/>
      <point x="980" y="663"/>
      <point x="885" y="611"/>
      <point x="775" y="611" type="curve" smooth="yes"/>
      <point x="699" y="611"/>
      <point x="628" y="642"/>
      <point x="562" y="702" type="curve"/>
      <point x="492" y="590" type="line"/>
      <point x="559" y="523"/>
      <point x="655" y="476"/>
    </contour>
  </outline>
</glyph>
<glyph name="acute" format="1">
  <advance width="1068"/>
  <unicode hex="00B4"/>
  <outline>
    <contour>
      <point x="308" y="2064" type="line"/>
      <point x="574" y="2440" type="line"/>
      <point x="893" y="2440" type="line"/>
      <point x="531" y="2064" type="line"/>
    </contour>
  </outline>
</glyph>
<glyph name="paragraph" format="1">
  <advance width="2080"/>
  <unicode hex="00B6"/>
  <outline>
    <contour>
      <point x="566.685" y="-261" type="line"/>
      <point x="719.254" y="-261" type="line"/>
      <point x="719" y="1324" type="line"/>
      <point x="940" y="1324" type="line"/>
      <point x="939.532" y="-261" type="line"/>
      <point x="1090.83" y="-261" type="line"/>
      <point x="1091" y="1324" type="line"/>
      <point x="1192" y="1324" type="line"/>
      <point x="1192" y="1470" type="line"/>
      <point x="760" y="1470" type="line" smooth="yes"/>
      <point x="480" y="1470"/>
      <point x="188" y="1403"/>
      <point x="188" y="1093" type="curve" smooth="yes"/>
      <point x="188" y="870"/>
      <point x="337" y="693"/>
      <point x="567" y="689" type="curve"/>
    </contour>
  </outline>
</glyph>
<glyph name="periodcentered" format="1">
  <advance width="639"/>
  <unicode hex="00B7"/>
  <outline>
    <contour>
      <point x="192" y="1025" type="line"/>
      <point x="192" y="1272" type="line"/>
      <point x="447" y="1272" type="line"/>
      <point x="447" y="1025" type="line"/>
    </contour>
  </outline>
</glyph>
<glyph name="cedilla" format="1">
  <advance width="941"/>
  <unicode hex="00B8"/>
  <outline>
    <contour>
      <point x="420" y="-481" type="curve" smooth="yes"/>
      <point x="563" y="-481"/>
      <point x="703" y="-438"/>
      <point x="703" y="-297" type="curve" smooth="yes"/>
      <point x="703" y="-171"/>
      <point x="590" y="-128"/>
      <point x="468" y="-122" type="curve" smooth="yes"/>
      <point x="458" y="-122" type="line"/>
      <point x="478" y="4" type="line"/>
      <point x="365" y="4" type="line"/>
      <point x="326" y="-219" type="line"/>
      <point x="364" y="-217" type="line"/>
      <point x="377" y="-215"/>
      <point x="397" y="-214"/>
      <point x="407" y="-214" type="curve" smooth="yes"/>
      <point x="478" y="-214"/>
      <point x="535" y="-230"/>
      <point x="535" y="-300" type="curve" smooth="yes"/>
      <point x="535" y="-365"/>
      <point x="478" y="-384"/>
      <point x="401" y="-384" type="curve" smooth="yes"/>
      <point x="338" y="-384"/>
      <point x="282" y="-370"/>
      <point x="224" y="-356" type="curve"/>
      <point x="214" y="-456" type="line"/>
      <point x="278" y="-469"/>
      <point x="349" y="-481"/>
    </contour>
  </outline>
</glyph>
<glyph name="uni00B9" format="1">
  <advance width="2105"/>
  <unicode hex="00B9"/>
  <outline>
    <contour>
      <point x="733" y="514" type="line"/>
      <point x="1161" y="514" type="line"/>
      <point x="1161" y="651" type="line"/>
      <point x="1018" y="651" type="line"/>
      <point x="1018" y="1480" type="line"/>
      <point x="894" y="1462" type="line"/>
      <point x="833" y="1426"/>
      <point x="775" y="1395"/>
      <point x="697" y="1370" type="curve"/>
      <point x="696" y="1217" type="line"/>
      <point x="755" y="1239"/>
      <point x="822" y="1269"/>
      <point x="874" y="1297" type="curve"/>
      <point x="874" y="1176" type="line" smooth="yes"/>
      <point x="874" y="1115"/>
      <point x="875" y="1058"/>
      <point x="875" y="988" type="curve" smooth="yes"/>
      <point x="875" y="654" type="line"/>
      <point x="733" y="654" type="line"/>
    </contour>
  </outline>
</glyph>
<glyph name="ordmasculine" format="1">
  <advance width="1425"/>
  <unicode hex="00BA"/>
  <outline>
    <contour>
      <point x="551" y="637" type="curve" smooth="yes"/>
      <point x="792" y="637"/>
      <point x="955" y="788"/>
      <point x="955" y="1052" type="curve" smooth="yes"/>
      <point x="955" y="1285"/>
      <point x="803" y="1470"/>
      <point x="551" y="1470" type="curve" smooth="yes"/>
      <point x="304" y="1470"/>
      <point x="143" y="1318"/>
      <point x="143" y="1056" type="curve" smooth="yes"/>
      <point x="143" y="795"/>
      <point x="304" y="637"/>
    </contour>
    <contour>
      <point x="551" y="763" type="curve" smooth="yes"/>
      <point x="395" y="763"/>
      <point x="307" y="884"/>
      <point x="307" y="1055" type="curve" smooth="yes"/>
      <point x="307" y="1221"/>
      <point x="397" y="1344"/>
      <point x="548" y="1344" type="curve" smooth="yes"/>
      <point x="701" y="1344"/>
      <point x="793" y="1221"/>
      <point x="793" y="1051" type="curve" smooth="yes"/>
      <point x="793" y="886"/>
      <point x="700" y="763"/>
    </contour>
  </outline>
</glyph>
<glyph name="guillemotright" format="1">
  <advance width="1996"/>
  <unicode hex="00BB"/>
  <outline>
    <contour>
      <point x="919" y="1174" type="line"/>
      <point x="1230" y="737" type="line"/>
      <point x="914" y="301" type="line"/>
      <point x="746" y="301" type="line"/>
      <point x="1028" y="737" type="line"/>
      <point x="754" y="1174" type="line"/>
    </contour>
    <contour>
      <point x="494" y="1174" type="line"/>
      <point x="786" y="737" type="line"/>
      <point x="489" y="301" type="line"/>
      <point x="301" y="301" type="line"/>
      <point x="606" y="737" type="line"/>
      <point x="308" y="1174" type="line"/>
    </contour>
  </outline>
</glyph>
<glyph name="onequarter" format="1">
  <advance width="4086"/>
  <unicode hex="00BC"/>
  <outline>
    <contour>
      <point x="-593" y="0" type="line"/>
      <point x="-416" y="0" type="line"/>
      <point x="431.17" y="1482" type="line"/>
      <point x="431.17" y="1413" type="line"/>
      <point x="483.531" y="1435"/>
      <point x="544.92" y="1465"/>
      <point x="591.864" y="1492" type="curve"/>
      <point x="591.864" y="1372" type="line" smooth="yes"/>
      <point x="591.864" y="1311"/>
      <point x="592.767" y="1253"/>
      <point x="592.767" y="1183" type="curve" smooth="yes"/>
      <point x="592.767" y="849" type="line"/>
      <point x="463.67" y="849" type="line"/>
      <point x="463.67" y="710" type="line"/>
      <point x="850.961" y="710" type="line"/>
      <point x="850.961" y="845" type="line"/>
      <point x="721.864" y="845" type="line"/>
      <point x="721.864" y="1675" type="line"/>
      <point x="609.92" y="1658" type="line"/>
      <point x="572.906" y="1632"/>
      <point x="535.892" y="1610"/>
      <point x="493.462" y="1590" type="curve"/>
      <point x="547.628" y="1686" type="line"/>
      <point x="389.642" y="1686" type="line"/>
    </contour>
    <contour>
      <point x="1816.03" y="722" type="line"/>
      <point x="1953.41" y="722" type="line"/>
      <point x="1953.41" y="943" type="line"/>
      <point x="2095.41" y="943" type="line"/>
      <point x="2084.41" y="1069" type="line"/>
      <point x="1956.41" y="1069" type="line"/>
      <point x="1956.41" y="1658" type="line"/>
      <point x="1804.3" y="1658" type="line"/>
      <point x="1416.1" y="1050" type="line"/>
      <point x="1416.1" y="943" type="line"/>
      <point x="1816.03" y="943" type="line"/>
    </contour>
    <contour>
      <point x="1563.25" y="1069" type="line"/>
      <point x="1816.03" y="1461" type="line"/>
      <point x="1816.03" y="1069" type="line"/>
    </contour>
  </outline>
</glyph>
<glyph name="onehalf" format="1">
  <advance width="4598"/>
  <unicode hex="00BD"/>
  <outline>
    <contour>
      <point x="478.114" y="710" type="line"/>
      <point x="1055.89" y="710" type="line"/>
      <point x="1055.89" y="848" type="line"/>
      <point x="670.406" y="848" type="line"/>
      <point x="767.905" y="942"/>
      <point x="866.308" y="1032"/>
      <point x="944.85" y="1136" type="curve" smooth="yes"/>
      <point x="1002.63" y="1213"/>
      <point x="1057.7" y="1301"/>
      <point x="1057.7" y="1424" type="curve" smooth="yes"/>
      <point x="1057.7" y="1465"/>
      <point x="1050.48" y="1501"/>
      <point x="1036.94" y="1535" type="curve"/>
      <point x="995.409" y="1630"/>
      <point x="903.322" y="1691"/>
      <point x="778.739" y="1691" type="curve" smooth="yes"/>
      <point x="631.586" y="1691"/>
      <point x="532.281" y="1609"/>
      <point x="486.239" y="1491" type="curve"/>
      <point x="576.517" y="1399" type="line"/>
      <point x="611.725" y="1482"/>
      <point x="672.211" y="1554"/>
      <point x="773.322" y="1554" type="curve" smooth="yes"/>
      <point x="856.377" y="1554"/>
      <point x="920.475" y="1511"/>
      <point x="920.475" y="1422" type="curve" smooth="yes"/>
      <point x="920.475" y="1389"/>
      <point x="910.544" y="1353"/>
      <point x="887.975" y="1313" type="curve" smooth="yes"/>
      <point x="866.308" y="1273"/>
      <point x="835.614" y="1229"/>
      <point x="796.794" y="1181" type="curve" smooth="yes"/>
      <point x="702.003" y="1067"/>
      <point x="590.059" y="953"/>
      <point x="478.114" y="839" type="curve"/>
    </contour>
    <contour>
      <point x="1725.75" y="710" type="line"/>
      <point x="2136.03" y="710" type="line"/>
      <point x="2136.03" y="845" type="line"/>
      <point x="1992.03" y="845" type="line"/>
      <point x="1992.03" y="1675" type="line"/>
      <point x="1871.1" y="1658" type="line"/>
      <point x="1816.03" y="1621"/>
      <point x="1765.48" y="1590"/>
      <point x="1694.16" y="1565" type="curve"/>
      <point x="1692.35" y="1413" type="line"/>
      <point x="1745.62" y="1435"/>
      <point x="1807" y="1465"/>
      <point x="1853.95" y="1492" type="curve"/>
      <point x="1853.95" y="1372" type="line" smooth="yes"/>
      <point x="1853.95" y="1311"/>
      <point x="1854.85" y="1253"/>
      <point x="1854.85" y="1183" type="curve" smooth="yes"/>
      <point x="1854.85" y="849" type="line"/>
      <point x="1725.75" y="849" type="line"/>
    </contour>
    <contour>
      <point x="-593" y="0" type="line"/>
      <point x="-416" y="0" type="line"/>
      <point x="547.628" y="1686" type="line"/>
      <point x="389.642" y="1686" type="line"/>
    </contour>
  </outline>
</glyph>
<glyph name="threequarters" format="1">
  <advance width="4096"/>
  <unicode hex="00BE"/>
  <outline>
    <contour>
      <point x="-583" y="0" type="line"/>
      <point x="-406" y="0" type="line"/>
      <point x="465" y="1522" type="line"/>
      <point x="499" y="1461" type="line"/>
      <point x="550" y="1507"/>
      <point x="615" y="1552"/>
      <point x="702" y="1552" type="curve" smooth="yes"/>
      <point x="788" y="1552"/>
      <point x="851" y="1516"/>
      <point x="851" y="1421" type="curve" smooth="yes"/>
      <point x="851" y="1303"/>
      <point x="749" y="1279"/>
      <point x="642" y="1279" type="curve" smooth="yes"/>
      <point x="590" y="1279" type="line"/>
      <point x="590" y="1140" type="line"/>
      <point x="618" y="1140" type="line"/>
      <point x="650" y="1140" type="line" smooth="yes"/>
      <point x="769" y="1140"/>
      <point x="877" y="1114"/>
      <point x="877" y="983" type="curve" smooth="yes"/>
      <point x="877" y="875"/>
      <point x="792" y="823"/>
      <point x="693" y="823" type="curve" smooth="yes"/>
      <point x="623" y="823"/>
      <point x="560" y="854"/>
      <point x="500" y="914" type="curve"/>
      <point x="437" y="802" type="line"/>
      <point x="497" y="735"/>
      <point x="584" y="688"/>
      <point x="698" y="688" type="curve" smooth="yes"/>
      <point x="740" y="688"/>
      <point x="781" y="695"/>
      <point x="819" y="708" type="curve" smooth="yes"/>
      <point x="923" y="744"/>
      <point x="1014" y="832"/>
      <point x="1014" y="980" type="curve" smooth="yes"/>
      <point x="1014" y="1100"/>
      <point x="958" y="1173"/>
      <point x="879" y="1212" type="curve"/>
      <point x="944" y="1251"/>
      <point x="993" y="1320"/>
      <point x="993" y="1424" type="curve" smooth="yes"/>
      <point x="993" y="1468"/>
      <point x="983" y="1506"/>
      <point x="967" y="1539" type="curve" smooth="yes"/>
      <point x="923" y="1630"/>
      <point x="830" y="1692"/>
      <point x="704" y="1692" type="curve" smooth="yes"/>
      <point x="644" y="1692"/>
      <point x="586" y="1675"/>
      <point x="537" y="1649" type="curve"/>
      <point x="558" y="1686" type="line"/>
      <point x="400" y="1686" type="line"/>
    </contour>
    <contour>
      <point x="1826" y="722" type="line"/>
      <point x="1963" y="722" type="line"/>
      <point x="1963" y="943" type="line"/>
      <point x="2105" y="943" type="line"/>
      <point x="2094" y="1069" type="line"/>
      <point x="1966" y="1069" type="line"/>
      <point x="1966" y="1658" type="line"/>
      <point x="1814" y="1658" type="line"/>
      <point x="1426" y="1050" type="line"/>
      <point x="1426" y="943" type="line"/>
      <point x="1826" y="943" type="line"/>
    </contour>
    <contour>
      <point x="1573" y="1069" type="line"/>
      <point x="1826" y="1461" type="line"/>
      <point x="1826" y="1069" type="line"/>
    </contour>
  </outline>
</glyph>
<glyph name="AE" format="1">
  <advance width="3581"/>
  <unicode hex="00C6"/>
  <outline>
    <contour>
      <point x="19" y="0" type="line"/>
      <point x="249" y="0" type="line"/>
      <point x="514" y="467" type="line"/>
      <point x="1273" y="467" type="line"/>
      <point x="1309" y="0" type="line"/>
      <point x="2245" y="0" type="line"/>
      <point x="2245" y="174" type="line"/>
      <point x="1488" y="174" type="line"/>
      <point x="1440" y="789" type="line"/>
      <point x="2169" y="789" type="line"/>
      <point x="2169" y="962" type="line"/>
      <point x="1418" y="962" type="line"/>
      <point x="1374" y="1536" type="line"/>
      <point x="2218" y="1536" type="line"/>
      <point x="2218" y="1710" type="line"/>
      <point x="995" y="1710" type="line"/>
    </contour>
    <contour>
      <point x="607" y="641" type="line"/>
      <point x="1121" y="1536" type="line"/>
      <point x="1180" y="1536" type="line"/>
      <point x="1251" y="641" type="line"/>
    </contour>
    <contour>
      <point x="1796" y="0" type="move" smooth="yes"/>
    </contour>
  </outline>
</glyph>
<glyph name="multiply" format="1">
  <advance width="2522"/>
  <unicode hex="00D7"/>
  <outline>
    <contour>
      <point x="688" y="271" type="line"/>
      <point x="567" y="392" type="line"/>
      <point x="905.06" y="741" type="line"/>
      <point x="567" y="1090" type="line"/>
      <point x="688" y="1211" type="line"/>
      <point x="1015.2" y="862" type="line"/>
      <point x="1341.4" y="1211" type="line"/>
      <point x="1463.4" y="1089" type="line"/>
      <point x="1124.44" y="741" type="line"/>
      <point x="1463.4" y="393" type="line"/>
      <point x="1341.4" y="271" type="line"/>
      <point x="1015.2" y="619" type="line"/>
    </contour>
  </outline>
</glyph>
<glyph name="Oslash" format="1">
  <advance width="1582"/>
  <unicode hex="00D8"/>
  <outline>
    <contour>
      <point x="453" y="-291" type="line"/>
      <point x="311" y="-239" type="line"/>
      <point x="1148" y="1684" type="line"/>
      <point x="1295" y="1633" type="line"/>
    </contour>
    <component base="O"/>
  </outline>
</glyph>
<glyph name="Thorn" format="1">
  <advance width="1367"/>
  <unicode hex="00DE"/>
  <outline>
    <contour>
      <point x="192" y="0" type="line"/>
      <point x="442" y="0" type="line"/>
      <point x="442" y="456" type="line"/>
      <point x="677" y="456" type="line" smooth="yes"/>
      <point x="1012" y="456"/>
      <point x="1253" y="528"/>
      <point x="1253" y="855" type="curve" smooth="yes"/>
      <point x="1253" y="1210"/>
      <point x="990" y="1270"/>
      <point x="632" y="1270" type="curve" smooth="yes"/>
      <point x="442" y="1270" type="line"/>
      <point x="442" y="1456" type="line"/>
      <point x="192" y="1456" type="line"/>
    </contour>
    <contour>
      <point x="442" y="650" type="line"/>
      <point x="442" y="1080" type="line"/>
      <point x="636" y="1080" type="line" smooth="yes"/>
      <point x="878" y="1080"/>
      <point x="1018" y="1072"/>
      <point x="1018" y="852" type="curve" smooth="yes"/>
      <point x="1018" y="678"/>
      <point x="896" y="650"/>
      <point x="675" y="650" type="curve" smooth="yes"/>
    </contour>
  </outline>
</glyph>
<glyph name="germandbls" format="1">
  <advance width="1234"/>
  <unicode hex="00DF"/>
  <outline>
    <contour>
      <point x="737" y="-130"/>
      <point x="1181" y="-36"/>
      <point x="1181" y="321" type="curve" smooth="yes"/>
      <point x="1181" y="574"/>
      <point x="1016" y="656"/>
      <point x="812" y="779" type="curve" smooth="yes"/>
      <point x="787" y="794"/>
      <point x="796" y="814"/>
      <point x="810" y="820" type="curve" smooth="yes"/>
      <point x="958" y="885"/>
      <point x="1055" y="968"/>
      <point x="1044" y="1164" type="curve" smooth="yes"/>
      <point x="1034" y="1343"/>
      <point x="894" y="1480"/>
      <point x="637" y="1480" type="curve" smooth="yes"/>
      <point x="389" y="1480"/>
      <point x="192" y="1324"/>
      <point x="192" y="1044" type="curve" smooth="yes"/>
      <point x="192" y="0" type="line"/>
      <point x="434" y="0" type="line"/>
      <point x="434" y="1032" type="line" smooth="yes"/>
      <point x="434" y="1220"/>
      <point x="506" y="1312"/>
      <point x="636" y="1312" type="curve" smooth="yes"/>
      <point x="719" y="1312"/>
      <point x="791" y="1259"/>
      <point x="802" y="1163" type="curve" smooth="yes"/>
      <point x="823" y="981"/>
      <point x="736" y="960"/>
      <point x="622" y="897" type="curve" smooth="yes"/>
      <point x="537" y="850"/>
      <point x="554" y="744"/>
      <point x="607" y="711" type="curve" smooth="yes"/>
      <point x="842" y="563"/>
      <point x="981" y="452"/>
      <point x="960" y="287" type="curve" smooth="yes"/>
      <point x="939" y="127"/>
      <point x="711" y="115"/>
      <point x="575" y="263" type="curve"/>
      <point x="538" y="109" type="line"/>
    </contour>
  </outline>
</glyph>
<glyph name="ae" format="1">
  <advance width="1748"/>
  <unicode hex="00E6"/>
  <outline>
    <contour>
      <point x="1420" y="-22"/>
      <point x="1573" y="3"/>
      <point x="1684" y="100" type="curve"/>
      <point x="1596" y="259" type="line"/>
      <point x="1510" y="196"/>
      <point x="1414" y="164"/>
      <point x="1325" y="164" type="curve" smooth="yes"/>
      <point x="1184" y="164"/>
      <point x="1033" y="248"/>
      <point x="1015" y="429" type="curve"/>
      <point x="1441" y="465"/>
      <point x="1619" y="566"/>
      <point x="1627" y="750" type="curve" smooth="yes"/>
      <point x="1627" y="754"/>
      <point x="1627" y="759"/>
      <point x="1627" y="763" type="curve" smooth="yes"/>
      <point x="1627" y="925"/>
      <point x="1498" y="1048"/>
      <point x="1279" y="1048" type="curve" smooth="yes"/>
      <point x="1129" y="1048"/>
      <point x="999" y="983"/>
      <point x="909" y="857" type="curve"/>
      <point x="847" y="992"/>
      <point x="710" y="1051"/>
      <point x="561" y="1051" type="curve" smooth="yes"/>
      <point x="426" y="1051"/>
      <point x="282" y="1004"/>
      <point x="172" y="924" type="curve"/>
      <point x="262" y="763" type="line"/>
      <point x="331" y="821"/>
      <point x="439" y="862"/>
      <point x="539" y="862" type="curve" smooth="yes"/>
      <point x="662" y="862"/>
      <point x="770" y="799"/>
      <point x="770" y="626" type="curve" smooth="yes"/>
      <point x="770" y="563" type="line"/>
      <point x="476" y="563"/>
      <point x="130" y="549"/>
      <point x="130" y="263" type="curve" smooth="yes"/>
      <point x="130" y="75"/>
      <point x="269" y="-22"/>
      <point x="468" y="-22" type="curve" smooth="yes"/>
      <point x="622" y="-22"/>
      <point x="775" y="24"/>
      <point x="884" y="160" type="curve"/>
      <point x="979" y="42"/>
      <point x="1126" y="-22"/>
      <point x="1294" y="-22" type="curve" smooth="yes"/>
    </contour>
    <contour>
      <point x="337" y="396"/>
      <point x="474" y="411"/>
      <point x="772" y="418" type="curve"/>
      <point x="772" y="238"/>
      <point x="608" y="142"/>
      <point x="482" y="142" type="curve" smooth="yes"/>
      <point x="402" y="142"/>
      <point x="337" y="180"/>
      <point x="337" y="260" type="curve" smooth="yes"/>
    </contour>
    <contour>
      <point x="1346" y="867"/>
      <point x="1393" y="823"/>
      <point x="1393" y="758" type="curve" smooth="yes"/>
      <point x="1393" y="644"/>
      <point x="1299" y="605"/>
      <point x="1007" y="571" type="curve"/>
      <point x="1015" y="698"/>
      <point x="1115" y="867"/>
      <point x="1268" y="867" type="curve" smooth="yes"/>
    </contour>
  </outline>
</glyph>
<glyph name="eth" format="1">
  <advance width="2012"/>
  <unicode hex="00F0"/>
  <outline>
    <contour>
      <point x="697.833" y="-40" type="curve" smooth="yes"/>
      <point x="783.596" y="-40"/>
      <point x="859.43" y="-22"/>
      <point x="927.138" y="12" type="curve"/>
      <point x="1150.22" y="129"/>
      <point x="1253.22" y="410"/>
      <point x="1253.22" y="776" type="curve" smooth="yes"/>
      <point x="1253.22" y="933"/>
      <point x="1232.22" y="1068"/>
      <point x="1197.22" y="1191" type="curve"/>
      <point x="1367.22" y="1191" type="line"/>
      <point x="1367.22" y="1352" type="line"/>
      <point x="1136.22" y="1352" type="line"/>
      <point x="1057.14" y="1531"/>
      <point x="942.485" y="1663"/>
      <point x="773.666" y="1736" type="curve"/>
      <point x="690.61" y="1637" type="line"/>
      <point x="807.069" y="1565"/>
      <point x="893.735" y="1479"/>
      <point x="957.832" y="1352" type="curve"/>
      <point x="739.36" y="1352" type="line"/>
      <point x="739.36" y="1191" type="line"/>
      <point x="1016.51" y="1191" type="line"/>
      <point x="1041.79" y="1087"/>
      <point x="1053.53" y="981"/>
      <point x="1054.43" y="847" type="curve" smooth="yes"/>
      <point x="1054.43" y="836" type="line"/>
      <point x="978.596" y="970"/>
      <point x="850.402" y="1040"/>
      <point x="659.013" y="1040" type="curve" smooth="yes"/>
      <point x="584.986" y="1040"/>
      <point x="519.083" y="1027"/>
      <point x="459.5" y="1001" type="curve" smooth="yes"/>
      <point x="286" y="928"/>
      <point x="155" y="764"/>
      <point x="155" y="510" type="curve" smooth="yes"/>
      <point x="155" y="433"/>
      <point x="167" y="359"/>
      <point x="195" y="293" type="curve"/>
      <point x="273" y="95"/>
      <point x="450.472" y="-40"/>
    </contour>
    <contour>
      <point x="689.708" y="126" type="curve" smooth="yes"/>
      <point x="639.152" y="126"/>
      <point x="594.916" y="134"/>
      <point x="554.291" y="153" type="curve" smooth="yes"/>
      <point x="440.542" y="207"/>
      <point x="362" y="329"/>
      <point x="362" y="504" type="curve" smooth="yes"/>
      <point x="362" y="736"/>
      <point x="476.653" y="875"/>
      <point x="687.902" y="875" type="curve" smooth="yes"/>
      <point x="868.457" y="875"/>
      <point x="992.138" y="766"/>
      <point x="1039.08" y="616" type="curve"/>
      <point x="1039.08" y="588" type="line" smooth="yes"/>
      <point x="1039.08" y="327"/>
      <point x="927.138" y="126"/>
    </contour>
  </outline>
</glyph>
<glyph name="divide" format="1">
  <advance width="2504"/>
  <unicode hex="00F7"/>
  <outline>
    <contour>
      <point x="830" y="1037" type="line"/>
      <point x="1059" y="1037" type="line"/>
      <point x="1059" y="1284" type="line"/>
      <point x="830" y="1284" type="line"/>
    </contour>
    <contour>
      <point x="359" y="581" type="line"/>
      <point x="1518" y="581" type="line"/>
      <point x="1518" y="745" type="line"/>
      <point x="359" y="745" type="line"/>
    </contour>
    <contour>
      <point x="830" y="37" type="line"/>
      <point x="1059" y="37" type="line"/>
      <point x="1059" y="284" type="line"/>
      <point x="830" y="284" type="line"/>
    </contour>
  </outline>
</glyph>
<glyph name="oslash" format="1">
  <advance width="2136"/>
  <unicode hex="00F8"/>
  <outline>
    <component base="o" xOffset="10"/>
    <contour>
      <point x="466" y="-460" type="line"/>
      <point x="1179" y="1309" type="line"/>
      <point x="1058" y="1346" type="line"/>
      <point x="361" y="-422" type="line"/>
    </contour>
  </outline>
</glyph>
<glyph name="thorn" format="1">
  <advance width="2106"/>
  <unicode hex="00FE"/>
  <outline>
    <contour>
      <point x="279" y="-752" type="line"/>
      <point x="472" y="-752" type="line"/>
      <point x="472" y="-92" type="line"/>
      <point x="563.18" y="-216"/>
      <point x="685.055" y="-278"/>
      <point x="837.624" y="-278" type="curve" smooth="yes"/>
      <point x="921.582" y="-278"/>
      <point x="993.805" y="-259"/>
      <point x="1056.1" y="-224" type="curve" smooth="yes"/>
      <point x="1237.89" y="-126"/>
      <point x="1356.89" y="83"/>
      <point x="1356.89" y="368" type="curve" smooth="yes"/>
      <point x="1356.89" y="451"/>
      <point x="1344.89" y="529"/>
      <point x="1322.89" y="605" type="curve" smooth="yes"/>
      <point x="1257.89" y="825"/>
      <point x="1095.82" y="983"/>
      <point x="837.624" y="983" type="curve" smooth="yes"/>
      <point x="667" y="983"/>
      <point x="553.25" y="902"/>
      <point x="474.708" y="785" type="curve"/>
      <point x="474.708" y="1458" type="line"/>
      <point x="279" y="1458" type="line"/>
    </contour>
    <contour>
      <point x="812.347" y="-123" type="curve" smooth="yes"/>
      <point x="757.277" y="-123"/>
      <point x="707.625" y="-111"/>
      <point x="666.097" y="-89" type="curve" smooth="yes"/>
      <point x="541.514" y="-22"/>
      <point x="472" y="126"/>
      <point x="472" y="329" type="curve" smooth="yes"/>
      <point x="472" y="609"/>
      <point x="565.889" y="826"/>
      <point x="818.666" y="826" type="curve" smooth="yes"/>
      <point x="1057.9" y="826"/>
      <point x="1150.89" y="624"/>
      <point x="1150.89" y="361" type="curve" smooth="yes"/>
      <point x="1150.89" y="97"/>
      <point x="1052.48" y="-123"/>
    </contour>
  </outline>
</glyph>
<glyph name="hbar" format="1">
  <advance width="1238"/>
  <unicode hex="0127"/>
  <outline>
    <contour>
      <point x="34" y="1154" type="line"/>
      <point x="769" y="1154" type="line"/>
      <point x="769" y="1311" type="line"/>
      <point x="34" y="1311" type="line"/>
    </contour>
    <component base="h"/>
  </outline>
</glyph>
<glyph name="dotlessi" format="1">
  <advance width="731"/>
  <unicode hex="0131"/>
  <outline>
    <contour>
      <point x="747" y="33" type="line"/>
      <point x="487" y="-70"/>
      <point x="197" y="-26"/>
      <point x="197" y="337" type="curve" smooth="yes"/>
      <point x="197" y="1026" type="line"/>
      <point x="439" y="1026" type="line"/>
      <point x="439" y="334" type="line" smooth="yes"/>
      <point x="439" y="158"/>
      <point x="544" y="155"/>
      <point x="716" y="203" type="curve"/>
    </contour>
  </outline>
</glyph>
<glyph name="kgreenlandic" format="1">
  <advance width="1845"/>
  <unicode hex="0138"/>
  <outline>
    <contour>
      <point x="314" y="0" type="line"/>
      <point x="314" y="1205" type="line"/>
      <point x="507" y="1205" type="line"/>
      <point x="507" y="654" type="line"/>
      <point x="1000.82" y="1205" type="line"/>
      <point x="1260.76" y="1205" type="line"/>
      <point x="678.527" y="601" type="line"/>
      <point x="880.749" y="396"/>
      <point x="1080.76" y="204"/>
      <point x="1304.76" y="0" type="curve"/>
      <point x="1047.76" y="0" type="line"/>
      <point x="507" y="553" type="line"/>
      <point x="507" y="0" type="line"/>
    </contour>
  </outline>
</glyph>
<glyph name="Lslash" format="1">
  <advance width="1982"/>
  <unicode hex="0141"/>
  <outline>
    <contour>
      <point x="256" y="0" type="line"/>
      <point x="1279" y="0" type="line"/>
      <point x="1279" y="174" type="line"/>
      <point x="458" y="174" type="line"/>
      <point x="458" y="836" type="line"/>
      <point x="793" y="1045" type="line"/>
      <point x="793" y="1206" type="line"/>
      <point x="458" y="997" type="line"/>
      <point x="458" y="1710" type="line"/>
      <point x="256" y="1710" type="line"/>
      <point x="256" y="871" type="line"/>
      <point x="37" y="735" type="line"/>
      <point x="37" y="574" type="line"/>
      <point x="256" y="710" type="line"/>
    </contour>
  </outline>
</glyph>
<glyph name="lslash" format="1">
  <advance width="885"/>
  <unicode hex="0142"/>
  <outline>
    <contour>
      <point x="197" y="0" type="line"/>
      <point x="197" y="809" type="line"/>
      <point x="0" y="691" type="line"/>
      <point x="0" y="852" type="line"/>
      <point x="197" y="970" type="line"/>
      <point x="197" y="1752" type="line"/>
      <point x="391" y="1752" type="line"/>
      <point x="391" y="1086" type="line"/>
      <point x="592" y="1206" type="line"/>
      <point x="592" y="1045" type="line"/>
      <point x="391" y="925" type="line"/>
      <point x="391" y="0" type="line"/>
    </contour>
  </outline>
</glyph>
<glyph name="oe" format="1">
  <advance width="3353"/>
  <unicode hex="0153"/>
  <outline>
    <contour>
      <point x="730.722" y="-49" type="curve" smooth="yes"/>
      <point x="954.61" y="-49"/>
      <point x="1105.42" y="51"/>
      <point x="1176.42" y="229" type="curve"/>
      <point x="1247.42" y="57"/>
      <point x="1401.42" y="-49"/>
      <point x="1632.42" y="-49" type="curve" smooth="yes"/>
      <point x="1874.42" y="-49"/>
      <point x="2038.42" y="57"/>
      <point x="2131.42" y="225" type="curve"/>
      <point x="2028.42" y="327" type="line"/>
      <point x="1954.42" y="209"/>
      <point x="1825.42" y="112"/>
      <point x="1645.42" y="112" type="curve" smooth="yes"/>
      <point x="1587.42" y="112"/>
      <point x="1536.42" y="122"/>
      <point x="1491.42" y="142" type="curve" smooth="yes"/>
      <point x="1363.42" y="201"/>
      <point x="1288.42" y="332"/>
      <point x="1283.42" y="513" type="curve"/>
      <point x="1283.42" y="536" type="line"/>
      <point x="2103.01" y="538" type="line"/>
      <point x="2103.01" y="600" type="line" smooth="yes"/>
      <point x="2103.01" y="964"/>
      <point x="1936.01" y="1220"/>
      <point x="1604.8" y="1220" type="curve" smooth="yes"/>
      <point x="1391.75" y="1220"/>
      <point x="1262.42" y="1115"/>
      <point x="1182.42" y="948" type="curve"/>
      <point x="1094.42" y="1116"/>
      <point x="964.54" y="1220"/>
      <point x="741.555" y="1220" type="curve" smooth="yes"/>
      <point x="653.083" y="1220"/>
      <point x="573.638" y="1204"/>
      <point x="504.125" y="1170" type="curve"/>
      <point x="309" y="1079"/>
      <point x="162" y="877"/>
      <point x="162" y="581" type="curve" smooth="yes"/>
      <point x="162" y="494"/>
      <point x="176" y="412"/>
      <point x="203" y="335" type="curve" smooth="yes"/>
      <point x="283" y="112"/>
      <point x="459.889" y="-49"/>
    </contour>
    <contour>
      <point x="741.555" y="112" type="curve" smooth="yes"/>
      <point x="677.458" y="112"/>
      <point x="620.583" y="125"/>
      <point x="573.638" y="150" type="curve" smooth="yes"/>
      <point x="442.736" y="219"/>
      <point x="366" y="368"/>
      <point x="366" y="579" type="curve" smooth="yes"/>
      <point x="366" y="643"/>
      <point x="373.222" y="704"/>
      <point x="389.472" y="762" type="curve" smooth="yes"/>
      <point x="433.708" y="925"/>
      <point x="542.944" y="1060"/>
      <point x="732.527" y="1060" type="curve" smooth="yes"/>
      <point x="980.79" y="1060"/>
      <point x="1086.42" y="858"/>
      <point x="1086.42" y="584" type="curve" smooth="yes"/>
      <point x="1086.42" y="321"/>
      <point x="980.79" y="112"/>
    </contour>
    <contour>
      <point x="1283.42" y="698" type="line"/>
      <point x="1287.03" y="745"/>
      <point x="1296.05" y="791"/>
      <point x="1311.4" y="835" type="curve"/>
      <point x="1357.44" y="958"/>
      <point x="1456.75" y="1060"/>
      <point x="1611.12" y="1060" type="curve" smooth="yes"/>
      <point x="1807.03" y="1060"/>
      <point x="1900.01" y="915"/>
      <point x="1900.01" y="698" type="curve"/>
    </contour>
  </outline>
</glyph>
<glyph name="florin" format="1">
  <advance width="2044"/>
  <unicode hex="0192"/>
  <outline>
    <contour>
      <point x="260" y="-585" type="curve" smooth="yes"/>
      <point x="224" y="-585"/>
      <point x="183" y="-579"/>
      <point x="139" y="-566" type="curve"/>
      <point x="153" y="-404" type="line"/>
      <point x="185" y="-417"/>
      <point x="216" y="-422"/>
      <point x="245" y="-422" type="curve" smooth="yes"/>
      <point x="376" y="-422"/>
      <point x="416" y="-294"/>
      <point x="439" y="-187" type="curve"/>
      <point x="506" y="110"/>
      <point x="548" y="437"/>
      <point x="602" y="748" type="curve"/>
      <point x="437" y="748" type="line"/>
      <point x="448" y="912" type="line"/>
      <point x="627" y="912" type="line"/>
      <point x="651" y="1090" type="line"/>
      <point x="679" y="1318"/>
      <point x="767" y="1491"/>
      <point x="1010" y="1491" type="curve" smooth="yes"/>
      <point x="1068" y="1491"/>
      <point x="1125" y="1482"/>
      <point x="1177" y="1469" type="curve"/>
      <point x="1168" y="1299" type="line"/>
      <point x="1129" y="1314"/>
      <point x="1087" y="1324"/>
      <point x="1041" y="1324" type="curve" smooth="yes"/>
      <point x="908" y="1324"/>
      <point x="866" y="1257"/>
      <point x="846" y="1143" type="curve"/>
      <point x="808" y="912" type="line"/>
      <point x="1029" y="912" type="line"/>
      <point x="1018" y="748" type="line"/>
      <point x="784" y="748" type="line"/>
      <point x="649" y="-54" type="line"/>
      <point x="613" y="-255"/>
      <point x="571" y="-451"/>
      <point x="436" y="-541" type="curve" smooth="yes"/>
      <point x="394" y="-570"/>
      <point x="332" y="-585"/>
    </contour>
  </outline>
</glyph>
<glyph name="uni0216" format="1">
  <advance width="2615"/>
  <unicode hex="0216"/>
  <outline>
    <contour>
      <point x="986" y="-39" type="curve" smooth="yes"/>
      <point x="1370" y="-39"/>
      <point x="1596" y="212"/>
      <point x="1598" y="634" type="curve"/>
      <point x="1598" y="1697" type="line"/>
      <point x="1398" y="1697" type="line"/>
      <point x="1398" y="620" type="line" smooth="yes"/>
      <point x="1398" y="315"/>
      <point x="1251" y="132"/>
      <point x="984" y="132" type="curve" smooth="yes"/>
      <point x="696" y="132"/>
      <point x="548" y="293"/>
      <point x="548" y="628" type="curve" smooth="yes"/>
      <point x="548" y="1697" type="line"/>
      <point x="346" y="1697" type="line"/>
      <point x="346" y="623" type="line" smooth="yes"/>
      <point x="346" y="172"/>
      <point x="579" y="-39"/>
    </contour>
    <contour>
      <point x="673" y="1922" type="curve"/>
      <point x="764" y="1922" type="line"/>
      <point x="780" y="2025"/>
      <point x="858" y="2073"/>
      <point x="966" y="2073" type="curve" smooth="yes"/>
      <point x="1074" y="2073"/>
      <point x="1158" y="2021"/>
      <point x="1179" y="1922" type="curve"/>
      <point x="1270" y="1922" type="line"/>
      <point x="1256" y="2103"/>
      <point x="1149" y="2199"/>
      <point x="974" y="2199" type="curve" smooth="yes"/>
      <point x="793" y="2199"/>
      <point x="687" y="2110"/>
    </contour>
  </outline>
</glyph>
<glyph name="uni0217" format="1">
  <advance width="2053"/>
  <unicode hex="0217"/>
  <outline>
    <contour>
      <point x="662.888" y="-39" type="curve" smooth="yes"/>
      <point x="830.805" y="-39"/>
      <point x="962.61" y="35"/>
      <point x="1047.46" y="180" type="curve"/>
      <point x="1079.46" y="50"/>
      <point x="1206.46" y="-17"/>
      <point x="1320.46" y="-17" type="curve"/>
      <point x="1360.46" y="150" type="line"/>
      <point x="1299.46" y="150"/>
      <point x="1203.46" y="186"/>
      <point x="1203.46" y="323" type="curve" smooth="yes"/>
      <point x="1203.46" y="1192" type="line"/>
      <point x="1010.46" y="1192" type="line"/>
      <point x="1010.46" y="488" type="line" smooth="yes"/>
      <point x="1010.46" y="258"/>
      <point x="864.207" y="124"/>
      <point x="689.069" y="124" type="curve" smooth="yes"/>
      <point x="561.778" y="124"/>
      <point x="433" y="186"/>
      <point x="439" y="416" type="curve"/>
      <point x="444.417" y="686" type="line"/>
      <point x="454.347" y="1057"/>
      <point x="400" y="1192"/>
      <point x="400" y="1192" type="curve"/>
      <point x="206" y="1161" type="line"/>
      <point x="206" y="1161"/>
      <point x="262" y="1010"/>
      <point x="252" y="671" type="curve" smooth="yes"/>
      <point x="245" y="416" type="line" smooth="yes"/>
      <point x="236" y="81"/>
      <point x="457.958" y="-39"/>
    </contour>
    <contour>
      <point x="442.611" y="1417" type="curve"/>
      <point x="534.694" y="1417" type="line"/>
      <point x="550.944" y="1520"/>
      <point x="628.583" y="1569"/>
      <point x="736.916" y="1569" type="curve" smooth="yes"/>
      <point x="845.249" y="1569"/>
      <point x="928.305" y="1515"/>
      <point x="949.068" y="1417" type="curve"/>
      <point x="1043.46" y="1417" type="line"/>
      <point x="1028.46" y="1598"/>
      <point x="920.18" y="1694"/>
      <point x="744.138" y="1694" type="curve" smooth="yes"/>
      <point x="563.583" y="1694"/>
      <point x="456.153" y="1604"/>
    </contour>
  </outline>
</glyph>
<glyph name="uni0237" format="1">
  <advance width="885"/>
  <unicode hex="0237"/>
  <outline>
    <contour>
      <point x="-35" y="-756" type="curve" smooth="yes"/>
      <point x="19" y="-756"/>
      <point x="65" y="-747"/>
      <point x="105" y="-730" type="curve" smooth="yes"/>
      <point x="287" y="-650"/>
      <point x="339" y="-428"/>
      <point x="339" y="-166" type="curve" smooth="yes"/>
      <point x="339" y="953" type="line"/>
      <point x="145" y="953" type="line"/>
      <point x="145" y="-216" type="line" smooth="yes"/>
      <point x="145" y="-423"/>
      <point x="102" y="-585"/>
      <point x="-81" y="-585" type="curve" smooth="yes"/>
      <point x="-116" y="-585"/>
      <point x="-145" y="-578"/>
      <point x="-180" y="-573" type="curve"/>
      <point x="-179" y="-740" type="line"/>
      <point x="-134" y="-750"/>
      <point x="-87" y="-756"/>
    </contour>
  </outline>
</glyph>
<glyph name="circumflex" format="1">
  <advance width="1202"/>
  <unicode hex="02C6"/>
  <outline>
    <contour>
      <point x="313.602" y="2442" type="line"/>
      <point x="27" y="2061" type="line"/>
      <point x="245" y="2061" type="line"/>
      <point x="396.657" y="2245" type="line"/>
      <point x="542.119" y="2061" type="line"/>
      <point x="768.119" y="2061" type="line"/>
      <point x="479.713" y="2442" type="line"/>
    </contour>
  </outline>
</glyph>
<glyph name="caron" format="1">
  <advance width="1215"/>
  <unicode hex="02C7"/>
  <outline>
    <contour>
      <point x="339" y="2061" type="line"/>
      <point x="61" y="2440" type="line"/>
      <point x="234" y="2440" type="line"/>
      <point x="414" y="2187" type="line"/>
      <point x="598" y="2440" type="line"/>
      <point x="780" y="2440" type="line"/>
      <point x="503" y="2061" type="line"/>
    </contour>
  </outline>
</glyph>
<glyph name="breve" format="1">
  <advance width="1106"/>
  <unicode hex="02D8"/>
  <outline>
    <contour>
      <point x="576" y="1202" type="curve" smooth="yes"/>
      <point x="381" y="1202"/>
      <point x="263" y="1292"/>
      <point x="248" y="1480" type="curve"/>
      <point x="350" y="1480" type="line"/>
      <point x="367" y="1377"/>
      <point x="453" y="1328"/>
      <point x="568" y="1328" type="curve" smooth="yes"/>
      <point x="683" y="1328"/>
      <point x="775" y="1381"/>
      <point x="798" y="1480" type="curve"/>
      <point x="900" y="1480" type="line"/>
      <point x="885" y="1299"/>
      <point x="766" y="1202"/>
    </contour>
  </outline>
</glyph>
<glyph name="ring" format="1">
  <advance width="1075"/>
  <unicode hex="02DA"/>
  <outline>
    <contour>
      <point x="413" y="2124" type="curve" smooth="yes"/>
      <point x="337" y="2124"/>
      <point x="284" y="2172"/>
      <point x="284" y="2248" type="curve" smooth="yes"/>
      <point x="284" y="2319"/>
      <point x="342" y="2371"/>
      <point x="413" y="2371" type="curve" smooth="yes"/>
      <point x="486" y="2371"/>
      <point x="544" y="2320"/>
      <point x="544" y="2248" type="curve" smooth="yes"/>
      <point x="544" y="2177"/>
      <point x="484" y="2124"/>
    </contour>
    <contour>
      <point x="416" y="2024" type="curve" smooth="yes"/>
      <point x="517" y="2024"/>
      <point x="661" y="2094"/>
      <point x="661" y="2248" type="curve" smooth="yes"/>
      <point x="661" y="2356"/>
      <point x="573" y="2471"/>
      <point x="415" y="2471" type="curve" smooth="yes"/>
      <point x="309" y="2471"/>
      <point x="168" y="2403"/>
      <point x="168" y="2246" type="curve" smooth="yes"/>
      <point x="168" y="2138"/>
      <point x="255" y="2024"/>
    </contour>
  </outline>
</glyph>
<glyph name="ogonek" format="1">
  <advance width="894"/>
  <unicode hex="02DB"/>
  <outline>
    <contour>
      <point x="341" y="-687" type="curve" smooth="yes"/>
      <point x="416" y="-687"/>
      <point x="495" y="-675"/>
      <point x="548" y="-653" type="curve"/>
      <point x="548" y="-523" type="line"/>
      <point x="495" y="-544"/>
      <point x="443" y="-559"/>
      <point x="367" y="-559" type="curve" smooth="yes"/>
      <point x="307" y="-559"/>
      <point x="250" y="-523"/>
      <point x="250" y="-463" type="curve" smooth="yes"/>
      <point x="250" y="-444"/>
      <point x="255" y="-425"/>
      <point x="267" y="-406" type="curve" smooth="yes"/>
      <point x="317" y="-330"/>
      <point x="407" y="-279"/>
      <point x="488" y="-229" type="curve"/>
      <point x="337" y="-215" type="line"/>
      <point x="273" y="-246"/>
      <point x="209" y="-287"/>
      <point x="163" y="-334" type="curve" smooth="yes"/>
      <point x="124" y="-373"/>
      <point x="84" y="-425"/>
      <point x="84" y="-494" type="curve" smooth="yes"/>
      <point x="84" y="-525"/>
      <point x="92" y="-553"/>
      <point x="104" y="-576" type="curve" smooth="yes"/>
      <point x="144" y="-648"/>
      <point x="230" y="-687"/>
    </contour>
  </outline>
</glyph>
<glyph name="tilde" format="1">
  <advance width="1141"/>
  <unicode hex="02DC"/>
  <outline>
    <contour>
      <point x="25" y="2119" type="curve"/>
      <point x="148" y="2119" type="line"/>
      <point x="157" y="2185"/>
      <point x="191" y="2219"/>
      <point x="255" y="2219" type="curve" smooth="yes"/>
      <point x="357.644" y="2219"/>
      <point x="422.643" y="2139"/>
      <point x="526.286" y="2139" type="curve" smooth="yes"/>
      <point x="671.286" y="2139"/>
      <point x="740.286" y="2259"/>
      <point x="755.286" y="2392" type="curve"/>
      <point x="628.286" y="2392" type="line"/>
      <point x="620.286" y="2332"/>
      <point x="588.286" y="2286"/>
      <point x="526.286" y="2286" type="curve" smooth="yes"/>
      <point x="504.796" y="2286"/>
      <point x="482.227" y="2290"/>
      <point x="461.463" y="2299" type="curve" smooth="yes"/>
      <point x="400.074" y="2323"/>
      <point x="339.588" y="2366"/>
      <point x="258" y="2366" type="curve" smooth="yes"/>
      <point x="113" y="2366"/>
      <point x="36" y="2255"/>
    </contour>
  </outline>
</glyph>
<glyph name="hungarumlaut" format="1">
  <advance width="1684"/>
  <unicode hex="02DD"/>
  <outline>
    <contour>
      <point x="296" y="2067" type="line"/>
      <point x="549" y="2435" type="line"/>
      <point x="736" y="2435" type="line"/>
      <point x="434" y="2067" type="line"/>
    </contour>
    <contour>
      <point x="602" y="2067" type="line"/>
      <point x="839" y="2435" type="line"/>
      <point x="1046" y="2435" type="line"/>
      <point x="730" y="2067" type="line"/>
    </contour>
  </outline>
</glyph>
<glyph name="gravecomb" format="1">
  <advance width="1054"/>
  <unicode hex="0300"/>
  <outline>
    <contour>
      <point x="540" y="1202" type="line"/>
      <point x="210" y="1520" type="line"/>
      <point x="483" y="1520" type="line"/>
      <point x="729" y="1202" type="line"/>
    </contour>
  </outline>
</glyph>
<glyph name="uni0307" format="1">
  <advance width="932"/>
  <unicode hex="0307"/>
  <outline>
    <contour>
      <point x="334" y="2195" type="line"/>
      <point x="523" y="2195" type="line"/>
      <point x="523" y="2386" type="line"/>
      <point x="334" y="2386" type="line"/>
    </contour>
  </outline>
</glyph>
<glyph name="dblgravecmb" format="1">
  <advance width="1674"/>
  <unicode hex="030F"/>
  <outline>
    <contour>
      <point x="602.394" y="2067" type="line"/>
      <point x="286" y="2435" type="line"/>
      <point x="492" y="2435" type="line"/>
      <point x="729.685" y="2067" type="line"/>
    </contour>
    <contour>
      <point x="897.147" y="2067" type="line"/>
      <point x="596.074" y="2435" type="line"/>
      <point x="782.046" y="2435" type="line"/>
      <point x="1036.15" y="2067" type="line"/>
    </contour>
  </outline>
</glyph>
<glyph name="uni0311" format="1">
  <advance width="1106"/>
  <unicode hex="0311"/>
  <outline>
    <contour>
      <point x="67" y="2145" type="line"/>
      <point x="82" y="2333"/>
      <point x="200" y="2423"/>
      <point x="395" y="2423" type="curve" smooth="yes"/>
      <point x="585" y="2423"/>
      <point x="704" y="2326"/>
      <point x="719" y="2145" type="curve"/>
      <point x="617" y="2145" type="line"/>
      <point x="594" y="2244"/>
      <point x="502" y="2297"/>
      <point x="387" y="2297" type="curve" smooth="yes"/>
      <point x="272" y="2297"/>
      <point x="186" y="2249"/>
      <point x="169" y="2145" type="curve"/>
    </contour>
  </outline>
</glyph>
<glyph name="commaaccentcomb" format="1">
  <advance width="961"/>
  <unicode hex="0326"/>
  <outline>
    <contour>
      <point x="148" y="-1101" type="line"/>
      <point x="302" y="-1101" type="line"/>
      <point x="492" y="-557" type="line"/>
      <point x="273" y="-557" type="line"/>
    </contour>
  </outline>
</glyph>
<glyph name="Delta" format="1">
  <advance width="2314"/>
  <unicode hex="0394"/>
  <outline>
    <contour>
      <point x="71" y="0" type="line"/>
      <point x="1507" y="0" type="line"/>
      <point x="1507" y="94" type="line"/>
      <point x="896" y="1678" type="line"/>
      <point x="682" y="1678" type="line"/>
      <point x="71" y="94" type="line"/>
    </contour>
    <contour>
      <point x="340" y="190" type="line"/>
      <point x="746" y="1305" type="line"/>
      <point x="783" y="1430" type="line"/>
      <point x="823" y="1305" type="line"/>
      <point x="1237" y="190" type="line"/>
    </contour>
  </outline>
</glyph>
<glyph name="uni03BC" format="1">
  <advance width="2143"/>
  <unicode hex="03BC"/>
  <outline>
    <contour>
      <point x="277" y="-356" type="line"/>
      <point x="470" y="-356" type="line"/>
      <point x="470" y="-83" type="line"/>
      <point x="537" y="-123"/>
      <point x="620" y="-145"/>
      <point x="727" y="-145" type="curve" smooth="yes"/>
      <point x="901" y="-145"/>
      <point x="1033" y="-83"/>
      <point x="1123" y="40" type="curve"/>
      <point x="1127" y="-119" type="line"/>
      <point x="1326" y="-119" type="line"/>
      <point x="1318" y="-20"/>
      <point x="1317" y="64"/>
      <point x="1317" y="170" type="curve" smooth="yes"/>
      <point x="1317" y="1086" type="line"/>
      <point x="1123" y="1086" type="line"/>
      <point x="1123" y="393" type="line" smooth="yes"/>
      <point x="1123" y="341"/>
      <point x="1115" y="292"/>
      <point x="1100" y="245" type="curve" smooth="yes"/>
      <point x="1055" y="111"/>
      <point x="948" y="9"/>
      <point x="771" y="9" type="curve" smooth="yes"/>
      <point x="557" y="9"/>
      <point x="470" y="132"/>
      <point x="470" y="350" type="curve" smooth="yes"/>
      <point x="470" y="1086" type="line"/>
      <point x="277" y="1086" type="line"/>
    </contour>
  </outline>
</glyph>
<glyph name="endash" format="1">
  <advance width="1832"/>
  <unicode hex="2013"/>
  <outline>
    <contour>
      <point x="-10" y="861" type="line"/>
      <point x="-10" y="1022" type="line"/>
      <point x="1192.44" y="1022" type="line"/>
      <point x="1192.44" y="861" type="line"/>
    </contour>
  </outline>
</glyph>
<glyph name="emdash" format="1">
  <advance width="3623"/>
  <unicode hex="2014"/>
  <outline>
    <contour>
      <point x="-5" y="861" type="line"/>
      <point x="-5" y="1022" type="line"/>
      <point x="2334.93" y="1022" type="line"/>
      <point x="2334.93" y="861" type="line"/>
    </contour>
  </outline>
</glyph>
<glyph name="quoteleft" format="1">
  <advance width="984"/>
  <unicode hex="2018"/>
  <outline>
    <contour>
      <point x="575" y="1560" type="line"/>
      <point x="453" y="1043" type="line"/>
      <point x="239" y="1043" type="line"/>
      <point x="420" y="1560" type="line"/>
    </contour>
  </outline>
</glyph>
<glyph name="quoteright" format="1">
  <advance width="984"/>
  <unicode hex="2019"/>
  <outline>
    <contour>
      <point x="257" y="939" type="line"/>
      <point x="380" y="1456" type="line"/>
      <point x="592" y="1456" type="line"/>
      <point x="412" y="939" type="line"/>
    </contour>
  </outline>
</glyph>
<glyph name="quotesinglbase" format="1">
  <advance width="974"/>
  <unicode hex="201A"/>
  <outline>
    <contour>
      <point x="220" y="-419" type="line"/>
      <point x="345" y="96" type="line"/>
      <point x="557" y="96" type="line"/>
      <point x="376" y="-419" type="line"/>
    </contour>
  </outline>
</glyph>
<glyph name="quotedblleft" format="1">
  <advance width="1777"/>
  <unicode hex="201C"/>
  <outline>
    <contour>
      <point x="316" y="1802" type="line"/>
      <point x="496" y="2319" type="line"/>
      <point x="643.227" y="2319" type="line"/>
      <point x="529" y="1802" type="line"/>
    </contour>
    <contour>
      <point x="709.13" y="1802" type="line"/>
      <point x="881.258" y="2319" type="line"/>
      <point x="1037.26" y="2319" type="line"/>
      <point x="915.258" y="1802" type="line"/>
    </contour>
  </outline>
</glyph>
<glyph name="quotedblright" format="1">
  <advance width="1779"/>
  <unicode hex="201D"/>
  <outline>
    <contour>
      <point x="366" y="1802" type="line"/>
      <point x="488" y="2319" type="line"/>
      <point x="694.13" y="2319" type="line"/>
      <point x="522" y="1802" type="line"/>
    </contour>
    <contour>
      <point x="735.657" y="1802" type="line"/>
      <point x="850.786" y="2319" type="line"/>
      <point x="1063.79" y="2319" type="line"/>
      <point x="883.786" y="1802" type="line"/>
    </contour>
  </outline>
</glyph>
<glyph name="quotedblbase" format="1">
  <advance width="1786"/>
  <unicode hex="201E"/>
  <outline>
    <contour>
      <point x="324" y="-419" type="line"/>
      <point x="447" y="96" type="line"/>
      <point x="651" y="96" type="line"/>
      <point x="481" y="-419" type="line"/>
    </contour>
    <contour>
      <point x="728" y="-419" type="line"/>
      <point x="841" y="96" type="line"/>
      <point x="1056" y="96" type="line"/>
      <point x="875" y="-419" type="line"/>
    </contour>
  </outline>
</glyph>
<glyph name="dagger" format="1">
  <advance width="1769"/>
  <unicode hex="2020"/>
  <outline>
    <contour>
      <point x="568" y="199" type="line"/>
      <point x="568" y="1163" type="line"/>
      <point x="198" y="1163" type="line"/>
      <point x="198" y="1318" type="line"/>
      <point x="568" y="1318" type="line"/>
      <point x="568" y="1770" type="line"/>
      <point x="724" y="1770" type="line"/>
      <point x="724" y="1318" type="line"/>
      <point x="1113" y="1318" type="line"/>
      <point x="1113" y="1163" type="line"/>
      <point x="710" y="1163" type="line"/>
      <point x="710" y="199" type="line"/>
    </contour>
  </outline>
</glyph>
<glyph name="daggerdbl" format="1">
  <advance width="1776"/>
  <unicode hex="2021"/>
  <outline>
    <contour>
      <point x="551" y="199" type="line"/>
      <point x="571" y="577" type="line"/>
      <point x="183" y="577" type="line"/>
      <point x="183" y="726" type="line"/>
      <point x="571" y="726" type="line"/>
      <point x="571" y="1220" type="line"/>
      <point x="190" y="1220" type="line"/>
      <point x="190" y="1376" type="line"/>
      <point x="579" y="1376" type="line"/>
      <point x="550" y="1770" type="line"/>
      <point x="745" y="1770" type="line"/>
      <point x="723" y="1376" type="line"/>
      <point x="1112" y="1376" type="line"/>
      <point x="1112" y="1220" type="line"/>
      <point x="716" y="1220" type="line"/>
      <point x="716" y="726" type="line"/>
      <point x="1104" y="726" type="line"/>
      <point x="1104" y="577" type="line"/>
      <point x="716" y="577" type="line"/>
      <point x="740" y="199" type="line"/>
    </contour>
  </outline>
</glyph>
<glyph name="ellipsis" format="1">
  <advance width="2772"/>
  <unicode hex="2026"/>
  <outline>
    <contour>
      <point x="290" y="-20" type="line"/>
      <point x="290" y="227" type="line"/>
      <point x="544" y="227" type="line"/>
      <point x="544" y="-20" type="line"/>
    </contour>
    <contour>
      <point x="887" y="-20" type="line"/>
      <point x="887" y="227" type="line"/>
      <point x="1126" y="227" type="line"/>
      <point x="1126" y="-20" type="line"/>
    </contour>
    <contour>
      <point x="1468" y="-20" type="line"/>
      <point x="1468" y="227" type="line"/>
      <point x="1723" y="227" type="line"/>
      <point x="1723" y="-20" type="line"/>
    </contour>
  </outline>
</glyph>
<glyph name="perthousand" format="1">
  <advance width="4109"/>
  <unicode hex="2030"/>
  <outline>
    <contour>
      <point x="2279" y="85" type="curve" smooth="yes"/>
      <point x="2420" y="85"/>
      <point x="2483" y="213"/>
      <point x="2483" y="368" type="curve" smooth="yes"/>
      <point x="2483" y="525"/>
      <point x="2420" y="650"/>
      <point x="2278" y="650" type="curve" smooth="yes"/>
      <point x="2136" y="650"/>
      <point x="2072" y="526"/>
      <point x="2072" y="370" type="curve" smooth="yes"/>
      <point x="2072" y="210"/>
      <point x="2136" y="85"/>
    </contour>
    <contour>
      <point x="1410" y="85" type="curve" smooth="yes"/>
      <point x="1549" y="85"/>
      <point x="1615" y="214"/>
      <point x="1615" y="368" type="curve" smooth="yes"/>
      <point x="1615" y="528"/>
      <point x="1553" y="650"/>
      <point x="1410" y="650" type="curve" smooth="yes"/>
      <point x="1268" y="650"/>
      <point x="1204" y="526"/>
      <point x="1204" y="370" type="curve" smooth="yes"/>
      <point x="1204" y="210"/>
      <point x="1267" y="85"/>
    </contour>
    <contour>
      <point x="310" y="1271" type="curve" smooth="yes"/>
      <point x="310" y="1111"/>
      <point x="379" y="986"/>
      <point x="539" y="986" type="curve" smooth="yes"/>
      <point x="693" y="986"/>
      <point x="762" y="1115"/>
      <point x="762" y="1268" type="curve" smooth="yes"/>
      <point x="762" y="1426"/>
      <point x="692" y="1551"/>
      <point x="535" y="1551" type="curve" smooth="yes"/>
      <point x="381" y="1551"/>
      <point x="310" y="1425"/>
    </contour>
    <contour>
      <point x="520" y="-40" type="line"/>
      <point x="341" y="-40" type="line"/>
      <point x="1419" y="1670" type="line"/>
      <point x="1577" y="1670" type="line"/>
    </contour>
    <contour>
      <point x="2275" y="-47" type="curve" smooth="yes"/>
      <point x="2042" y="-47"/>
      <point x="1902" y="115"/>
      <point x="1902" y="370" type="curve" smooth="yes"/>
      <point x="1902" y="564"/>
      <point x="1992" y="694"/>
      <point x="2125" y="752" type="curve"/>
      <point x="2169" y="774"/>
      <point x="2222" y="784"/>
      <point x="2280" y="784" type="curve" smooth="yes"/>
      <point x="2517" y="784"/>
      <point x="2652" y="624"/>
      <point x="2652" y="366" type="curve" smooth="yes"/>
      <point x="2652" y="173"/>
      <point x="2559" y="42"/>
      <point x="2427" y="-15" type="curve"/>
      <point x="2383" y="-37"/>
      <point x="2333" y="-47"/>
    </contour>
    <contour>
      <point x="1407" y="-47" type="curve" smooth="yes"/>
      <point x="1174" y="-47"/>
      <point x="1033" y="115"/>
      <point x="1033" y="370" type="curve" smooth="yes"/>
      <point x="1033" y="564"/>
      <point x="1123" y="694"/>
      <point x="1256" y="752" type="curve"/>
      <point x="1300" y="774"/>
      <point x="1353" y="784"/>
      <point x="1411" y="784" type="curve" smooth="yes"/>
      <point x="1647" y="784"/>
      <point x="1783" y="622"/>
      <point x="1783" y="366" type="curve" smooth="yes"/>
      <point x="1783" y="172"/>
      <point x="1692" y="43"/>
      <point x="1560" y="-15" type="curve"/>
      <point x="1515" y="-37"/>
      <point x="1465" y="-47"/>
    </contour>
    <contour>
      <point x="535" y="853" type="curve" smooth="yes"/>
      <point x="279" y="853"/>
      <point x="139" y="1015"/>
      <point x="139" y="1270" type="curve" smooth="yes"/>
      <point x="139" y="1464"/>
      <point x="230" y="1594"/>
      <point x="368" y="1651" type="curve"/>
      <point x="417" y="1673"/>
      <point x="473" y="1683"/>
      <point x="537" y="1683" type="curve" smooth="yes"/>
      <point x="795" y="1683"/>
      <point x="933" y="1525"/>
      <point x="933" y="1266" type="curve" smooth="yes"/>
      <point x="933" y="1074"/>
      <point x="840" y="941"/>
      <point x="702" y="884" type="curve"/>
      <point x="653" y="862"/>
      <point x="597" y="853"/>
    </contour>
  </outline>
</glyph>
<glyph name="guilsinglleft" format="1">
  <advance width="1140"/>
  <unicode hex="2039"/>
  <outline>
    <contour>
      <point x="511" y="301" type="line"/>
      <point x="195" y="735" type="line"/>
      <point x="517" y="1174" type="line"/>
      <point x="703" y="1174" type="line"/>
      <point x="394" y="735" type="line"/>
      <point x="694" y="301" type="line"/>
    </contour>
  </outline>
</glyph>
<glyph name="guilsinglright" format="1">
  <advance width="1130"/>
  <unicode hex="203A"/>
  <outline>
    <contour>
      <point x="373" y="1174" type="line"/>
      <point x="691" y="737" type="line"/>
      <point x="366" y="301" type="line"/>
      <point x="181" y="301" type="line"/>
      <point x="489" y="737" type="line"/>
      <point x="191" y="1174" type="line"/>
    </contour>
  </outline>
</glyph>
<glyph name="fraction" format="1">
  <advance width="574"/>
  <unicode hex="2044"/>
  <outline>
    <contour>
      <point x="-593" y="0" type="line"/>
      <point x="396.521" y="1686" type="line"/>
      <point x="571.521" y="1686" type="line"/>
      <point x="-416" y="0" type="line"/>
    </contour>
  </outline>
</glyph>
<glyph name="uni2074" format="1">
  <advance width="1564"/>
  <unicode hex="2074"/>
  <outline>
    <contour>
      <point x="833" y="545" type="line"/>
      <point x="833" y="766" type="line"/>
      <point x="408" y="766" type="line"/>
      <point x="408" y="872" type="line"/>
      <point x="820" y="1480" type="line"/>
      <point x="973" y="1480" type="line"/>
      <point x="973" y="891" type="line"/>
      <point x="1100" y="891" type="line"/>
      <point x="1112" y="766" type="line"/>
      <point x="970" y="766" type="line"/>
      <point x="970" y="545" type="line"/>
    </contour>
    <contour>
      <point x="572" y="891" type="line"/>
      <point x="833" y="891" type="line"/>
      <point x="833" y="1283" type="line"/>
    </contour>
  </outline>
</glyph>
<glyph name="Euro" format="1">
  <advance width="2105"/>
  <unicode hex="20AC"/>
  <outline>
    <contour>
      <point x="936" y="-37" type="curve" smooth="yes"/>
      <point x="1099" y="-37"/>
      <point x="1222" y="5"/>
      <point x="1326" y="76" type="curve"/>
      <point x="1327" y="285" type="line"/>
      <point x="1223" y="204"/>
      <point x="1111" y="134"/>
      <point x="955" y="134" type="curve" smooth="yes"/>
      <point x="664" y="134"/>
      <point x="549" y="336"/>
      <point x="515" y="593" type="curve"/>
      <point x="1151" y="593" type="line"/>
      <point x="1174" y="755" type="line"/>
      <point x="498" y="755" type="line"/>
      <point x="496" y="812" type="line"/>
      <point x="494" y="834"/>
      <point x="493" y="860"/>
      <point x="494" y="882" type="curve"/>
      <point x="494" y="895" type="line" smooth="yes"/>
      <point x="494" y="899"/>
      <point x="496" y="905"/>
      <point x="497" y="908" type="curve"/>
      <point x="1189" y="908" type="line"/>
      <point x="1213" y="1070" type="line"/>
      <point x="518" y="1070" type="line"/>
      <point x="567" y="1299"/>
      <point x="689" y="1518"/>
      <point x="965" y="1518" type="curve" smooth="yes"/>
      <point x="1127" y="1518"/>
      <point x="1239" y="1435"/>
      <point x="1310" y="1328" type="curve"/>
      <point x="1352" y="1550" type="line"/>
      <point x="1261" y="1636"/>
      <point x="1144" y="1688"/>
      <point x="974" y="1688" type="curve" smooth="yes"/>
      <point x="881" y="1688"/>
      <point x="796" y="1673"/>
      <point x="722" y="1643" type="curve" smooth="yes"/>
      <point x="496" y="1550"/>
      <point x="359" y="1342"/>
      <point x="310" y="1070" type="curve"/>
      <point x="168" y="1070" type="line"/>
      <point x="142" y="908" type="line"/>
      <point x="288" y="908" type="line"/>
      <point x="287" y="881"/>
      <point x="285" y="858"/>
      <point x="285" y="832" type="curve" smooth="yes"/>
      <point x="285" y="802"/>
      <point x="287" y="777"/>
      <point x="290" y="755" type="curve"/>
      <point x="169" y="755" type="line"/>
      <point x="146" y="593" type="line"/>
      <point x="304" y="593" type="line"/>
      <point x="349" y="233"/>
      <point x="532" y="-37"/>
    </contour>
  </outline>
</glyph>
<glyph name="trademark" format="1">
  <advance width="3165"/>
  <unicode hex="2122"/>
  <outline>
    <contour>
      <point x="951" y="1208" type="line"/>
      <point x="951" y="2107" type="line"/>
      <point x="1153" y="2107" type="line"/>
      <point x="1403" y="1459" type="line"/>
      <point x="1672" y="2107" type="line"/>
      <point x="1882" y="2107" type="line"/>
      <point x="1882" y="1208" type="line"/>
      <point x="1739" y="1208" type="line"/>
      <point x="1739" y="1907" type="line"/>
      <point x="1439" y="1208" type="line"/>
      <point x="1354" y="1208" type="line"/>
      <point x="1080" y="1906" type="line"/>
      <point x="1080" y="1208" type="line"/>
    </contour>
    <contour>
      <point x="426" y="1208" type="line"/>
      <point x="426" y="1988" type="line"/>
      <point x="133" y="1988" type="line"/>
      <point x="133" y="2107" type="line"/>
      <point x="832" y="2107" type="line"/>
      <point x="832" y="1988" type="line"/>
      <point x="557" y="1988" type="line"/>
      <point x="557" y="1208" type="line"/>
    </contour>
  </outline>
</glyph>
<glyph name="partialdiff" format="1">
  <advance width="1983"/>
  <unicode hex="2202"/>
  <outline>
    <contour>
      <point x="599.583" y="-42" type="curve" smooth="yes"/>
      <point x="668.194" y="-42"/>
      <point x="733.194" y="-29"/>
      <point x="790.069" y="-1" type="curve" smooth="yes"/>
      <point x="911.041" y="57"/>
      <point x="1001.08" y="157"/>
      <point x="1072.08" y="282" type="curve" smooth="yes"/>
      <point x="1176.08" y="464"/>
      <point x="1240.08" y="703"/>
      <point x="1240.08" y="986" type="curve" smooth="yes"/>
      <point x="1240.08" y="1124"/>
      <point x="1227.08" y="1242"/>
      <point x="1200.08" y="1343" type="curve" smooth="yes"/>
      <point x="1133.08" y="1598"/>
      <point x="981.457" y="1786"/>
      <point x="700.694" y="1786" type="curve" smooth="yes"/>
      <point x="571.597" y="1786"/>
      <point x="454.236" y="1738"/>
      <point x="374.792" y="1679" type="curve"/>
      <point x="385.625" y="1517" type="line"/>
      <point x="459.653" y="1572"/>
      <point x="556.25" y="1629"/>
      <point x="676.319" y="1629" type="curve" smooth="yes"/>
      <point x="733.194" y="1629"/>
      <point x="781.041" y="1616"/>
      <point x="826.18" y="1590" type="curve" smooth="yes"/>
      <point x="969.721" y="1504"/>
      <point x="1039.08" y="1305"/>
      <point x="1039.08" y="1056" type="curve" smooth="yes"/>
      <point x="1039.08" y="1031"/>
      <point x="1038.08" y="991"/>
      <point x="1038.08" y="968" type="curve"/>
      <point x="959.79" y="1075"/>
      <point x="856.874" y="1163"/>
      <point x="698.888" y="1163" type="curve" smooth="yes"/>
      <point x="623.958" y="1163"/>
      <point x="556.25" y="1144"/>
      <point x="491.25" y="1109" type="curve" smooth="yes"/>
      <point x="299" y="1008"/>
      <point x="146" y="786"/>
      <point x="146" y="479" type="curve" smooth="yes"/>
      <point x="146" y="405"/>
      <point x="156" y="337"/>
      <point x="176" y="273" type="curve" smooth="yes"/>
      <point x="236" y="87"/>
      <point x="379.305" y="-42"/>
    </contour>
    <contour>
      <point x="602.291" y="116" type="curve" smooth="yes"/>
      <point x="562.569" y="116"/>
      <point x="526.458" y="125"/>
      <point x="495.764" y="142" type="curve" smooth="yes"/>
      <point x="398.264" y="195"/>
      <point x="345" y="315"/>
      <point x="345" y="476" type="curve" smooth="yes"/>
      <point x="345" y="628"/>
      <point x="391.042" y="759"/>
      <point x="453.333" y="848" type="curve" smooth="yes"/>
      <point x="511.111" y="931"/>
      <point x="601.388" y="1006"/>
      <point x="723.263" y="1006" type="curve" smooth="yes"/>
      <point x="760.277" y="1006"/>
      <point x="793.68" y="1000"/>
      <point x="824.374" y="986" type="curve" smooth="yes"/>
      <point x="916.457" y="945"/>
      <point x="981.457" y="860"/>
      <point x="1018.08" y="755" type="curve"/>
      <point x="998.077" y="581"/>
      <point x="947.152" y="419"/>
      <point x="877.638" y="304" type="curve" smooth="yes"/>
      <point x="819.86" y="209"/>
      <point x="732.291" y="116"/>
    </contour>
  </outline>
</glyph>
<glyph name="product" format="1">
  <advance width="2663"/>
  <unicode hex="220F"/>
  <outline>
    <contour>
      <point x="359" y="-580" type="line"/>
      <point x="359" y="1307" type="line"/>
      <point x="212" y="1307" type="line"/>
      <point x="194" y="1477" type="line"/>
      <point x="1677.05" y="1477" type="line"/>
      <point x="1658.05" y="1307" type="line"/>
      <point x="1526.05" y="1307" type="line"/>
      <point x="1526.05" y="-580" type="line"/>
      <point x="1323.91" y="-580" type="line"/>
      <point x="1323.91" y="1307" type="line"/>
      <point x="556.546" y="1307" type="line"/>
      <point x="556.546" y="-580" type="line"/>
    </contour>
  </outline>
</glyph>
<glyph name="summation" format="1">
  <advance width="2139"/>
  <unicode hex="2211"/>
  <outline>
    <contour>
      <point x="101" y="-580" type="line"/>
      <point x="101" y="-474" type="line"/>
      <point x="801.976" y="455" type="line"/>
      <point x="126" y="1367" type="line"/>
      <point x="126" y="1477" type="line"/>
      <point x="1328.08" y="1477" type="line"/>
      <point x="1328.08" y="1311" type="line"/>
      <point x="408.366" y="1311" type="line"/>
      <point x="1015.94" y="465" type="line"/>
      <point x="374.963" y="-406" type="line"/>
      <point x="1381.08" y="-406" type="line"/>
      <point x="1381.08" y="-580" type="line"/>
    </contour>
  </outline>
</glyph>
<glyph name="minus" format="1">
  <advance width="1115"/>
  <unicode hex="2212"/>
  <outline>
    <contour>
      <point x="168" y="640" type="line"/>
      <point x="168" y="837" type="line"/>
      <point x="947" y="837" type="line"/>
      <point x="947" y="640" type="line"/>
    </contour>
  </outline>
</glyph>
<glyph name="infinity" format="1">
  <advance width="2901"/>
  <unicode hex="221E"/>
  <outline>
    <contour>
      <point x="1431" y="556" type="curve" smooth="yes"/>
      <point x="1591" y="556"/>
      <point x="1664" y="685"/>
      <point x="1664" y="864" type="curve" smooth="yes"/>
      <point x="1664" y="980"/>
      <point x="1597" y="1057"/>
      <point x="1521" y="1092" type="curve" smooth="yes"/>
      <point x="1491" y="1105"/>
      <point x="1460" y="1112"/>
      <point x="1425" y="1112" type="curve" smooth="yes"/>
      <point x="1345" y="1112"/>
      <point x="1282" y="1070"/>
      <point x="1232" y="1026" type="curve" smooth="yes"/>
      <point x="1172" y="974"/>
      <point x="1120" y="904"/>
      <point x="1077" y="833" type="curve"/>
      <point x="1133" y="752"/>
      <point x="1184" y="682"/>
      <point x="1253" y="626" type="curve" smooth="yes"/>
      <point x="1302" y="585"/>
      <point x="1353" y="556"/>
    </contour>
    <contour>
      <point x="572" y="1112" type="curve" smooth="yes"/>
      <point x="421" y="1112"/>
      <point x="332" y="990"/>
      <point x="332" y="833" type="curve" smooth="yes"/>
      <point x="332" y="707"/>
      <point x="401" y="620"/>
      <point x="481" y="579" type="curve" smooth="yes"/>
      <point x="512" y="564"/>
      <point x="544" y="556"/>
      <point x="583" y="556" type="curve" smooth="yes"/>
      <point x="662" y="556"/>
      <point x="722" y="594"/>
      <point x="771" y="636" type="curve" smooth="yes"/>
      <point x="831" y="688"/>
      <point x="884" y="759"/>
      <point x="931" y="830" type="curve"/>
      <point x="865" y="936"/>
      <point x="790" y="1041"/>
      <point x="677" y="1090" type="curve" smooth="yes"/>
      <point x="645" y="1104"/>
      <point x="609" y="1112"/>
    </contour>
    <contour>
      <point x="580" y="415" type="curve" smooth="yes"/>
      <point x="394" y="415"/>
      <point x="268" y="536"/>
      <point x="210" y="686" type="curve" smooth="yes"/>
      <point x="189" y="739"/>
      <point x="179" y="798"/>
      <point x="179" y="857" type="curve" smooth="yes"/>
      <point x="179" y="978"/>
      <point x="238" y="1071"/>
      <point x="306" y="1133" type="curve"/>
      <point x="371" y="1195"/>
      <point x="464" y="1247"/>
      <point x="575" y="1247" type="curve" smooth="yes"/>
      <point x="728" y="1247"/>
      <point x="831" y="1163"/>
      <point x="911" y="1073" type="curve" smooth="yes"/>
      <point x="943" y="1037"/>
      <point x="974" y="996"/>
      <point x="1005" y="951" type="curve"/>
      <point x="1084" y="1065"/>
      <point x="1172" y="1177"/>
      <point x="1305" y="1226" type="curve" smooth="yes"/>
      <point x="1343" y="1241"/>
      <point x="1385" y="1247"/>
      <point x="1431" y="1247" type="curve" smooth="yes"/>
      <point x="1613" y="1247"/>
      <point x="1740" y="1147"/>
      <point x="1798" y="1001" type="curve" smooth="yes"/>
      <point x="1818" y="951"/>
      <point x="1827" y="897"/>
      <point x="1827" y="838" type="curve" smooth="yes"/>
      <point x="1827" y="638"/>
      <point x="1710" y="504"/>
      <point x="1574" y="446" type="curve" smooth="yes"/>
      <point x="1527" y="426"/>
      <point x="1479" y="415"/>
      <point x="1428" y="415" type="curve" smooth="yes"/>
      <point x="1349" y="415"/>
      <point x="1277" y="440"/>
      <point x="1210" y="489" type="curve" smooth="yes"/>
      <point x="1143" y="538"/>
      <point x="1074" y="612"/>
      <point x="1004" y="711" type="curve"/>
      <point x="925" y="597"/>
      <point x="832" y="487"/>
      <point x="701" y="437" type="curve" smooth="yes"/>
      <point x="662" y="423"/>
      <point x="622" y="415"/>
    </contour>
  </outline>
</glyph>
<glyph name="integral" format="1">
  <advance width="1209"/>
  <unicode hex="222B"/>
  <outline>
    <contour>
      <point x="377" y="-703" type="curve" smooth="yes"/>
      <point x="308" y="-703"/>
      <point x="274" y="-693"/>
      <point x="218" y="-678" type="curve"/>
      <point x="215" y="-526" type="line"/>
      <point x="245" y="-538"/>
      <point x="300" y="-544"/>
      <point x="344" y="-544" type="curve" smooth="yes"/>
      <point x="499.796" y="-544"/>
      <point x="525.977" y="-449"/>
      <point x="525.977" y="-289" type="curve" smooth="yes"/>
      <point x="525.977" y="1239" type="line" smooth="yes"/>
      <point x="525.977" y="1500"/>
      <point x="610.577" y="1680"/>
      <point x="858.081" y="1680" type="curve" smooth="yes"/>
      <point x="922.081" y="1680"/>
      <point x="966.081" y="1668"/>
      <point x="1018.08" y="1656" type="curve"/>
      <point x="1021.08" y="1505" type="line"/>
      <point x="990.081" y="1517"/>
      <point x="935.081" y="1522"/>
      <point x="892.081" y="1522" type="curve" smooth="yes"/>
      <point x="736.286" y="1522"/>
      <point x="707.397" y="1428"/>
      <point x="707.397" y="1268" type="curve" smooth="yes"/>
      <point x="707.397" y="-261" type="line" smooth="yes"/>
      <point x="707.397" y="-522"/>
      <point x="625.617" y="-703"/>
    </contour>
  </outline>
</glyph>
<glyph name="approxequal" format="1">
  <advance width="2286"/>
  <unicode hex="2248"/>
  <outline>
    <contour>
      <point x="404" y="460" type="line"/>
      <point x="431.083" y="563"/>
      <point x="482.542" y="654"/>
      <point x="596.291" y="654" type="curve" smooth="yes"/>
      <point x="626.083" y="654"/>
      <point x="655.875" y="646"/>
      <point x="688.374" y="631" type="curve" smooth="yes"/>
      <point x="742.541" y="605"/>
      <point x="816.569" y="555"/>
      <point x="868.93" y="525" type="curve" smooth="yes"/>
      <point x="926.707" y="492"/>
      <point x="988.096" y="461"/>
      <point x="1072.05" y="461" type="curve" smooth="yes"/>
      <point x="1256.22" y="461"/>
      <point x="1351.64" y="593"/>
      <point x="1390.64" y="762" type="curve"/>
      <point x="1261.64" y="795" type="line"/>
      <point x="1229.14" y="697"/>
      <point x="1184" y="599"/>
      <point x="1078.37" y="599" type="curve" smooth="yes"/>
      <point x="1047.68" y="599"/>
      <point x="1015.18" y="611"/>
      <point x="979.068" y="630" type="curve"/>
      <point x="942.957" y="651"/>
      <point x="904.138" y="673"/>
      <point x="863.513" y="697" type="curve" smooth="yes"/>
      <point x="792.194" y="741"/>
      <point x="701.916" y="795"/>
      <point x="599" y="795" type="curve" smooth="yes"/>
      <point x="419.347" y="795"/>
      <point x="311" y="662"/>
      <point x="270" y="493" type="curve"/>
    </contour>
    <contour>
      <point x="402" y="898" type="line"/>
      <point x="430.181" y="1000"/>
      <point x="479.833" y="1091"/>
      <point x="591.777" y="1091" type="curve" smooth="yes"/>
      <point x="622.472" y="1091"/>
      <point x="653.166" y="1084"/>
      <point x="683.861" y="1069" type="curve" smooth="yes"/>
      <point x="738.93" y="1042"/>
      <point x="812.055" y="992"/>
      <point x="866.221" y="962" type="curve" smooth="yes"/>
      <point x="926.707" y="928"/>
      <point x="984.485" y="898"/>
      <point x="1069.35" y="898" type="curve" smooth="yes"/>
      <point x="1252.61" y="898"/>
      <point x="1352.64" y="1029"/>
      <point x="1388.64" y="1199" type="curve"/>
      <point x="1259.83" y="1232" type="line"/>
      <point x="1227.33" y="1131"/>
      <point x="1183.1" y="1036"/>
      <point x="1075.67" y="1036" type="curve" smooth="yes"/>
      <point x="1046.78" y="1036"/>
      <point x="1016.98" y="1045"/>
      <point x="982.679" y="1060" type="curve" smooth="yes"/>
      <point x="868.93" y="1112"/>
      <point x="752.472" y="1230"/>
      <point x="596.291" y="1230" type="curve" smooth="yes"/>
      <point x="414.833" y="1230"/>
      <point x="306" y="1103"/>
      <point x="267" y="930" type="curve"/>
    </contour>
  </outline>
</glyph>
<glyph name="notequal" format="1">
  <advance width="2308"/>
  <unicode hex="2260"/>
  <outline>
    <contour>
      <point x="620.06" y="81" type="line"/>
      <point x="488" y="102" type="line"/>
      <point x="626.38" y="408" type="line"/>
      <point x="293" y="408" type="line"/>
      <point x="283" y="550" type="line"/>
      <point x="692.282" y="550" type="line"/>
      <point x="847.56" y="882" type="line"/>
      <point x="293" y="882" type="line"/>
      <point x="282" y="1024" type="line"/>
      <point x="908.046" y="1024" type="line"/>
      <point x="1052.49" y="1346" type="line"/>
      <point x="1186.12" y="1324" type="line"/>
      <point x="1049.79" y="1024" type="line"/>
      <point x="1401.12" y="1024" type="line"/>
      <point x="1413.12" y="882" type="line"/>
      <point x="988.397" y="882" type="line"/>
      <point x="831.31" y="550" type="line"/>
      <point x="1402.12" y="550" type="line"/>
      <point x="1413.12" y="408" type="line"/>
      <point x="769.921" y="408" type="line"/>
    </contour>
  </outline>
</glyph>
<glyph name="lessequal" format="1">
  <advance width="2310"/>
  <unicode hex="2264"/>
  <outline>
    <contour>
      <point x="1372.09" y="259" type="line"/>
      <point x="326" y="787" type="line"/>
      <point x="326" y="882" type="line"/>
      <point x="1372.09" y="1437" type="line"/>
      <point x="1372.09" y="1272" type="line"/>
      <point x="530.88" y="838" type="line"/>
      <point x="1372.09" y="424" type="line"/>
    </contour>
    <contour>
      <point x="284" y="15" type="line"/>
      <point x="284" y="159" type="line"/>
      <point x="1406.09" y="159" type="line"/>
      <point x="1406.09" y="15" type="line"/>
    </contour>
  </outline>
</glyph>
<glyph name="greaterequal" format="1">
  <advance width="2318"/>
  <unicode hex="2265"/>
  <outline>
    <contour>
      <point x="294" y="15" type="line"/>
      <point x="294" y="159" type="line"/>
      <point x="1412" y="159" type="line"/>
      <point x="1412" y="15" type="line"/>
    </contour>
    <contour>
      <point x="334" y="1439" type="line"/>
      <point x="1389" y="883" type="line"/>
      <point x="1389" y="789" type="line"/>
      <point x="330" y="261" type="line"/>
      <point x="330" y="427" type="line"/>
      <point x="1180" y="835" type="line"/>
      <point x="334" y="1275" type="line"/>
    </contour>
  </outline>
</glyph>
<glyph name="uni2714" format="1">
  <advance width="1781.27215674"/>
  <unicode hex="2714"/>
  <outline>
    <contour>
      <point x="297" y="617" type="line" smooth="yes"/>
      <point x="272" y="733"/>
      <point x="450" y="793"/>
      <point x="491" y="667" type="curve" smooth="yes"/>
      <point x="581" y="426" type="line" smooth="yes"/>
      <point x="621" y="320"/>
      <point x="621" y="314"/>
      <point x="712" y="415" type="curve" smooth="yes"/>
      <point x="1548.0" y="1336.0" type="line" smooth="yes"/>
      <point x="1608" y="1403"/>
      <point x="1694" y="1346"/>
      <point x="1638.0" y="1271.0" type="curve" smooth="yes"/>
      <point x="920" y="305" type="line" smooth="yes"/>
      <point x="723" y="41"/>
      <point x="688" y="-21"/>
      <point x="580" y="-21" type="curve" smooth="yes"/>
      <point x="494" y="-21"/>
      <point x="435" y="10"/>
      <point x="393" y="196" type="curve" smooth="yes"/>
    </contour>
  </outline>
</glyph>
<glyph name="uniFB02" format="1">
  <advance width="2350"/>
  <unicode hex="FB02"/>
  <outline>
    <contour>
      <point x="137" y="-791" type="line"/>
      <point x="409.005" y="-754"/>
      <point x="501.088" y="-570"/>
      <point x="501.088" y="-277" type="curve" smooth="yes"/>
      <point x="501.088" y="815" type="line"/>
      <point x="764.698" y="815" type="line"/>
      <point x="764.698" y="941" type="line"/>
      <point x="501.088" y="941" type="line"/>
      <point x="501.088" y="1137" type="line" smooth="yes"/>
      <point x="501.088" y="1315"/>
      <point x="554.352" y="1391"/>
      <point x="678.935" y="1391" type="curve" smooth="yes"/>
      <point x="716.851" y="1391"/>
      <point x="756.573" y="1381"/>
      <point x="795.393" y="1371" type="curve"/>
      <point x="822.476" y="1496" type="line"/>
      <point x="753.865" y="1522"/>
      <point x="690.671" y="1535"/>
      <point x="632.893" y="1535" type="curve" smooth="yes"/>
      <point x="418.935" y="1535"/>
      <point x="327" y="1407"/>
      <point x="327" y="1110" type="curve" smooth="yes"/>
      <point x="327" y="941" type="line"/>
      <point x="89" y="941" type="line"/>
      <point x="89" y="815" type="line"/>
      <point x="327" y="815" type="line"/>
      <point x="327" y="-304" type="line" smooth="yes"/>
      <point x="327" y="-491"/>
      <point x="253" y="-615"/>
      <point x="112" y="-649" type="curve"/>
    </contour>
    <contour>
      <point x="1320.52" y="-277" type="curve" smooth="yes"/>
      <point x="1383.62" y="-277"/>
      <point x="1479.62" y="-264"/>
      <point x="1574.62" y="-235" type="curve"/>
      <point x="1544.62" y="-84" type="line"/>
      <point x="1487.62" y="-102"/>
      <point x="1416.62" y="-118"/>
      <point x="1361.62" y="-118" type="curve" smooth="yes"/>
      <point x="1253.72" y="-118"/>
      <point x="1170.66" y="-54"/>
      <point x="1170.66" y="79" type="curve"/>
      <point x="1155.53" y="1528" type="line"/>
      <point x="978.66" y="1493" type="line"/>
      <point x="978.66" y="89" type="line" smooth="yes"/>
      <point x="978.66" y="-116"/>
      <point x="1093.66" y="-277"/>
    </contour>
  </outline>
</glyph>
<glyph name="J.alt" format="1">
  <advance width="1627"/>
  <outline>
    <contour>
      <point x="423" y="-40" type="curve" smooth="yes"/>
      <point x="494" y="-40"/>
      <point x="558" y="-28"/>
      <point x="616" y="0" type="curve"/>
      <point x="805" y="83"/>
      <point x="903" y="287"/>
      <point x="903" y="573" type="curve" smooth="yes"/>
      <point x="903" y="1696" type="line"/>
      <point x="701" y="1696" type="line"/>
      <point x="701" y="559" type="line" smooth="yes"/>
      <point x="701" y="334"/>
      <point x="632" y="133"/>
      <point x="430" y="133" type="curve" smooth="yes"/>
      <point x="330" y="133"/>
      <point x="258" y="170"/>
      <point x="195" y="218" type="curve"/>
      <point x="135" y="82" type="line"/>
      <point x="206" y="11"/>
      <point x="296" y="-40"/>
    </contour>
  </outline>
</glyph>
<glyph name="a.alt" format="1">
  <advance width="2072"/>
  <outline>
    <contour>
      <point x="666.972" y="-40" type="curve" smooth="yes"/>
      <point x="796.069" y="-40"/>
      <point x="963.082" y="1"/>
      <point x="1064.21" y="181" type="curve"/>
      <point x="1096.21" y="40"/>
      <point x="1234.21" y="-18"/>
      <point x="1336.21" y="-18" type="curve"/>
      <point x="1376.21" y="150" type="line"/>
      <point x="1315.21" y="150"/>
      <point x="1229.21" y="185"/>
      <point x="1229.21" y="322" type="curve" smooth="yes"/>
      <point x="1229.21" y="596" type="line" smooth="yes"/>
      <point x="1229.21" y="1077"/>
      <point x="995.582" y="1221"/>
      <point x="731.069" y="1221" type="curve" smooth="yes"/>
      <point x="381.694" y="1221"/>
      <point x="155" y="978"/>
      <point x="155" y="567" type="curve" smooth="yes"/>
      <point x="155" y="212"/>
      <point x="378.083" y="-40"/>
    </contour>
    <contour>
      <point x="686.833" y="124" type="curve" smooth="yes"/>
      <point x="490.93" y="124"/>
      <point x="351" y="313"/>
      <point x="351" y="578" type="curve" smooth="yes"/>
      <point x="351" y="881"/>
      <point x="494.541" y="1059"/>
      <point x="735.583" y="1059" type="curve" smooth="yes"/>
      <point x="926.971" y="1059"/>
      <point x="1036.21" y="943"/>
      <point x="1036.21" y="602" type="curve" smooth="yes"/>
      <point x="1036.21" y="306"/>
      <point x="958.568" y="124"/>
    </contour>
  </outline>
</glyph>
